<?xml version="1.0" encoding="UTF-8" standalone="no"?>
<!-- Created with Inkscape (http://www.inkscape.org/) -->

<svg
   xmlns:dc="http://purl.org/dc/elements/1.1/"
   xmlns:cc="http://creativecommons.org/ns#"
   xmlns:rdf="http://www.w3.org/1999/02/22-rdf-syntax-ns#"
   xmlns:svg="http://www.w3.org/2000/svg"
   xmlns="http://www.w3.org/2000/svg"
   xmlns:sodipodi="http://sodipodi.sourceforge.net/DTD/sodipodi-0.dtd"
   xmlns:inkscape="http://www.inkscape.org/namespaces/inkscape"
   width="74.645576mm"
   height="66.344269mm"
   viewBox="0 0 264.4922 235.07812"
   id="svg2"
   version="1.1"
   inkscape:version="0.91 r13725"
   sodipodi:docname="latte.svg">
  <defs
     id="defs4" />
  <sodipodi:namedview
     id="base"
     pagecolor="#ffffff"
     bordercolor="#666666"
     borderopacity="1.0"
     inkscape:pageopacity="0.0"
     inkscape:pageshadow="2"
     inkscape:zoom="0.98994949"
     inkscape:cx="132.60391"
     inkscape:cy="38.380074"
     inkscape:document-units="px"
     inkscape:current-layer="flowRoot3336"
     showgrid="false"
     fit-margin-top="0"
     fit-margin-left="0"
     fit-margin-right="0"
     fit-margin-bottom="0"
     inkscape:window-width="1304"
     inkscape:window-height="745"
     inkscape:window-x="54"
     inkscape:window-y="-8"
     inkscape:window-maximized="1" />
  <metadata
     id="metadata7">
    <rdf:RDF>
      <cc:Work
         rdf:about="">
        <dc:format>image/svg+xml</dc:format>
        <dc:type
           rdf:resource="http://purl.org/dc/dcmitype/StillImage" />
        <dc:title></dc:title>
      </cc:Work>
    </rdf:RDF>
  </metadata>
  <g
     inkscape:label="Calque 1"
     inkscape:groupmode="layer"
     id="layer1"
     transform="translate(-355.28711,-86.985625)">
    <g
       style="font-style:normal;font-weight:normal;font-size:40px;line-height:125%;font-family:Sans;letter-spacing:0px;word-spacing:0px;fill:#804400;fill-opacity:1;stroke:none;stroke-width:1px;stroke-linecap:butt;stroke-linejoin:miter;stroke-opacity:1"
       id="flowRoot3336">
      <path
         d="m 384.66211,89.602812 0,27.773438 -3.4375,0 0,-27.773438 3.4375,0 z"
         style="font-style:normal;font-variant:normal;font-weight:normal;font-stretch:normal;font-family:Latte;-inkscape-font-specification:Latte;text-align:end;text-anchor:end;fill:#804400"
         id="path3468" />
      <path
         d="m 402.74805,117.37625 q -0.50782,0 -0.78125,-0.15625 -0.27344,-0.15625 -0.3711,-0.64453 l -0.42968,-1.77734 q -0.74219,0.68359 -1.46485,1.23046 -0.70312,0.52735 -1.48437,0.89844 -0.78125,0.3711 -1.67969,0.54688 -0.89844,0.19531 -1.97266,0.19531 -1.11328,0 -2.08984,-0.29297 -0.95703,-0.3125 -1.69922,-0.9375 -0.72266,-0.64453 -1.15234,-1.58203 -0.41016,-0.95703 -0.41016,-2.24609 0,-1.13282 0.60547,-2.16797 0.625,-1.05469 2.01172,-1.875 1.38672,-0.82032 3.61328,-1.32813 2.22656,-0.52734 5.46875,-0.60547 l 0,-1.46484 q 0,-2.22656 -0.95703,-3.33984 -0.9375,-1.13282 -2.75391,-1.13282 -1.21094,0 -2.05078,0.3125 -0.82031,0.3125 -1.42578,0.6836 -0.60547,0.37109 -1.05469,0.68359 -0.42969,0.3125 -0.8789,0.3125 -0.35157,0 -0.60547,-0.17578 -0.25391,-0.17578 -0.41016,-0.44922 l -0.625,-1.09375 q 1.58203,-1.523438 3.39844,-2.265625 1.83594,-0.761719 4.0625,-0.761719 1.60156,0 2.85156,0.527344 1.25,0.507812 2.08984,1.464844 0.83985,0.957036 1.26954,2.285156 0.44921,1.32813 0.44921,2.94922 l 0,12.20703 -1.52343,0 z m -7.14844,-2.10937 q 0.85937,0 1.58203,-0.17579 0.72266,-0.17578 1.36719,-0.48828 0.64453,-0.33203 1.21094,-0.80078 0.58593,-0.48828 1.15234,-1.07422 l 0,-3.94531 q -2.28516,0.0977 -3.88672,0.39063 -1.60156,0.27343 -2.61719,0.74218 -0.99609,0.46875 -1.44531,1.11328 -0.44922,0.625 -0.44922,1.40625 0,0.74219 0.23438,1.28907 0.2539,0.52734 0.66406,0.8789 0.41016,0.33203 0.97656,0.50782 0.56641,0.15625 1.21094,0.15625 z"
         style="font-style:normal;font-variant:normal;font-weight:normal;font-stretch:normal;font-family:Latte;-inkscape-font-specification:Latte;text-align:end;text-anchor:end;fill:#804400"
         id="path3470" />
      <path
         d="m 414.50586,117.66922 q -2.20703,0 -3.41797,-1.26953 -1.19141,-1.26953 -1.19141,-3.63281 l 0,-11.64063 -2.1875,0 q -0.3125,0 -0.52734,-0.19531 -0.19531,-0.19531 -0.19531,-0.56641 l 0,-1.367186 3.02734,-0.390625 0.80078,-5.878907 q 0.0391,-0.292968 0.23438,-0.46875 0.21484,-0.175781 0.54687,-0.175781 l 1.73828,0 0,6.542969 8.59375,0 0.80079,-5.898438 q 0.0391,-0.292968 0.23437,-0.46875 0.21484,-0.175781 0.52734,-0.175781 l 1.75782,0 0,6.542969 5.29297,0 0,2.5 -5.29297,0 0,11.40625 q 0,1.17188 0.54687,1.75781 0.54688,0.58594 1.40625,0.58594 0.50781,0 0.87891,-0.13672 0.37109,-0.13672 0.625,-0.3125 0.27344,-0.17578 0.44922,-0.3125 0.17578,-0.13672 0.33203,-0.13672 0.27344,0 0.46875,0.33203 l 1.03515,1.64063 q -0.8789,0.82031 -2.07031,1.26953 -1.1914,0.44922 -2.48047,0.44922 -2.22656,0 -3.4375,-1.26953 -1.1914,-1.26953 -1.1914,-3.63281 l 0,-11.64063 -8.47657,0 0,11.40625 q 0,1.17188 0.54688,1.75781 0.54687,0.58594 1.40625,0.58594 0.50781,0 0.85937,-0.13672 0.3711,-0.13672 0.625,-0.3125 0.27344,-0.17578 0.44922,-0.3125 0.19532,-0.13672 0.35157,-0.13672 0.17578,0 0.27343,0.0781 0.11719,0.0781 0.21485,0.2539 l 1.01562,1.64063 q -0.8789,0.82031 -2.08984,1.26953 -1.19141,0.44922 -2.48047,0.44922 z"
         style="font-style:normal;font-variant:normal;font-weight:normal;font-stretch:normal;font-family:Latte;-inkscape-font-specification:Latte;text-align:end;text-anchor:end;fill:#804400"
         id="path3472" />
      <path
         d="m 441.77148,97.981719 q 1.71875,0 3.1836,0.566406 1.46484,0.566406 2.53906,1.660155 1.07422,1.09375 1.67969,2.67578 0.60547,1.58203 0.60547,3.63282 0,0.80078 -0.17578,1.07421 -0.17579,0.25391 -0.64454,0.25391 l -12.77343,0 q 0.0391,1.79688 0.48828,3.14453 0.44922,1.32813 1.23047,2.20703 0.80078,0.87891 1.89453,1.32813 1.09375,0.42969 2.4414,0.42969 1.25,0 2.16797,-0.27344 0.91797,-0.29297 1.5625,-0.64453 0.66407,-0.35157 1.11328,-0.625 0.44922,-0.29297 0.78125,-0.29297 0.21485,0 0.3711,0.0976 0.15625,0.0781 0.27344,0.23438 l 0.97656,1.25 q -0.64453,0.76172 -1.52344,1.32812 -0.85937,0.54688 -1.85547,0.91797 -0.99609,0.35157 -2.07031,0.52735 -1.05469,0.17578 -2.08984,0.17578 -1.99219,0 -3.67188,-0.66406 -1.67969,-0.66407 -2.91016,-1.95313 -1.21093,-1.30859 -1.89453,-3.20312 -0.68359,-1.91407 -0.68359,-4.39454 0,-1.99218 0.60547,-3.71093 0.625,-1.73828 1.77734,-3.00782 1.17188,-1.289059 2.83203,-2.011715 1.67969,-0.722656 3.76953,-0.722656 z m 0.0586,2.500001 q -2.40235,0 -3.8086,1.40625 -1.38671,1.40625 -1.73828,3.84766 l 10.41016,0 q 0,-1.15235 -0.33203,-2.10938 -0.33203,-0.97656 -0.95703,-1.66016 -0.625,-0.70312 -1.54297,-1.09375 -0.89844,-0.39062 -2.03125,-0.39062 z"
         style="font-style:normal;font-variant:normal;font-weight:normal;font-stretch:normal;font-family:Latte;-inkscape-font-specification:Latte;text-align:end;text-anchor:end;fill:#804400"
         id="path3474" />
      <path
         d="m 466.22461,105.52078 q 0,4.04297 1.01562,7.85156 1.03516,3.78907 2.98829,7.22657 0.3125,0.5664 0.15625,0.8789 -0.15625,0.33203 -0.44922,0.50782 l -1.52344,0.9375 q -1.40625,-2.16797 -2.40234,-4.31641 -0.97657,-2.12891 -1.60157,-4.25781 -0.60547,-2.14844 -0.89843,-4.33594 -0.27344,-2.20703 -0.27344,-4.49219 0,-2.28515 0.27344,-4.47265 0.29296,-2.187505 0.89843,-4.335943 0.625,-2.148437 1.60157,-4.277343 0.99609,-2.128907 2.40234,-4.296875 l 1.52344,0.917968 q 0.29297,0.195313 0.44922,0.527344 0.15625,0.3125 -0.15625,0.878906 -1.95313,3.4375 -2.98829,7.246094 -1.01562,3.789059 -1.01562,7.812499 z"
         style="font-style:normal;font-variant:normal;font-weight:normal;font-stretch:normal;font-family:Latte;-inkscape-font-specification:Latte;text-align:end;text-anchor:end;fill:#804400"
         id="path3476" />
      <path
         d="m 475.52148,117.76688 q -0.27343,0.66406 -0.80078,0.97656 -0.52734,0.33203 -1.09375,0.33203 l -1.44531,0 12.61719,-28.222658 q 0.48828,-1.25 1.79687,-1.25 l 1.44532,0 -12.51954,28.164068 z"
         style="font-style:normal;font-variant:normal;font-weight:normal;font-stretch:normal;font-family:Latte;-inkscape-font-specification:Latte;text-align:end;text-anchor:end;fill:#804400"
         id="path3478" />
      <path
         d="m 492.43555,86.985625 2.5,0 0,8.222656 -2.5,0 0,-8.222656 z"
         style="font-style:normal;font-variant:normal;font-weight:normal;font-stretch:normal;font-family:Latte;-inkscape-font-specification:Latte;text-align:end;text-anchor:end;fill:#804400"
         id="path3480" />
      <path
         d="m 505.75586,89.602812 0,27.773438 -3.4375,0 0,-27.773438 3.4375,0 z"
         style="font-style:normal;font-variant:normal;font-weight:normal;font-stretch:normal;font-family:Latte;-inkscape-font-specification:Latte;text-align:end;text-anchor:end;fill:#804400"
         id="path3482" />
      <path
         d="m 524.81836,117.37625 q -0.37109,0 -0.60547,-0.15625 -0.23437,-0.17578 -0.27344,-0.54687 l -0.35156,-2.28516 q -1.21094,1.46484 -2.75391,2.36328 -1.54296,0.89844 -3.57421,0.89844 -1.6211,0 -2.94922,-0.625 -1.3086,-0.64453 -2.2461,-1.875 -0.9375,-1.23047 -1.44531,-3.04688 -0.50781,-1.83593 -0.50781,-4.21875 0,-2.10937 0.54687,-3.92578 0.56641,-1.83594 1.6211,-3.16406 1.05468,-1.328126 2.55859,-2.089845 1.52344,-0.761719 3.4375,-0.761719 1.85547,0 3.125,0.664063 1.26953,0.644531 2.26563,1.835941 l 0.2539,-1.464848 q 0.13672,-0.703125 0.89844,-0.703125 l 2.05078,0 0,19.101563 -2.05078,0 z m -6.44531,-2.48047 q 1.62109,0 2.8125,-0.74219 1.21093,-0.76171 2.24609,-2.10937 l 0,-9.23828 q -0.91797,-1.23047 -1.99219,-1.71875 -1.07422,-0.50781 -2.38281,-0.50781 -2.59766,0 -4.00391,1.89453 -1.40625,1.89453 -1.40625,5.41015 0,1.85547 0.3125,3.1836 0.33204,1.32812 0.9375,2.1875 0.60547,0.83984 1.48438,1.25 0.87891,0.39062 1.99219,0.39062 z"
         style="font-style:normal;font-variant:normal;font-weight:normal;font-stretch:normal;font-family:Latte;-inkscape-font-specification:Latte;text-align:end;text-anchor:end;fill:#804400"
         id="path3484" />
      <path
         d="m 534.54492,112.55203 q 0.13672,-0.27344 0.33203,-0.41015 0.19532,-0.13672 0.39063,-0.13672 0.21484,0 0.39062,0.13672 0.19532,0.13671 0.33203,0.41015 l 2.38282,4.82422 -6.28907,0 2.46094,-4.82422 z m 1.36719,-9.43359 q -0.13672,0.27344 -0.33203,0.41015 -0.19531,0.13672 -0.39063,0.13672 -0.19531,0 -0.39062,-0.13672 -0.17578,-0.13671 -0.3125,-0.41015 l -2.40235,-4.843753 6.3086,0 -2.48047,4.843753 z"
         style="font-style:normal;font-variant:normal;font-weight:normal;font-stretch:normal;font-family:Latte;-inkscape-font-specification:Latte;text-align:end;text-anchor:end;fill:#804400"
         id="path3486" />
      <path
         d="m 548.91992,117.66922 q -2.20703,0 -3.39844,-1.26953 -1.1914,-1.26953 -1.1914,-3.63281 l 0,-11.64063 -2.1875,0 q -0.29297,0 -0.50781,-0.19531 -0.19532,-0.19531 -0.19532,-0.56641 l 0,-1.367186 3.00782,-0.390625 0.80078,-5.878907 q 0.0391,-0.292968 0.23437,-0.46875 0.21485,-0.175781 0.52735,-0.175781 l 1.75781,0 0,6.542969 5.2539,0 0,2.5 -5.2539,0 0,11.40625 q 0,1.17188 0.52734,1.75781 0.54688,0.58594 1.40625,0.58594 0.50781,0 0.85938,-0.13672 0.37109,-0.13672 0.625,-0.3125 0.2539,-0.17578 0.42968,-0.3125 0.19532,-0.13672 0.35157,-0.13672 0.17578,0 0.27343,0.0781 0.11719,0.0781 0.21485,0.2539 l 1.01562,1.64063 q -0.8789,0.82031 -2.07031,1.26953 -1.19141,0.44922 -2.48047,0.44922 z"
         style="font-style:normal;font-variant:normal;font-weight:normal;font-stretch:normal;font-family:Latte;-inkscape-font-specification:Latte;text-align:end;text-anchor:end;fill:#804400"
         id="path3488" />
      <path
         d="m 564.27148,97.981719 q 1.71875,0 3.1836,0.566406 1.46484,0.566406 2.53906,1.660155 1.07422,1.09375 1.67969,2.67578 0.60547,1.58203 0.60547,3.63282 0,0.80078 -0.17578,1.07421 -0.17579,0.25391 -0.64454,0.25391 l -12.77343,0 q 0.0391,1.79688 0.48828,3.14453 0.44922,1.32813 1.23047,2.20703 0.80078,0.87891 1.89453,1.32813 1.09375,0.42969 2.4414,0.42969 1.25,0 2.16797,-0.27344 0.91797,-0.29297 1.5625,-0.64453 0.66407,-0.35157 1.11328,-0.625 0.44922,-0.29297 0.78125,-0.29297 0.21485,0 0.3711,0.0976 0.15625,0.0781 0.27344,0.23438 l 0.97656,1.25 q -0.64453,0.76172 -1.52344,1.32812 -0.85937,0.54688 -1.85547,0.91797 -0.99609,0.35157 -2.07031,0.52735 -1.05469,0.17578 -2.08984,0.17578 -1.99219,0 -3.67188,-0.66406 -1.67969,-0.66407 -2.91016,-1.95313 -1.21093,-1.30859 -1.89453,-3.20312 -0.68359,-1.91407 -0.68359,-4.39454 0,-1.99218 0.60547,-3.71093 0.625,-1.73828 1.77734,-3.00782 1.17188,-1.289059 2.83203,-2.011715 1.67969,-0.722656 3.76953,-0.722656 z m 0.0586,2.500001 q -2.40235,0 -3.8086,1.40625 -1.38671,1.40625 -1.73828,3.84766 l 10.41016,0 q 0,-1.15235 -0.33203,-2.10938 -0.33203,-0.97656 -0.95703,-1.66016 -0.625,-0.70312 -1.54297,-1.09375 -0.89844,-0.39062 -2.03125,-0.39062 z"
         style="font-style:normal;font-variant:normal;font-weight:normal;font-stretch:normal;font-family:Latte;-inkscape-font-specification:Latte;text-align:end;text-anchor:end;fill:#804400"
         id="path3490" />
      <path
         d="m 580.05273,98.274687 0,19.101563 -3.4375,0 0,-19.101563 3.4375,0 z"
         style="font-style:normal;font-variant:normal;font-weight:normal;font-stretch:normal;font-family:Latte;-inkscape-font-specification:Latte;text-align:end;text-anchor:end;fill:#804400"
         id="path3492" />
      <path
         d="m 586.06836,117.76688 q -0.27344,0.66406 -0.80078,0.97656 -0.52735,0.33203 -1.09375,0.33203 l -1.44531,0 12.61718,-28.222658 q 0.48828,-1.25 1.79688,-1.25 l 1.44531,0 -12.51953,28.164068 z"
         style="font-style:normal;font-variant:normal;font-weight:normal;font-stretch:normal;font-family:Latte;-inkscape-font-specification:Latte;text-align:end;text-anchor:end;fill:#804400"
         id="path3494" />
      <path
         d="m 604.64258,105.52078 q 0,-4.02344 -1.03516,-7.812499 -1.01562,-3.808594 -2.96875,-7.246094 -0.15625,-0.292968 -0.19531,-0.507812 -0.0195,-0.214844 0.0391,-0.390625 0.0586,-0.175781 0.17578,-0.292969 0.11719,-0.117187 0.27344,-0.214844 l 1.52344,-0.9375 q 1.40625,2.1875 2.38281,4.316407 0.99609,2.128906 1.60156,4.277343 0.625,2.148438 0.89844,4.335943 0.29297,2.1875 0.29297,4.47265 0,2.28516 -0.29297,4.49219 -0.27344,2.1875 -0.89844,4.33594 -0.60547,2.1289 -1.60156,4.25781 -0.97656,2.14844 -2.38281,4.31641 l -1.52344,-0.9375 q -0.15625,-0.0781 -0.27344,-0.21485 -0.11718,-0.11719 -0.17578,-0.29297 -0.0586,-0.15625 -0.0391,-0.37109 0.0391,-0.21484 0.19531,-0.50781 1.95313,-3.4375 2.96875,-7.22657 1.03516,-3.80859 1.03516,-7.85156 z"
         style="font-style:normal;font-variant:normal;font-weight:normal;font-stretch:normal;font-family:Latte;-inkscape-font-specification:Latte;text-align:end;text-anchor:end;fill:#804400"
         id="path3496" />
      <path
         d="m 618.27539,115.28641 q 0,0.48828 -0.19531,0.9375 -0.19531,0.42968 -0.54688,0.76172 -0.33203,0.3125 -0.78125,0.50781 -0.42968,0.19531 -0.91797,0.19531 -0.48828,0 -0.91796,-0.19531 -0.42969,-0.19531 -0.76172,-0.50781 -0.3125,-0.33204 -0.50782,-0.76172 -0.19531,-0.44922 -0.19531,-0.9375 0,-0.50782 0.19531,-0.9375 0.19532,-0.44922 0.50782,-0.78125 0.33203,-0.33203 0.76172,-0.52735 0.42968,-0.19531 0.91796,-0.19531 0.48829,0 0.91797,0.19531 0.44922,0.19532 0.78125,0.52735 0.35157,0.33203 0.54688,0.78125 0.19531,0.42968 0.19531,0.9375 z m -0.11719,-13.24219 q 0,0.48828 -0.19531,0.9375 -0.19531,0.42969 -0.54687,0.76172 -0.33204,0.3125 -0.78125,0.50781 -0.42969,0.19531 -0.91797,0.19531 -0.48828,0 -0.91797,-0.19531 -0.42969,-0.19531 -0.76172,-0.50781 -0.3125,-0.33203 -0.50781,-0.76172 -0.19532,-0.44922 -0.19532,-0.9375 0,-0.50781 0.19532,-0.9375 0.19531,-0.44922 0.50781,-0.78125 0.33203,-0.332033 0.76172,-0.527345 0.42969,-0.195313 0.91797,-0.195313 0.48828,0 0.91797,0.195313 0.44921,0.195312 0.78125,0.527345 0.35156,0.33203 0.54687,0.78125 0.19531,0.42969 0.19531,0.9375 z"
         style="font-style:normal;font-variant:normal;font-weight:normal;font-stretch:normal;font-family:Latte;-inkscape-font-specification:Latte;text-align:end;text-anchor:end;fill:#804400"
         id="path3498" />
      <path
         d="m 372.66992,144.81766 -0.8789,1.66015 q -0.42969,0.80078 -1.23047,0.80078 -0.44922,0 -0.97657,-0.41015 -0.39062,-0.29297 -0.95703,-0.625 -0.58593,-0.33203 -1.44531,-0.625 -0.82031,-0.27344 -1.99219,-0.27344 -1.11328,0 -1.95312,0.25391 -0.80078,0.2539 -1.32813,0.70312 -0.52734,0.44922 -0.78125,1.03516 -0.27343,0.60547 -0.27343,1.28906 0,0.87891 0.44921,1.44531 0.50782,0.58594 1.32813,1.01563 0.85937,0.44922 1.99219,0.78125 1.17187,0.35156 2.38281,0.74218 1.25,0.39063 2.32422,0.85938 1.09375,0.50781 1.97265,1.26953 0.87891,0.78125 1.40625,1.91406 0.54688,1.13282 0.54688,2.75391 0,1.71875 -0.56641,3.20312 -0.58593,1.50391 -1.71875,2.63672 -1.11328,1.11328 -2.7539,1.73828 -1.81641,0.66407 -4.14063,0.66407 -2.79297,0 -5.01953,-0.95703 -2.07031,-0.95704 -3.51562,-2.5586 l -0.25391,-0.27344 0.19531,-0.3125 1.03516,-1.67968 q 0.19531,-0.3125 0.48828,-0.50782 0.33203,-0.19531 0.74219,-0.19531 0.54687,0 1.15234,0.52735 0.42969,0.39062 1.09375,0.83984 0.72266,0.44922 1.75781,0.82031 0.9961,0.3711 2.40235,0.3711 1.17187,0 2.08984,-0.29297 0.87891,-0.27344 1.48438,-0.78125 0.625,-0.50782 0.91796,-1.23047 0.29297,-0.74219 0.29297,-1.64063 0,-0.95703 -0.41015,-1.54297 -0.48828,-0.625 -1.3086,-1.05468 -0.85937,-0.44922 -1.97265,-0.76172 -1.17188,-0.33203 -2.40235,-0.6836 -1.25,-0.37109 -2.42187,-0.82031 -1.15235,-0.48828 -2.03125,-1.30859 -0.87891,-0.82031 -1.42578,-1.99219 -0.52735,-1.19141 -0.52735,-2.92969 0,-1.38672 0.54688,-2.69531 0.54687,-1.30859 1.58203,-2.30469 1.03516,-1.01562 2.67578,-1.64062 1.69922,-0.625 3.88672,-0.625 2.42187,0 4.33594,0.72265 1.8164,0.72266 3.125,2.10938 l 0.2539,0.25391 -0.17578,0.3125 z"
         style="font-style:normal;font-variant:normal;font-weight:bold;font-stretch:normal;font-family:Latte;-inkscape-font-specification:'Latte Bold';text-align:end;text-anchor:end;fill:#804400"
         id="path3500" />
      <path
         d="m 395.26758,141.71219 0,0.48828 0,2.96875 0,0.48828 -0.48828,0 -7.2461,0 0,21.23047 0,0.48828 -0.54687,0 -3.92578,0 -0.52735,0 0,-0.48828 0,-21.23047 -7.28515,0 -0.48828,0 0,-0.48828 0,-2.96875 0,-0.48828 0.48828,0 19.53125,0 0.48828,0 z"
         style="font-style:normal;font-variant:normal;font-weight:bold;font-stretch:normal;font-family:Latte;-inkscape-font-specification:'Latte Bold';text-align:end;text-anchor:end;fill:#804400"
         id="path3502" />
      <path
         d="m 405.22852,157.20047 -2.05079,0 0,9.6875 0,0.48828 -0.48828,0 -3.55468,0 -0.48829,0 0,-0.48828 0,-24.6875 0,-0.48828 0.48829,0 7.30468,0 q 2.65625,0 4.58985,0.50781 1.99218,0.50781 3.28125,1.46484 1.21093,0.97657 1.77734,2.34375 0.56641,1.34766 0.56641,3.02735 0,1.36718 -0.42969,2.57812 -0.42969,1.21094 -1.23047,2.16797 -0.83984,0.95703 -2.10937,1.66016 -0.83985,0.44922 -1.875,0.78125 0.3125,0.27343 0.60546,0.60547 l 7.16797,9.78515 0.50782,0.74219 -0.91797,0 -3.16407,0 q -1.21093,0 -1.93359,-0.89844 l -6.66016,-8.71094 q -0.2539,-0.3125 -0.50781,-0.44921 -0.27344,-0.11719 -0.8789,-0.11719 z m -2.05079,-11.71875 0,8.14453 3.10547,0 q 1.44532,0 2.53907,-0.3125 1.05468,-0.3125 1.75781,-0.87891 0.70312,-0.54687 1.05469,-1.32812 0.35156,-0.80078 0.37109,-1.75781 0,-1.97266 -1.34766,-2.91016 -1.32812,-0.95703 -4.21875,-0.95703 l -3.26172,0 z"
         style="font-style:normal;font-variant:normal;font-weight:bold;font-stretch:normal;font-family:Latte;-inkscape-font-specification:'Latte Bold';text-align:end;text-anchor:end;fill:#804400"
         id="path3504" />
      <path
         d="m 445.20898,149.29031 q 0.87891,2.40235 0.87891,5.25391 0,2.87109 -0.87891,5.2539 -0.8789,2.40235 -2.5,4.16016 -1.64062,1.75781 -4.0625,2.73438 -2.40234,0.95703 -5.35156,0.95703 -2.91015,0 -5.35156,-0.97657 -2.42188,-0.97656 -4.08203,-2.71484 -1.6211,-1.73828 -2.51953,-4.16016 -0.87891,-2.40234 -0.87891,-5.2539 0,-2.85156 0.87891,-5.25391 0.89843,-2.42187 2.51953,-4.16015 1.64062,-1.75782 4.08203,-2.73438 2.44141,-0.97656 5.35156,-0.97656 2.92969,0 5.35156,0.97656 2.42188,0.97656 4.0625,2.73438 1.6211,1.73828 2.5,4.16015 z m -4.3164,9.10156 q 0.58594,-1.69921 0.58594,-3.84765 0,-2.14844 -0.58594,-3.86719 -0.58594,-1.67969 -1.64063,-2.83203 -1.05468,-1.15234 -2.55859,-1.75781 -1.50391,-0.625 -3.39844,-0.625 -1.875,0 -3.39844,0.625 -1.5039,0.60547 -2.55859,1.75781 -1.07422,1.15234 -1.66016,2.83203 -0.58593,1.69922 -0.58593,3.86719 0,2.14844 0.58593,3.84765 0.58594,1.67969 1.66016,2.85157 1.07422,1.15234 2.55859,1.75781 1.50391,0.60547 3.39844,0.60547 1.89453,0 3.39844,-0.60547 1.50391,-0.60547 2.55859,-1.75781 1.05469,-1.17188 1.64063,-2.85157 z"
         style="font-style:normal;font-variant:normal;font-weight:bold;font-stretch:normal;font-family:Latte;-inkscape-font-specification:'Latte Bold';text-align:end;text-anchor:end;fill:#804400"
         id="path3506" />
      <path
         d="m 450.87305,141.71219 1.85547,0 q 0.58593,0 0.89843,0.13672 0.3711,0.17578 0.70313,0.66406 l 13.94531,17.85156 q 0,-0.0781 0,-0.13672 l 0,-18.02734 0,-0.48828 0.48828,0 3.125,0 0.48828,0 0,0.48828 0,24.6875 0,0.48828 -0.48828,0 -1.79687,0 q -0.52735,0 -0.91797,-0.17578 l 0,-0.0195 -0.0195,0 q -0.42969,-0.23438 -0.72266,-0.64453 l -13.94531,-17.8125 q 0,0.0195 0,0.0391 l 0,18.125 0,0.48828 -0.48828,0 -3.125,0 -0.48828,0 0,-0.48828 0,-24.6875 0,-0.48828 0.48828,0 z"
         style="font-style:normal;font-variant:normal;font-weight:bold;font-stretch:normal;font-family:Latte;-inkscape-font-specification:'Latte Bold';text-align:end;text-anchor:end;fill:#804400"
         id="path3508" />
      <path
         d="m 500.4043,154.52469 0,0.46875 0,9.51172 0,0.23437 -0.19532,0.13672 q -0.97656,0.68359 -2.01171,1.21094 -1.03516,0.50781 -2.12891,0.85937 -2.32422,0.70313 -5.05859,0.70313 -3.32032,0 -6.01563,-0.95703 -2.69531,-0.95704 -4.51172,-2.69532 -1.77734,-1.73828 -2.71484,-4.16015 -0.95703,-2.40235 -0.95703,-5.29297 0,-2.91016 0.91797,-5.3125 0.91796,-2.42188 2.63671,-4.16016 1.75782,-1.73828 4.39454,-2.69531 2.61718,-0.95703 5.83984,-0.95703 1.64062,0 3.04687,0.23437 1.40625,0.23438 2.5586,0.66407 1.13281,0.42968 2.07031,1.07421 0.9375,0.625 1.75781,1.40625 l 0.29297,0.27344 -0.21484,0.33203 -0.9961,1.60157 q -0.35156,0.54687 -0.91796,0.70312 -0.58594,0.13672 -1.21094,-0.23437 -0.46875,-0.27344 -0.9961,-0.625 -0.50781,-0.33204 -1.26953,-0.625 -0.76172,-0.3125 -1.79687,-0.54688 -1.03516,-0.21484 -2.46094,-0.21484 -2.07031,0 -3.76953,0.625 -1.66016,0.625 -2.83203,1.79687 -1.17188,1.17188 -1.81641,2.85156 -0.625,1.69922 -0.625,3.8086 0,2.20703 0.66406,3.94531 0.66407,1.71875 1.89454,2.89063 1.23046,1.17187 2.96875,1.79687 1.75781,0.625 3.94531,0.625 1.67969,0 3.00781,-0.33203 1.19141,-0.29297 2.30469,-0.82031 l 0,-4.45313 -3.39844,0 q -0.58594,0 -0.95703,-0.33203 -0.41016,-0.33203 -0.41016,-0.83984 l 0,-2.01172 0,-0.48828 0.52735,0 7.94922,0 0.48828,0 z"
         style="font-style:normal;font-variant:normal;font-weight:bold;font-stretch:normal;font-family:Latte;-inkscape-font-specification:'Latte Bold';text-align:end;text-anchor:end;fill:#804400"
         id="path3510" />
      <path
         d="m 529.33008,151.24344 -0.89844,1.25 q -0.19531,0.27343 -0.41016,0.42968 -0.27343,0.19532 -0.70312,0.19532 -0.44922,0 -0.89844,-0.33203 -0.29297,-0.21485 -0.74219,-0.48829 -0.42968,-0.2539 -1.11328,-0.46875 -0.68359,-0.21484 -1.71875,-0.21484 -1.34765,0 -2.36328,0.41016 -1.01562,0.41015 -1.69922,1.17187 -0.70312,0.80078 -1.05468,1.95313 -0.33204,1.17187 -0.33204,2.65625 0,1.54297 0.35157,2.71484 0.39062,1.15234 1.09375,1.95313 0.68359,0.76171 1.64062,1.15234 0.97656,0.39062 2.1875,0.39062 1.19141,0 1.9336,-0.2539 0.72265,-0.27344 1.15234,-0.58594 0.46875,-0.33203 0.78125,-0.60547 0.46875,-0.42969 0.99609,-0.42969 0.625,0 1.01563,0.52735 l 0.99609,1.23047 0.23438,0.3125 -0.25391,0.3125 q -0.66406,0.80078 -1.48437,1.40625 -0.80079,0.58593 -1.71875,0.97656 -0.91797,0.37109 -2.03125,0.56641 -1.15235,0.17578 -2.32422,0.17578 -2.07032,0 -3.86719,-0.70313 -1.62109,-0.66406 -2.75391,-1.95312 -1.15234,-1.26953 -1.79687,-3.08594 -0.64453,-1.79688 -0.64453,-4.10156 0,-2.08985 0.58593,-3.86719 0.58594,-1.79688 1.73829,-3.125 1.15234,-1.32813 2.91015,-2.05078 1.95313,-0.78125 4.47266,-0.78125 2.38281,0 3.92578,0.70312 1.54297,0.6836 2.75391,1.9336 l 0.27343,0.29297 -0.23437,0.33203 z"
         style="font-style:normal;font-variant:normal;font-weight:bold;font-stretch:normal;font-family:Latte;-inkscape-font-specification:'Latte Bold';text-align:end;text-anchor:end;fill:#804400"
         id="path3512" />
      <path
         d="m 537.31836,148.70437 q 1.95312,-0.72265 4.375,-0.72265 2.42187,0 4.35547,0.72265 1.85547,0.70313 3.10547,1.99219 1.23047,1.28906 1.91406,3.10547 0.66406,1.79688 0.66406,4.00391 0,2.22656 -0.66406,4.02343 -0.66406,1.81641 -1.91406,3.10547 -0.625,0.64453 -1.38672,1.15235 -0.74219,0.48828 -1.71875,0.83984 -1.95313,0.72266 -4.35547,0.72266 -2.40234,0 -4.375,-0.72266 -1.875,-0.70312 -3.125,-1.99219 -1.25,-1.28906 -1.91406,-3.10547 -0.66407,-1.79687 -0.66407,-4.02343 0,-2.20703 0.66407,-4.00391 0.66406,-1.81641 1.91406,-3.10547 1.25,-1.28906 3.125,-1.99219 z m 1.89453,14.88282 q 1.05469,0.41015 2.48047,0.41015 1.40625,0 2.44141,-0.41015 1.01562,-0.39063 1.69921,-1.15235 0.70313,-0.78125 1.05469,-1.91406 0.33203,-1.17187 0.33203,-2.69531 0,-1.52344 -0.33203,-2.69531 -0.35156,-1.15235 -1.05469,-1.91407 -0.68359,-0.76172 -1.69921,-1.17187 -1.03516,-0.41016 -2.44141,-0.41016 -1.42578,0 -2.48047,0.41016 -1.03516,0.41015 -1.69922,1.17187 -0.70312,0.78125 -1.05469,1.91407 -0.33203,1.17187 -0.33203,2.69531 0,1.52344 0.33203,2.69531 0.35157,1.15234 1.05469,1.91406 0.66406,0.76172 1.69922,1.15235 z"
         style="font-style:normal;font-variant:normal;font-weight:bold;font-stretch:normal;font-family:Latte;-inkscape-font-specification:'Latte Bold';text-align:end;text-anchor:end;fill:#804400"
         id="path3514" />
      <path
         d="m 556.47852,167.37625 0,-0.48828 0,-15 -1.46485,-0.19531 q -0.5664,-0.0586 -0.91797,-0.33204 -0.21484,-0.17578 -0.33203,-0.41015 -0.0977,-0.25391 -0.0977,-0.52735 l 0,-1.32812 0,-0.46875 0.48828,0 2.32422,0 0,-1.03516 q 0,-1.71875 0.46875,-3.08593 0.46875,-1.38672 1.36718,-2.32422 0.9375,-0.95703 2.28516,-1.44532 1.32812,-0.48828 2.98828,-0.48828 0.68359,0 1.34766,0.0977 0.64453,0.0977 1.25,0.29297 l 0.37109,0.11719 -0.0195,0.37109 -0.0977,1.73828 q -0.0391,0.42969 -0.33203,0.68359 -0.2539,0.21485 -0.625,0.25391 -0.48828,0.0586 -1.26953,0.0586 -0.78125,0 -1.38672,0.19532 -0.5664,0.17578 -0.97656,0.58593 -0.42969,0.42969 -0.66406,1.15235 -0.25391,0.76172 -0.25391,1.89453 l 0,0.9375 7.44141,0 0,-1.54297 q 0,-1.71875 0.50781,-3.06641 0.50781,-1.36718 1.44531,-2.32421 0.95703,-0.95704 2.32422,-1.46485 1.30859,-0.48828 2.83203,-0.48828 1.26953,0 2.44141,0.42969 l 0.33203,0.11719 -0.0195,0.35156 -0.0977,1.71875 q -0.0391,0.41015 -0.27344,0.66406 -0.23437,0.23438 -0.625,0.27344 -0.44921,0.0586 -1.1914,0.0586 -0.72266,0 -1.3086,0.19531 -0.52734,0.17579 -0.89843,0.58594 -0.39063,0.42969 -0.625,1.15235 -0.25391,0.76171 -0.25391,1.91406 l 0,1.42578 4.60938,0 0.48828,0 0,0.48828 0,2.5 0,0.48828 -0.48828,0 -4.47266,0 0,14.78516 0,0.48828 -0.52734,0 -3.67188,0 -0.52734,0 0,-0.48828 0,-14.78516 -7.30469,0 0,14.78516 0,0.48828 -0.52734,0 -3.57422,0 -0.48828,0 z"
         style="font-style:normal;font-variant:normal;font-weight:bold;font-stretch:normal;font-family:Latte;-inkscape-font-specification:'Latte Bold';text-align:end;text-anchor:end;fill:#804400"
         id="path3516" />
      <path
         d="m 584.56445,148.74344 q 1.97266,-0.76172 4.41407,-0.76172 2.01171,0 3.75,0.60547 1.60156,0.5664 2.73437,1.67968 1.15234,1.11329 1.79688,2.71485 0.64453,1.58203 0.64453,3.61328 0,0.89844 -0.25391,1.28906 -0.3125,0.44922 -1.05469,0.44922 l -13.24218,0 q 0.0781,1.30859 0.44921,2.28516 0.46875,1.15234 1.26954,1.89453 0.80078,0.72265 1.91406,1.09375 1.13281,0.37109 2.51953,0.37109 1.30859,0 2.24609,-0.2539 0.97657,-0.27344 1.64063,-0.60547 0.64453,-0.35157 1.07422,-0.625 0.5664,-0.35157 1.03515,-0.35157 0.35157,0 0.60547,0.15625 0.25391,0.13672 0.42969,0.3711 l 0.97656,1.25 0.23438,0.3125 -0.25391,0.29297 q -0.68359,0.82031 -1.62109,1.42578 -0.91797,0.58594 -1.95313,0.95703 -1.07422,0.37109 -2.30469,0.56641 -1.23046,0.17578 -2.4414,0.17578 -2.32422,0 -4.29688,-0.70313 -1.89453,-0.66406 -3.20312,-1.97265 -1.28906,-1.3086 -2.01172,-3.20313 -0.70313,-1.875 -0.70313,-4.31641 0,-1.97265 0.64454,-3.6914 0.64453,-1.71875 1.875,-3.00781 1.23046,-1.28907 3.08593,-2.01172 z m 6.54297,3.0664 q -0.91797,-0.35156 -2.07031,-0.35156 -2.46094,0 -3.84766,1.26953 -1.25,1.13281 -1.66015,3.00781 l 10.29297,0 q -0.0586,-0.80078 -0.29297,-1.46484 -0.29297,-0.87891 -0.89844,-1.50391 -0.625,-0.60546 -1.52344,-0.95703 z"
         style="font-style:normal;font-variant:normal;font-weight:bold;font-stretch:normal;font-family:Latte;-inkscape-font-specification:'Latte Bold';text-align:end;text-anchor:end;fill:#804400"
         id="path3518" />
      <path
         d="m 606.43945,148.74344 q 1.97266,-0.76172 4.41407,-0.76172 2.01171,0 3.75,0.60547 1.60156,0.5664 2.73437,1.67968 1.15234,1.11329 1.79688,2.71485 0.64453,1.58203 0.64453,3.61328 0,0.89844 -0.25391,1.28906 -0.3125,0.44922 -1.05469,0.44922 l -13.24218,0 q 0.0781,1.30859 0.44921,2.28516 0.46875,1.15234 1.26954,1.89453 0.80078,0.72265 1.91406,1.09375 1.13281,0.37109 2.51953,0.37109 1.30859,0 2.24609,-0.2539 0.97657,-0.27344 1.64063,-0.60547 0.64453,-0.35157 1.07422,-0.625 0.5664,-0.35157 1.03515,-0.35157 0.35157,0 0.60547,0.15625 0.25391,0.13672 0.42969,0.3711 l 0.97656,1.25 0.23438,0.3125 -0.25391,0.29297 q -0.68359,0.82031 -1.62109,1.42578 -0.91797,0.58594 -1.95313,0.95703 -1.07422,0.37109 -2.30469,0.56641 -1.23046,0.17578 -2.4414,0.17578 -2.32422,0 -4.29688,-0.70313 -1.89453,-0.66406 -3.20312,-1.97265 -1.28906,-1.3086 -2.01172,-3.20313 -0.70313,-1.875 -0.70313,-4.31641 0,-1.97265 0.64454,-3.6914 0.64453,-1.71875 1.875,-3.00781 1.23046,-1.28907 3.08593,-2.01172 z m 6.54297,3.0664 q -0.91797,-0.35156 -2.07031,-0.35156 -2.46094,0 -3.84766,1.26953 -1.25,1.13281 -1.66015,3.00781 l 10.29297,0 q -0.0586,-0.80078 -0.29297,-1.46484 -0.29297,-0.87891 -0.89844,-1.50391 -0.625,-0.60546 -1.52344,-0.95703 z"
         style="font-style:normal;font-variant:normal;font-weight:bold;font-stretch:normal;font-family:Latte;-inkscape-font-specification:'Latte Bold';text-align:end;text-anchor:end;fill:#804400"
         id="path3520" />
      <path
         d="m 575.24805,217.37625 q -0.50782,0 -0.78125,-0.15625 -0.27344,-0.15625 -0.3711,-0.64453 l -0.42968,-1.77735 q -0.74219,0.6836 -1.46485,1.23047 -0.70312,0.52735 -1.48437,0.89844 -0.78125,0.37109 -1.67969,0.54688 -0.89844,0.19531 -1.97266,0.19531 -1.11328,0 -2.08984,-0.29297 -0.95703,-0.3125 -1.69922,-0.9375 -0.72266,-0.64453 -1.15234,-1.58203 -0.41016,-0.95703 -0.41016,-2.2461 0,-1.13281 0.60547,-2.16796 0.625,-1.05469 2.01172,-1.875 1.38672,-0.82032 3.61328,-1.32813 2.22656,-0.52734 5.46875,-0.60547 l 0,-1.46484 q 0,-2.22656 -0.95703,-3.33985 -0.9375,-1.13281 -2.75391,-1.13281 -1.21094,0 -2.05078,0.3125 -0.82031,0.3125 -1.42578,0.6836 -0.60547,0.37109 -1.05469,0.68359 -0.42969,0.3125 -0.8789,0.3125 -0.35157,0 -0.60547,-0.17578 -0.25391,-0.17578 -0.41016,-0.44922 l -0.625,-1.09375 q 1.58203,-1.52344 3.39844,-2.26563 1.83594,-0.76171 4.0625,-0.76171 1.60156,0 2.85156,0.52734 1.25,0.50781 2.08984,1.46484 0.83985,0.95703 1.26954,2.28516 0.44921,1.32812 0.44921,2.94922 l 0,12.20703 -1.52343,0 z m -7.14844,-2.10938 q 0.85937,0 1.58203,-0.17578 0.72266,-0.17578 1.36719,-0.48828 0.64453,-0.33203 1.21094,-0.80078 0.58593,-0.48828 1.15234,-1.07422 l 0,-3.94531 q -2.28516,0.0977 -3.88672,0.39062 -1.60156,0.27344 -2.61719,0.74219 -0.99609,0.46875 -1.44531,1.11328 -0.44922,0.625 -0.44922,1.40625 0,0.74219 0.23438,1.28907 0.2539,0.52734 0.66406,0.8789 0.41016,0.33203 0.97656,0.50781 0.56641,0.15625 1.21094,0.15625 z"
         style="font-style:normal;font-variant:normal;font-weight:normal;font-stretch:normal;font-family:Latte;-inkscape-font-specification:Latte;text-align:end;text-anchor:end;fill:#804400"
         id="path3522" />
      <path
         d="m 581.94727,217.37625 0,-19.10156 2.05078,0 q 0.37109,0 0.60547,0.17578 0.23437,0.15625 0.27343,0.52734 l 0.29297,2.03125 q 1.23047,-1.36719 2.75391,-2.1875 1.52344,-0.83984 3.51562,-0.83984 1.5625,0 2.73438,0.52734 1.1914,0.50781 1.99219,1.46485 0.80078,0.9375 1.21093,2.28515 0.41016,1.32813 0.41016,2.94922 l 0,12.16797 -3.4375,0 0,-12.16797 q 0,-2.12891 -0.97656,-3.32031 -0.95703,-1.19141 -2.92969,-1.19141 -1.46484,0 -2.73438,0.70313 -1.26953,0.68359 -2.32421,1.91406 l 0,14.0625 -3.4375,0 z"
         style="font-style:normal;font-variant:normal;font-weight:normal;font-stretch:normal;font-family:Latte;-inkscape-font-specification:Latte;text-align:end;text-anchor:end;fill:#804400"
         id="path3524" />
      <path
         d="m 616.38086,217.37625 q -0.37109,0 -0.60547,-0.15625 -0.23437,-0.17578 -0.27344,-0.54688 l -0.35156,-2.28515 q -1.21094,1.46484 -2.75391,2.36328 -1.54296,0.89844 -3.57421,0.89844 -1.6211,0 -2.94922,-0.625 -1.3086,-0.64453 -2.2461,-1.875 -0.9375,-1.23047 -1.44531,-3.04688 -0.50781,-1.83594 -0.50781,-4.21875 0,-2.10937 0.54687,-3.92578 0.56641,-1.83594 1.6211,-3.16406 1.05468,-1.32813 2.55859,-2.08985 1.52344,-0.76171 3.4375,-0.76171 1.73828,0 2.96875,0.58593 1.23047,0.56641 2.1875,1.64063 l 0,-10.56641 3.4375,0 0,27.77344 -2.05078,0 z m -6.44531,-2.48047 q 1.62109,0 2.8125,-0.74219 1.21093,-0.76172 2.24609,-2.10937 l 0,-9.23828 q -0.91797,-1.23047 -1.99219,-1.71875 -1.07422,-0.50782 -2.38281,-0.50782 -2.59766,0 -4.00391,1.89454 -1.40625,1.89453 -1.40625,5.41015 0,1.85547 0.3125,3.1836 0.33204,1.32812 0.9375,2.1875 0.60547,0.83984 1.48438,1.25 0.87891,0.39062 1.99219,0.39062 z"
         style="font-style:normal;font-variant:normal;font-weight:normal;font-stretch:normal;font-family:Latte;-inkscape-font-specification:Latte;text-align:end;text-anchor:end;fill:#804400"
         id="path3526" />
      <path
         d="m 443.00195,251.36063 q -0.3125,0.42968 -0.66406,0.42968 -0.33203,0 -0.66406,-0.21484 -0.3125,-0.21484 -1.21094,-0.66406 -0.89844,-0.44922 -2.10937,-0.44922 -0.0391,0 -0.0586,-0.0195 -2.01172,0 -3.16406,0.8789 -1.15234,0.87891 -1.15234,2.10938 0,1.60156 2.69531,2.8125 0.76172,0.35156 1.5625,0.70312 2.01172,0.85938 3.125,1.73828 1.13281,0.87891 1.13281,2.28516 0,2.83203 -2.16797,4.76563 -2.16797,1.91406 -5.74219,1.91406 -0.0195,0 -0.0391,0.0195 -3.55469,0 -5.64453,-2.32422 l 0.82031,-1.28906 q 0.33203,-0.52735 0.76172,-0.52735 0.44922,0 0.76172,0.29297 0.3125,0.27344 0.82031,0.58594 1.26953,0.85938 2.65625,0.85938 l 0.0391,0 q 2.38281,-0.0195 3.53515,-0.9961 1.15235,-0.99609 1.15235,-2.20703 0,-1.21094 -0.625,-1.81641 -0.9375,-0.91796 -3.63282,-1.875 -1.09375,-0.41015 -2.03125,-0.91796 -2.1875,-1.19141 -2.20703,-3.26172 0.0195,-2.51953 2.03125,-4.35547 2.03125,-1.83594 5.3711,-1.83594 3.35937,0 5.48828,2.12891 l -0.83985,1.23047 z"
         style="font-style:italic;font-variant:normal;font-weight:normal;font-stretch:normal;font-family:Latte;-inkscape-font-specification:'Latte Italic';fill:#804400"
         id="path3528" />
      <path
         d="m 445.54102,248.27469 2.53906,0 q 0.82031,0 0.95703,0.72265 l 1.97266,12.16797 q 0.15625,1.11328 0.2539,2.5586 0.25391,-0.72266 0.9961,-2.53907 l 5.58593,-12.28515 q 0.29297,-0.66406 0.95703,-0.66406 l 1.42579,0 q 0.76171,0 0.85937,0.64453 l 2.40234,12.28515 q 0.3125,1.81641 0.39063,2.5586 0.39062,-1.36719 0.85937,-2.51953 l 5.17579,-12.22657 q 0.27343,-0.70312 0.97656,-0.70312 l 2.48047,0 -8.39844,19.10156 -2.59766,0 q -0.46875,0 -0.58593,-0.64453 l -2.63672,-12.87109 q -0.11719,-0.60547 -0.17578,-1.23047 -0.19532,0.625 -0.46875,1.25 l -5.91797,12.85156 q -0.27344,0.64453 -0.78125,0.64453 l -2.48047,0 -3.78906,-19.10156 z"
         style="font-style:italic;font-variant:normal;font-weight:normal;font-stretch:normal;font-family:Latte;-inkscape-font-specification:'Latte Italic';fill:#804400"
         id="path3530" />
      <path
         d="m 476.83008,259.66141 q 0,5.29297 5.07812,5.29297 2.8711,0 5.58594,-2.08985 0.50781,-0.39062 0.9375,-0.39062 0.42969,0 0.72266,0.33203 l 0.85937,1.03515 q -2.16797,2.03125 -3.65234,2.69532 -2.5,1.11328 -4.6875,1.11328 -4.02344,0 -6.09375,-2.14844 -2.08985,-2.16797 -2.08985,-5.82031 0,-4.58985 2.96875,-8.125 2.96875,-3.53516 7.71485,-3.53516 l 0.0586,0 q 2.94922,0 4.53125,1.36719 1.58203,1.36719 1.58203,2.85156 0,1.46485 -0.5664,2.5 -1.79688,3.30078 -12.92969,4.27735 -0.0195,0.15625 -0.0195,0.3125 l 0,0.33203 z m 10.44922,-7.05078 q -0.0195,-1.38672 -1.73828,-1.95313 -0.625,-0.19531 -1.71875,-0.19531 -2.42188,0 -4.21875,1.77734 -1.79688,1.77735 -2.44141,4.51172 9.19922,-0.97656 9.98047,-3.33984 0.13672,-0.41016 0.13672,-0.80078 z"
         style="font-style:italic;font-variant:normal;font-weight:normal;font-stretch:normal;font-family:Latte;-inkscape-font-specification:'Latte Italic';fill:#804400"
         id="path3532" />
      <path
         d="m 495.9707,259.66141 q 0,5.29297 5.07813,5.29297 2.87109,0 5.58594,-2.08985 0.50781,-0.39062 0.9375,-0.39062 0.42968,0 0.72265,0.33203 l 0.85938,1.03515 q -2.16797,2.03125 -3.65235,2.69532 -2.5,1.11328 -4.6875,1.11328 -4.02343,0 -6.09375,-2.14844 -2.08984,-2.16797 -2.08984,-5.82031 0,-4.58985 2.96875,-8.125 2.96875,-3.53516 7.71484,-3.53516 l 0.0586,0 q 2.94922,0 4.53125,1.36719 1.58203,1.36719 1.58203,2.85156 0,1.46485 -0.56641,2.5 -1.79687,3.30078 -12.92969,4.27735 -0.0195,0.15625 -0.0195,0.3125 l 0,0.33203 z m 10.44922,-7.05078 q -0.0195,-1.38672 -1.73828,-1.95313 -0.625,-0.19531 -1.71875,-0.19531 -2.42187,0 -4.21875,1.77734 -1.79687,1.77735 -2.44141,4.51172 9.19922,-0.97656 9.98047,-3.33984 0.13672,-0.41016 0.13672,-0.80078 z"
         style="font-style:italic;font-variant:normal;font-weight:normal;font-stretch:normal;font-family:Latte;-inkscape-font-specification:'Latte Italic';fill:#804400"
         id="path3534" />
      <path
         d="m 522.20117,265.95047 q -1.97265,1.71875 -4.58984,1.71875 -1.89453,0 -2.98828,-1.01563 -1.09375,-1.01562 -1.09375,-3.02734 0,-0.9375 0.27343,-3.00781 l 1.17188,-9.49219 -2.20703,0 q -0.27344,0 -0.44922,-0.19531 -0.13672,-0.15625 -0.13672,-0.42969 l 0,-0.13672 0.15625,-1.36719 3.04688,-0.41015 1.44531,-5.85938 q 0.21484,-0.64453 0.80078,-0.64453 l 1.81641,0 -0.80079,6.54297 5.19532,0 -0.29297,2.5 -5.21485,0 -1.15234,9.31641 q -0.29297,2.28515 -0.29297,2.57812 0,1.85547 1.75781,1.85547 0.97657,0 2.07032,-0.76172 0.19531,-0.13672 0.39062,-0.13672 0.21485,0 0.35156,0.33203 l 0.74219,1.64063 z"
         style="font-style:italic;font-variant:normal;font-weight:normal;font-stretch:normal;font-family:Latte;-inkscape-font-specification:'Latte Italic';fill:#804400"
         id="path3536" />
      <path
         d="m 535.75586,267.37625 0,-19.10156 2.03125,0 q 0.39062,0 0.60547,0.17578 0.23437,0.15625 0.27344,0.52734 l 0.29296,1.95313 q 0.54688,-0.64453 1.13282,-1.17188 0.60547,-0.54687 1.28906,-0.9375 0.68359,-0.41015 1.46484,-0.625 0.78125,-0.21484 1.66016,-0.21484 1.97266,0 3.20312,1.07422 1.25,1.07422 1.77735,2.89062 0.41015,-1.05468 1.07422,-1.79687 0.68359,-0.74219 1.5039,-1.23047 0.82032,-0.48828 1.75782,-0.70313 0.9375,-0.23437 1.91406,-0.23437 3.125,0 4.82422,1.875 1.71875,1.875 1.71875,5.35156 l 0,12.16797 -3.4375,0 0,-12.16797 q 0,-2.22656 -1.01563,-3.35937 -1.01562,-1.15235 -2.91015,-1.15235 -0.85938,0 -1.6211,0.29297 -0.76172,0.27344 -1.34765,0.85938 -0.56641,0.5664 -0.91797,1.40625 -0.33203,0.83984 -0.33203,1.95312 l 0,12.16797 -3.4375,0 0,-12.16797 q 0,-2.28515 -0.95704,-3.39844 -0.9375,-1.11328 -2.77343,-1.11328 -1.25,0 -2.34375,0.66407 -1.09375,0.64453 -1.99219,1.79687 l 0,14.21875 -3.4375,0 z"
         style="font-style:normal;font-variant:normal;font-weight:normal;font-stretch:normal;font-family:Latte;-inkscape-font-specification:Latte;text-align:end;text-anchor:end;fill:#804400"
         id="path3538" />
      <path
         d="m 571.14648,248.27469 0,19.10156 -3.4375,0 0,-19.10156 3.4375,0 z m 0.66407,-5.97656 q 0,0.48828 -0.19532,0.9375 -0.19531,0.42968 -0.54687,0.76171 -0.33203,0.3125 -0.78125,0.50782 -0.42969,0.19531 -0.91797,0.19531 -0.48828,0 -0.91797,-0.19531 -0.42969,-0.19532 -0.76172,-0.50782 -0.3125,-0.33203 -0.50781,-0.76171 -0.19531,-0.44922 -0.19531,-0.9375 0,-0.50782 0.19531,-0.9375 0.19531,-0.44922 0.50781,-0.78125 0.33203,-0.33204 0.76172,-0.52735 0.42969,-0.19531 0.91797,-0.19531 0.48828,0 0.91797,0.19531 0.44922,0.19531 0.78125,0.52735 0.35156,0.33203 0.54687,0.78125 0.19532,0.42968 0.19532,0.9375 z"
         style="font-style:normal;font-variant:normal;font-weight:normal;font-stretch:normal;font-family:Latte;-inkscape-font-specification:Latte;text-align:end;text-anchor:end;fill:#804400"
         id="path3540" />
      <path
         d="m 580.36523,239.60281 0,27.77344 -3.4375,0 0,-27.77344 3.4375,0 z"
         style="font-style:normal;font-variant:normal;font-weight:normal;font-stretch:normal;font-family:Latte;-inkscape-font-specification:Latte;text-align:end;text-anchor:end;fill:#804400"
         id="path3542" />
      <path
         d="m 589.21289,239.60281 0,16.32813 0.78125,0 q 0.37109,0 0.58594,-0.0977 0.23437,-0.0977 0.48828,-0.42969 l 5.07812,-6.46484 q 0.27344,-0.3125 0.56641,-0.48828 0.29297,-0.17578 0.74219,-0.17578 l 3.125,0 -5.9961,7.51953 q -0.27343,0.29297 -0.54687,0.54687 -0.27344,0.23438 -0.58594,0.42969 0.33203,0.21485 0.58594,0.52735 0.27344,0.29296 0.54687,0.625 l 6.38672,9.45312 -3.08593,0 q -0.41016,0 -0.72266,-0.13672 -0.3125,-0.15625 -0.56641,-0.50781 l -5.21484,-7.83203 q -0.27344,-0.39063 -0.52734,-0.50781 -0.23438,-0.13672 -0.76172,-0.13672 l -0.87891,0 0,9.12109 -3.4375,0 0,-27.77344 3.4375,0 z"
         style="font-style:normal;font-variant:normal;font-weight:normal;font-stretch:normal;font-family:Latte;-inkscape-font-specification:Latte;text-align:end;text-anchor:end;fill:#804400"
         id="path3544" />
      <path
         d="m 613.56836,265.0325 q 0,-0.42969 0.15625,-0.82031 0.17578,-0.39063 0.46875,-0.6836 0.29297,-0.29296 0.70312,-0.46875 0.42969,-0.17578 0.9375,-0.17578 0.58594,0 1.01563,0.21485 0.44922,0.21484 0.74219,0.58593 0.29297,0.35157 0.42968,0.85938 0.15625,0.48828 0.15625,1.05469 0,0.83984 -0.2539,1.75781 -0.23438,0.91797 -0.70313,1.81641 -0.44922,0.89843 -1.11328,1.73828 -0.66406,0.85937 -1.52344,1.58203 l -0.58593,-0.54688 q -0.25391,-0.23437 -0.25391,-0.54687 0,-0.23438 0.27344,-0.50781 0.17578,-0.19532 0.46875,-0.54688 0.29297,-0.35156 0.58594,-0.80078 0.3125,-0.44922 0.5664,-0.99609 0.25391,-0.54688 0.3711,-1.17188 l -0.21485,0 q -0.99609,0 -1.62109,-0.66406 -0.60547,-0.66406 -0.60547,-1.67969 z m 4.70703,-12.98828 q 0,0.48828 -0.19531,0.9375 -0.19531,0.42969 -0.54688,0.76172 -0.33203,0.3125 -0.78125,0.50781 -0.42968,0.19531 -0.91797,0.19531 -0.48828,0 -0.91796,-0.19531 -0.42969,-0.19531 -0.76172,-0.50781 -0.3125,-0.33203 -0.50782,-0.76172 -0.19531,-0.44922 -0.19531,-0.9375 0,-0.50781 0.19531,-0.9375 0.19532,-0.44922 0.50782,-0.78125 0.33203,-0.33203 0.76172,-0.52734 0.42968,-0.19532 0.91796,-0.19532 0.48829,0 0.91797,0.19532 0.44922,0.19531 0.78125,0.52734 0.35157,0.33203 0.54688,0.78125 0.19531,0.42969 0.19531,0.9375 z"
         style="font-style:normal;font-variant:normal;font-weight:normal;font-stretch:normal;font-family:Latte;-inkscape-font-specification:Latte;text-align:end;text-anchor:end;fill:#804400"
         id="path3546" />
      <path
         d="m 433.93945,313.47 -0.29297,0.3125 q -2.89062,3.14453 -6.15234,3.69141 -1.17187,0.17578 -2.85156,0.17578 -3.45703,0 -5.44922,-2.1875 -1.97266,-2.20703 -1.97266,-5.78125 0,-4.6875 2.94922,-8.14453 3.14453,-3.53516 8.26172,-3.53516 3.92578,0 6.11328,2.83203 l 0.23438,0.3125 -1.3086,1.5625 q -0.42968,0.54688 -0.95703,0.54688 -0.52734,0 -0.9375,-0.35157 -1.30859,-1.17187 -2.91015,-1.17187 -3.04688,0 -5.03907,2.26562 -1.99218,2.26563 -1.99218,5.52735 0,3.26172 2.34375,4.16015 0.78125,0.29297 1.99218,0.29297 2.57813,0 4.6875,-1.89453 0.58594,-0.48828 1.15235,-0.48828 0.58593,0 0.99609,0.50781 l 1.13281,1.36719 z"
         style="font-style:italic;font-variant:normal;font-weight:bold;font-stretch:normal;font-family:Latte;-inkscape-font-specification:'Latte Bold Italic';fill:#804400"
         id="path3548" />
      <path
         d="m 448.86133,315.89188 0,-0.21485 0.19531,-2.14844 q -3.35937,4.1211 -7.67578,4.1211 -2.89063,0 -4.49219,-1.83594 -1.58203,-1.83594 -1.58203,-5.13672 0,-3.32031 1.81641,-6.25 2.77343,-4.47265 8.51562,-5.89844 1.85547,-0.46875 4.49219,-0.48828 l 0.0391,-0.0195 0.13672,0 q 2.40234,0 4.86328,1.01563 l -2.28515,17.91015 -0.0586,0.42969 -2.22656,0 q -0.76172,0 -1.25,-0.39062 -0.48828,-0.41016 -0.48828,-1.09375 z m 0.8789,-8.86719 0.78125,-5.46875 q -0.70312,-0.0781 -2.03125,-0.0781 -1.30859,0 -3.02734,0.70313 -1.69922,0.70312 -2.98828,1.875 -2.75391,2.53906 -2.75391,5.95703 0,2.01172 0.74219,2.91016 0.74219,0.89843 2.32422,0.89843 2.96875,0 5.54687,-4.04297 0.78125,-1.25 1.40625,-2.7539 z"
         style="font-style:italic;font-variant:normal;font-weight:bold;font-stretch:normal;font-family:Latte;-inkscape-font-specification:'Latte Bold Italic';fill:#804400"
         id="path3550" />
      <path
         d="m 457.76758,300.55984 0,-0.17578 0.13672,-1.32812 0.0391,-0.42969 2.96875,0 0.17578,-1.38672 q 0.41016,-3.39844 2.83203,-5.35156 2.65625,-1.93359 6.11328,-1.93359 1.26953,0 2.42188,0.39062 l 0.39062,0.13672 -0.37109,2.1875 q -0.0586,0.3125 -0.3125,0.52734 -0.23438,0.21485 -0.48828,0.23438 -0.25391,0.0195 -1.66016,0.0195 -1.38672,0 -2.51953,0.9375 -1.26953,0.9375 -1.58203,3.06641 l -0.19531,1.17187 5.60547,0 -0.3711,3.02734 -0.0586,0.42969 -5.56641,0 -2.22656,14.4336 -0.0195,0.0391 0,0.0195 -1.05469,3.67187 q -0.41016,1.81641 -2.16797,1.81641 l -1.91406,0 2.55859,-20.15625 -1.5625,-0.19531 q -0.50781,-0.0586 -0.83984,-0.35156 -0.33203,-0.3125 -0.33203,-0.80079 z"
         style="font-style:italic;font-variant:normal;font-weight:bold;font-stretch:normal;font-family:Latte;-inkscape-font-specification:'Latte Bold Italic';fill:#804400"
         id="path3552" />
      <path
         d="m 489.95508,289.95438 -5,4.92187 q -0.66406,0.66406 -1.66016,0.66406 l -2.85156,0 3.00781,-4.58984 q 0.64453,-0.99609 1.89453,-0.99609 l 4.60938,0 z m -14.72656,19.3164 0,0.17578 q 0,2.34375 1.21093,3.4375 1.23047,1.09375 4.0625,1.09375 2.83203,0 5.58594,-1.99218 0.64453,-0.48829 1.25,-0.48829 0.625,0 1.07422,0.50782 l 1.15234,1.38672 -0.33203,0.3125 q -2.22656,2.08984 -3.78906,2.79296 -2.83203,1.15235 -5.39063,1.15235 -4.6875,0 -6.91406,-2.1875 -2.22656,-2.20703 -2.22656,-5.85938 0,-4.55078 3.08594,-8.04687 3.28125,-3.53516 8.84765,-3.53516 l 0.0586,0 q 3.33984,0 5.07812,1.42578 1.73828,1.40625 1.73828,2.96875 0,1.54297 -0.625,2.61719 -0.97656,1.69922 -4.19922,2.73438 -3.57421,1.01562 -9.66796,1.5039 z m 10.33203,-5.52734 q 0.11718,-0.33203 0.11718,-0.64453 -0.0195,-1.03516 -1.48437,-1.48438 -0.625,-0.17578 -1.73828,-0.17578 -2.48047,0 -4.23828,1.54297 -1.73828,1.54297 -2.48047,3.69141 4.60937,-0.48829 7.07031,-1.26954 2.46094,-0.78125 2.75391,-1.66015 z"
         style="font-style:italic;font-variant:normal;font-weight:bold;font-stretch:normal;font-family:Latte;-inkscape-font-specification:'Latte Bold Italic';fill:#804400"
         id="path3554" />
      <path
         d="m 514.4082,315.89188 0,-0.21485 0.19532,-2.14844 q -3.35938,4.1211 -7.67579,4.1211 -2.89062,0 -4.49218,-1.83594 -1.58203,-1.83594 -1.58203,-5.13672 0,-3.32031 1.8164,-6.25 2.77344,-4.47265 8.51563,-5.89844 1.85547,-0.46875 4.49218,-0.48828 l 0.0391,-0.0195 0.13672,0 q 2.40234,0 4.86328,1.01563 l -2.28516,17.91015 -0.0586,0.42969 -2.22657,0 q -0.76171,0 -1.25,-0.39062 -0.48828,-0.41016 -0.48828,-1.09375 z m 0.87891,-8.86719 0.78125,-5.46875 q -0.70313,-0.0781 -2.03125,-0.0781 -1.30859,0 -3.02734,0.70313 -1.69922,0.70312 -2.98829,1.875 -2.7539,2.53906 -2.7539,5.95703 0,2.01172 0.74219,2.91016 0.74218,0.89843 2.32421,0.89843 2.96875,0 5.54688,-4.04297 0.78125,-1.25 1.40625,-2.7539 z"
         style="font-style:italic;font-variant:normal;font-weight:bold;font-stretch:normal;font-family:Latte;-inkscape-font-specification:'Latte Bold Italic';fill:#804400"
         id="path3556" />
      <path
         d="m 537.25977,313.88016 q -3.37891,3.76953 -8.02735,3.76953 -2.61719,0 -3.96484,-2.01172 -0.9961,-1.44531 -0.9961,-3.71094 0,-0.82031 0.0977,-1.66015 l 1.42578,-11.5625 0.0586,-0.42969 4.53125,0 -1.64063,11.93359 q -0.0781,0.64453 -0.0781,1.58203 0,2.03125 2.20703,2.03125 1.83593,0 3.80859,-1.60156 1.99219,-1.60156 3.14453,-4.29687 l 1.3086,-9.64844 4.39453,0 -2.36328,18.67187 -0.0586,0.42969 -2.1289,0 q -0.82032,0 -1.34766,-0.41016 -0.50781,-0.42968 -0.50781,-1.15234 l 0,-0.19531 0.13672,-1.73828 z"
         style="font-style:italic;font-variant:normal;font-weight:bold;font-stretch:normal;font-family:Latte;-inkscape-font-specification:'Latte Bold Italic';fill:#804400"
         id="path3558" />
      <path
         d="m 555.69727,317.37625 3.39843,-27.34375 0.0586,-0.42969 4.35547,0 -3.41797,27.34375 -0.0586,0.42969 -4.33593,0 z"
         style="font-style:italic;font-variant:normal;font-weight:bold;font-stretch:normal;font-family:Latte;-inkscape-font-specification:'Latte Bold Italic';fill:#804400"
         id="path3560" />
      <path
         d="m 578.62695,315.89188 0,-0.21485 0.19532,-2.14844 q -3.35938,4.1211 -7.67579,4.1211 -2.89062,0 -4.49218,-1.83594 -1.58203,-1.83594 -1.58203,-5.13672 0,-3.32031 1.8164,-6.25 2.77344,-4.47265 8.51563,-5.89844 1.85547,-0.46875 4.49218,-0.48828 l 0.0391,-0.0195 0.13672,0 q 2.40234,0 4.86328,1.01563 l -2.28516,17.91015 -0.0586,0.42969 -2.22657,0 q -0.76171,0 -1.25,-0.39062 -0.48828,-0.41016 -0.48828,-1.09375 z m 0.87891,-8.86719 0.78125,-5.46875 q -0.70313,-0.0781 -2.03125,-0.0781 -1.30859,0 -3.02734,0.70313 -1.69922,0.70312 -2.98829,1.875 -2.7539,2.53906 -2.7539,5.95703 0,2.01172 0.74219,2.91016 0.74218,0.89843 2.32421,0.89843 2.96875,0 5.54688,-4.04297 0.78125,-1.25 1.40625,-2.7539 z"
         style="font-style:italic;font-variant:normal;font-weight:bold;font-stretch:normal;font-family:Latte;-inkscape-font-specification:'Latte Bold Italic';fill:#804400"
         id="path3562" />
      <path
         d="m 595.16992,298.27469 -2.36328,18.67187 -0.0586,0.42969 -4.35547,0 2.36328,-18.67187 0.0586,-0.42969 4.35547,0 z m 0.15625,-7.75391 q 1.05469,1.07422 1.05469,2.2461 0,1.15234 -0.87891,2.03125 -0.85937,0.8789 -1.99218,0.8789 -1.11329,0 -1.95313,-0.8789 -0.83984,-0.87891 -0.83984,-2.03125 0,-1.15235 0.64453,-1.83594 1.05469,-1.07422 2.16797,-1.07422 1.13281,0 1.79687,0.66406 z"
         style="font-style:italic;font-variant:normal;font-weight:bold;font-stretch:normal;font-family:Latte;-inkscape-font-specification:'Latte Bold Italic';fill:#804400"
         id="path3564" />
      <path
         d="m 603.25586,293.05984 q 0.33203,-0.97656 1.26953,-0.97656 l 2.36328,0 -0.80078,6.54297 5.19531,0 -0.35156,3.04688 -0.0586,0.42968 -5.21485,0 -1.09375,8.20313 q -0.29297,2.08984 -0.29297,2.55859 0,1.03516 1.26954,1.03516 0.82031,0 1.46484,-0.44922 0.64453,-0.44922 1.07422,-0.44922 0.44922,0 0.72265,0.625 l 0.74219,1.64063 0.13672,0.33203 -0.27344,0.23437 q -2.10937,1.83594 -4.55078,1.83594 -4.92187,0 -4.92187,-4.25781 0,-0.91797 0.27343,-2.89063 l 1.11329,-8.41797 -1.66016,0 q -0.48828,0 -0.78125,-0.3125 -0.29297,-0.33203 -0.29297,-0.80078 l 0,-0.19531 0.15625,-1.36719 0.0391,-0.37109 3.10547,-0.42969 1.36719,-5.52734 0,-0.0391 z"
         style="font-style:italic;font-variant:normal;font-weight:bold;font-stretch:normal;font-family:Latte;-inkscape-font-specification:'Latte Bold Italic';fill:#804400"
         id="path3566" />
      <path
         d="m 618.60742,315.28641 q 0,0.48828 -0.19531,0.9375 -0.19531,0.42968 -0.54688,0.76172 -0.33203,0.3125 -0.78125,0.50781 -0.42968,0.19531 -0.91796,0.19531 -0.48829,0 -0.91797,-0.19531 -0.42969,-0.19531 -0.76172,-0.50781 -0.3125,-0.33204 -0.50781,-0.76172 -0.19532,-0.44922 -0.19532,-0.9375 0,-0.50782 0.19532,-0.9375 0.19531,-0.44922 0.50781,-0.78125 0.33203,-0.33203 0.76172,-0.52735 0.42968,-0.19531 0.91797,-0.19531 0.48828,0 0.91796,0.19531 0.44922,0.19532 0.78125,0.52735 0.35157,0.33203 0.54688,0.78125 0.19531,0.42968 0.19531,0.9375 z"
         style="font-style:normal;font-variant:normal;font-weight:normal;font-stretch:normal;font-family:Latte;-inkscape-font-specification:Latte;text-align:end;text-anchor:end;fill:#804400"
         id="path3568" />
    </g>
  </g>
</svg>
