<?xml version="1.0" standalone="no"?>
<!DOCTYPE svg PUBLIC "-//W3C//DTD SVG 1.1//EN" "http://www.w3.org/Graphics/SVG/1.1/DTD/svg11.dtd" >
<svg xmlns="http://www.w3.org/2000/svg">
<metadata></metadata>
<defs>
<font id="latteregular" horiz-adv-x="0" >
<font-face units-per-em="2048" ascent="1536" descent="-512" />
<missing-glyph horiz-adv-x="463" />
<glyph unicode="&#xfb00;" horiz-adv-x="1195" d="M139 0l102 834l-98 12q-40 6 -40 37v6l8 69h146l10 81q20 165 117 257t247 92q57 0 112 -19l-15 -85q-4 -23 -26 -24.5t-62 -1.5q-183 0 -210 -224l-10 -76h414l13 106q20 164 117.5 257t245.5 93q59 0 112 -20l-15 -85q-3 -23 -25 -25q-22 -1 -62 -1q-181 0 -209 -225 l-13 -100h263l-14 -123h-258l-103 -835h-170l103 835h-407l-103 -835h-170z" />
<glyph unicode="&#xfb01;" horiz-adv-x="1084" d="M965 960l-118 -960h-171l101 832h-404l-98 -801l-49 -198q-16 -74 -87 -74h-69l131 1071l-103 13q-41 6 -41 37v6l7 74h153l7 52q35 286 293 374q87 30 190 30t152 -19l-16 -88q-4 -19 -47 -19h-12q-17 1 -39 1q-169 0 -253.5 -69t-103.5 -213l-6 -49h583z" />
<glyph unicode="&#xfb02;" horiz-adv-x="1084" d="M838 1268q-158 14 -181 14q-115 0 -187 -70t-86 -200l-6 -52h236l-15 -127h-230l-99 -802l-49 -198q-16 -74 -87 -74h-69l131 1072l-97 12q-40 6 -40 37v6l8 74h145l7 52q21 172 133 284.5t294 112.5l262 -13h117l-170 -1396h-171z" />
<glyph unicode="&#xfb03;" horiz-adv-x="1654" d="M143 0l102 833l-101 13q-41 6 -41 37v6l8 69h150l10 81q20 167 118.5 258t249.5 91q59 0 114 -19l-14 -85q-5 -26 -47 -26h-6h-47q-79 0 -135.5 -52t-69.5 -172l-9 -76h423l7 55q35 287 289 377q84 30 178.5 30t149.5 -21l-17 -87q-4 -18 -23 -18h-2h-82 q-293 0 -329 -286l-7 -50h572l-14 -123h-1l-103 -835h-170l103 835h-396l-103 -835h-170l103 835h-417l-103 -835h-170z" />
<glyph unicode="&#xfb04;" horiz-adv-x="1654" d="M1454 1278l-181 8q-115 0 -186 -73.5t-87 -202.5l-7 -52h261l-14 -123h-256l-103 -835h-170l102 835h-402l-103 -835h-170l102 833l-97 13q-40 6 -40 37v6l8 69h145l10 81q20 165 117 257t245 92q57 0 112 -19l-15 -85q-4 -23 -26 -24.5t-61 -1.5q-181 0 -209 -224 l-10 -76h409l7 52q21 172 133 286q111 113 291 113h3l261 -13h115l-172 -1396h-168z" />
<glyph unicode="fb" horiz-adv-x="1668" d="M1135 -14q-166 0 -256 128l-15 -63q-5 -26 -17.5 -38.5t-42.5 -12.5h-93l158 1310q-77 19 -139 19q-124 0 -202.5 -80t-93.5 -211l-10 -80h268l-15 -123h-262l-103 -835h-170l102 833l-100 13q-41 6 -41 37v6l8 69h148l10 80q35 288 283 373q88 30 164.5 30t108 -2.5 t63 -5.5t65 -6.5t71.5 -4.5h31v-1h26l-29 -21l-82 -671q167 263 381 263q129 0 202 -92t73 -267q0 -246 -140 -443q-90 -126 -217 -178q-64 -26 -134 -26zM907 216q70 -94 211.5 -94t237.5 155.5t96 339.5q0 115 -43 175t-132 60t-184.5 -108.5t-154.5 -278.5z" />
<glyph unicode="ffb" horiz-adv-x="2238" d="M1442 1311q-72 18 -135 18q-122 0 -199.5 -78.5t-94.5 -212.5l-10 -80h266l-15 -123h-260l-103 -835h-170l103 835h-410l-103 -835h-170l102 833l-99 13q-41 6 -41 37v6l8 69h148l10 81q20 165 117 257t247 92q59 0 114 -19l-15 -85q-4 -23 -26 -24q-22 -2 -62 -2 q-184 0 -212 -224l-10 -76h417l10 80q37 288 283 373q86 30 162.5 30t108 -2.5t63 -5.5t64 -6.5t70.5 -4.5h28v-1h28l-31 -22l-82 -670q167 263 381 263q129 0 202 -92t73 -267q0 -246 -140 -443q-90 -126 -217 -178q-64 -26 -134 -26q-166 0 -256 128l-15 -63 q-5 -26 -17.5 -38.5t-42.5 -12.5h-93zM1480 216q70 -94 211 -94t237 155.5t97 339.5q0 115 -43 175t-132.5 60t-185 -108.5t-153.5 -278.5z" />
<glyph unicode="fh" horiz-adv-x="1667" d="M856 1313q-60 16 -124 16q-127 0 -206 -80t-93 -211l-10 -80h268l-15 -123h-262l-103 -835h-170l102 834l-99 12q-41 6 -41 37v6l8 69h147l10 80q36 288 284 373q88 30 164 30t107.5 -2.5t63 -5.5t64.5 -6.5t71 -4.5h22v-1h35l-39 -27l-76 -635q78 115 174 174t178 59 q149 0 211 -97q46 -72 46 -189q0 -39 -5 -83l-73 -623h-175l73 623q5 37 5 69q0 64 -20 101q-29 55 -114.5 55t-179.5 -92t-149 -239l-62 -517h-175z" />
<glyph unicode="ffh" horiz-adv-x="2237" d="M1441 1311q-73 18 -135 18q-122 0 -199.5 -79.5t-94.5 -211.5l-10 -80h266l-14 -123h-261l-103 -835h-170l103 835h-409l-103 -835h-171l103 833l-99 13q-41 6 -41 37v6l8 69h148l10 81q20 165 117 257t247 92q59 0 114 -19l-15 -85q-4 -23 -26 -24q-22 -2 -62 -2 q-184 0 -212 -224l-11 -76h417l10 80q36 288 283 373q87 30 163.5 30t108 -2.5t63 -5.5t64 -6.5t69.5 -4.5h31v-1h25l-28 -20l-77 -642q78 115 174 174t178 59q149 0 211 -97q46 -72 46 -189q0 -39 -5 -83l-73 -623h-175l73 623q5 37 5 69q0 64 -20 101q-29 55 -114.5 55 t-179.5 -92t-149 -239l-62 -517h-175z" />
<glyph unicode="f&#xec;" horiz-adv-x="1084" d="M570 1390q92 30 180 30t118 -17.5t43 -46.5l112 -233h-97q-35 0 -55 26l-112 145q-150 -5 -229 -75.5t-96 -210.5l-6 -50h582l-118 -958h-170l102 835h-405l-103 -835h-170l102 833l-104 13q-41 6 -41 37v6l9 69h151l7 55q35 290 300 377z" />
<glyph unicode="f&#xee;" horiz-adv-x="1084" d="M146 0l102 833l-104 13q-41 6 -41 37v6l9 69h151l16 129q20 160 102.5 242t211.5 82q45 0 74 -9l-10 -93q-3 -23 -63 -23q-125 0 -150 -198l-16 -130h582l-117 -958h-171l102 835h-405l-103 -835h-170zM1201 1128h-112q-23 0 -35 14l-96 121q-7 7 -13 16l-143 -137 q-17 -14 -39 -14h-118l231 254h158z" />
<glyph unicode="f&#x129;" horiz-adv-x="1103" d="M1007 1295q25 -18 46 -18q63 0 76 84h103q-10 -89 -62 -146.5t-111 -57.5t-99.5 30.5t-60 44.5t-39.5 14h-2q-45 -48 -58 -158l-16 -130h582l-117 -958h-171l102 835h-405l-103 -835h-170l102 833l-104 13q-41 6 -41 37v6l9 69h151l16 129q20 160 102.5 242t211.5 82 q45 0 74 -9l-10 -93q-1 -8 -6 -14z" />
<glyph unicode="f&#xef;" horiz-adv-x="1103" d="M710 1316q37 37 81.5 37t72 -28.5t27.5 -61.5q0 -55 -36.5 -89.5t-81 -34.5t-72 27.5t-27.5 62t14 59.5q-7 -2 -15 -2h-19q-68 0 -106.5 -46.5t-51.5 -151.5l-16 -130h582l-117 -958h-171l102 835h-405l-103 -835h-170l102 833l-104 13q-41 6 -41 37v6l9 69h151l16 129 q20 160 102.5 242t211.5 82q45 0 74 -9zM1183.5 1324.5q27.5 -28.5 27.5 -60.5q0 -56 -36.5 -90.5t-81.5 -34.5t-72.5 27.5t-27.5 59.5q0 57 37 92t81.5 35t72 -28.5z" />
<glyph unicode="f&#x12b;" horiz-adv-x="1103" d="M146 0l102 833l-104 13q-41 6 -41 37v6l9 69h151l16 129q20 160 102.5 242t211.5 82q45 0 74 -9l-10 -93q-3 -23 -63 -23q-125 0 -150 -198l-16 -130h582l-117 -958h-171l102 835h-405l-103 -835h-170zM703 1299h513l-14 -111h-513z" />
<glyph unicode="f&#x12d;" horiz-adv-x="1103" d="M146 0l102 833l-104 13q-41 6 -41 37v6l9 69h151l16 129q20 160 102.5 242t211.5 82q45 0 74 -9l-10 -93q-3 -23 -63 -23q-125 0 -150 -198l-16 -130h582l-117 -958h-171l102 835h-405l-103 -835h-170zM957 1234q128 0 147 148h120q-24 -180 -161 -238q-50 -21 -120 -21 q-132 0 -181 72q-38 55 -38 134q0 25 4 53h119q-3 -24 -3 -43q0 -38 12 -56q31 -49 101 -49z" />
<glyph unicode="f&#x12f;" horiz-adv-x="1084" d="M615 -207q0 117 147 207h-40l102 835h-405l-103 -835h-170l102 833l-104 13q-41 6 -41 37v6l9 69h151l7 55q22 185 149 296t339 111q83 0 138 -21l-16 -87q-4 -18 -24 -18h-2h-63q-168 0 -253.5 -71t-103.5 -215l-6 -50h582l-117 -958h-24q-76 -41 -111 -108 q-12 -23 -12 -54q1 -29 19.5 -47.5t44 -18.5t39.5 3.5t23 8t14.5 8t9.5 3.5q14 0 17 -12l18 -63q-68 -50 -152 -50t-124 33.5t-40 89.5z" />
<glyph unicode="f&#x131;" horiz-adv-x="1084" d="M146 0l102 833l-104 13q-41 6 -41 37v6l9 69h151l16 129q20 160 102.5 242t211.5 82q45 0 74 -9l-10 -93q-3 -23 -63 -23q-125 0 -150 -198l-16 -130h582l-117 -958h-171l102 835h-405l-103 -835h-170z" />
<glyph unicode="ff&#xec;" horiz-adv-x="1654" d="M1467 0h-170l103 835h-396l-102 -835h-171l103 835h-417l-103 -835h-170l102 833l-102 13q-41 6 -41 37v6l8 69h151l10 81q20 165 118.5 257t249.5 92q61 0 116 -19l-14 -85q-4 -23 -27 -24.5t-64 -1.5q-187 0 -215 -224l-10 -76h423l13 106q42 350 465 350 q139 0 158 -43l117 -248h-97q-36 0 -55 26l-111 147q-7 1 -13 1h-15h-5q-130 -1 -196 -55q-68 -56 -84 -184l-13 -100h572z" />
<glyph unicode="ff&#xee;" horiz-adv-x="1654" d="M1569 835l-103 -835h-170l103 835h-396l-103 -835h-170l103 835h-417l-103 -835h-170l102 833l-101 13q-41 6 -41 37v6l8 69h150l10 81q20 167 118.5 258t249.5 91q59 0 114 -19l-14 -85q-5 -26 -47 -26h-6h-47q-79 0 -135.5 -52t-69.5 -172l-9 -76h423l16 129 q20 160 100.5 242t208.5 82q43 0 74 -9l-12 -93q-2 -23 -60 -23q-122 0 -147 -198l-16 -130h572l-14 -123h-1zM1742 1128h-112q-23 0 -35 14l-96 121q-7 7 -13 16l-143 -137q-17 -14 -39 -14h-118l231 254h158z" />
<glyph unicode="ff&#x129;" horiz-adv-x="1673" d="M1595 835l-103 -835h-170l103 835h-396l-103 -835h-170l103 835h-417l-103 -835h-170l102 833l-101 13q-41 6 -41 37v6l8 69h150l10 81q20 167 118.5 258t249.5 91q59 0 114 -19l-14 -85q-5 -26 -47 -26h-6h-47q-79 0 -135.5 -52t-69.5 -172l-9 -76h423l16 129 q20 160 100.5 242t208.5 82q43 0 74 -9l-12 -93q-2 -23 -60 -23q-122 0 -147 -198l-16 -130h572l-14 -123h-1zM1400 1246q-63 0 -75 -85h-104q10 89 64 147t112 58t97.5 -30.5t59 -44.5t39.5 -14q63 0 76 84h103q-11 -89 -63 -147q-51 -57 -108 -57h-2q-58 0 -99 30.5 t-60.5 44.5t-39.5 14z" />
<glyph unicode="ff&#xef;" horiz-adv-x="1673" d="M1595 835l-103 -835h-170l103 835h-396l-103 -835h-170l103 835h-417l-103 -835h-170l102 833l-101 13q-41 6 -41 37v6l8 69h150l10 81q20 167 118.5 258t249.5 91q59 0 114 -19l-14 -85q-5 -26 -47 -26h-6h-47q-79 0 -135.5 -52t-69.5 -172l-9 -76h423l16 129 q20 160 100.5 242t208.5 82q43 0 74 -9l-12 -93q-2 -23 -60 -23q-122 0 -147 -198l-16 -130h572l-14 -123h-1zM1435 1323q27 -28 27 -60q0 -57 -37.5 -92.5t-80 -35.5t-68.5 28.5t-26 60.5q0 57 35 93t78 36h1q44 0 71 -30zM1748 1324q27 -28 27 -60q0 -57 -37.5 -92.5 t-80 -35.5t-68.5 28.5t-26 60.5q0 57 35 93t78 36h1q44 0 71 -30z" />
<glyph unicode="ff&#x12b;" horiz-adv-x="1673" d="M1595 835l-103 -835h-170l103 835h-396l-103 -835h-170l103 835h-417l-103 -835h-170l102 833l-101 13q-41 6 -41 37v6l8 69h150l10 81q20 167 118.5 258t249.5 91q59 0 114 -19l-14 -85q-5 -26 -47 -26h-6h-47q-79 0 -135.5 -52t-69.5 -172l-9 -76h423l16 129 q20 160 100.5 242t208.5 82q43 0 74 -9l-12 -93q0 -7 -3 -10h503l-14 -111h-513l13 102q-13 -4 -40 -4q-65 0 -102.5 -46.5t-50.5 -151.5l-16 -130h572l-14 -123h-1z" />
<glyph unicode="ff&#x12d;" horiz-adv-x="1673" d="M1497 1234q128 0 147 148h120q-24 -180 -161 -238q-50 -21 -116 -21q-120 1 -173 59q-50 56 -50 147v7l-3 -27q-2 -23 -60 -23q-122 0 -147 -198l-16 -130h572l-14 -123h-1l-103 -835h-170l103 835h-396l-103 -835h-170l103 835h-417l-103 -835h-170l102 833l-101 13 q-41 6 -41 37v6l8 69h150l10 81q20 167 118.5 258t249.5 91q59 0 114 -19l-14 -85q-5 -26 -47 -26h-6h-47q-79 0 -135.5 -52t-69.5 -172l-9 -76h423l16 129q20 160 100.5 242t208.5 82q43 0 74 -9l-3 -20h117q-3 -24 -3 -43q0 -38 12 -56q31 -49 101 -49z" />
<glyph unicode="ff&#x12f;" horiz-adv-x="1654" d="M1168 -207q0 117 147 207h-19l103 835h-396l-103 -835h-170l103 835h-417l-103 -835h-170l102 833l-101 13q-41 6 -41 37v6l8 69h150l10 81q20 167 118.5 258t249.5 91q59 0 114 -19l-14 -85q-5 -26 -47 -26h-6h-47q-79 0 -135.5 -52t-69.5 -172l-9 -76h423l7 55 q35 287 289 377q84 30 178.5 30t149.5 -21l-17 -87q-4 -19 -24 -19l-1 1h-82q-293 0 -329 -286l-7 -50h572l-14 -123h-1l-103 -835h-44q-80 -44 -110 -108q-12 -24 -12 -53.5t18.5 -48t44 -18.5t39.5 3.5t23 8t14.5 8t9.5 3.5q14 0 17 -12l18 -63q-68 -50 -152 -50 t-124 33.5t-40 89.5z" />
<glyph unicode="ff&#x131;" horiz-adv-x="1654" d="M1569 835l-103 -835h-170l103 835h-396l-103 -835h-170l103 835h-417l-103 -835h-170l102 833l-101 13q-41 6 -41 37v6l8 69h150l10 81q20 167 118.5 258t249.5 91q59 0 114 -19l-14 -85q-5 -26 -47 -26h-6h-47q-79 0 -135.5 -52t-69.5 -172l-9 -76h423l16 129 q20 160 100.5 242t208.5 82q43 0 74 -9l-12 -93q-2 -23 -60 -23q-122 0 -147 -198l-16 -130h572l-14 -123h-1z" />
<glyph unicode="fj" horiz-adv-x="1084" d="M149 0l102 833l-107 13q-41 6 -41 37v6l9 69h154l7 55q23 185 151.5 296t341.5 111q85 0 140 -21l-16 -87q-4 -16 -21 -18q-13 -1 -25 -1q-4 1 -8 1h-37q-170 0 -257 -71t-105 -215l-6 -50h591l-128 -1033q-23 -193 -181 -255q-55 -22 -117 -22t-117 19l18 91q5 16 15 18 q8 1 17 1q3 -1 6 -1h31q75 0 111.5 35.5t46.5 113.5l113 910h-415l-103 -835h-170z" />
<glyph unicode="ffj" horiz-adv-x="1655" d="M145 0l102 833l-103 13q-41 6 -41 37v6l8 69h152l10 81q20 167 119 258t251 91q61 0 116 -19l-14 -85q-4 -23 -27 -24.5t-64 -1.5q-89 0 -147 -52.5t-71 -171.5l-9 -76h430l7 55q20 185 147 296t337 111q82 0 137 -21l-16 -87q-4 -19 -25 -19l-2 1h-60q-168 0 -252 -71 t-102 -215l-7 -50h577l-14 -123h-2l-111 -910q-23 -193 -179 -255q-54 -22 -117 -22t-114 19l19 91q4 16 14 18q8 1 17 1q3 -1 6 -1h30q74 0 109 35.5t45 113.5l112 910h-401l-103 -835h-170l103 835h-424l-103 -835h-170z" />
<glyph unicode="fk" horiz-adv-x="1545" d="M854 1307q-76 22 -140 22q-121 0 -196.5 -79.5t-90.5 -211.5l-10 -80h255l-15 -123h-249l-103 -835h-170l102 834l-94 12q-40 6 -40 37v6l8 69h141l10 80q36 288 276 373q84 30 159.5 30t106 -2.5t61 -5.5t62.5 -6.5t70 -4.5h44v-1h12l-14 -10l-101 -825h30q35 0 60 27 l321 331q32 34 68 34h155l-374 -384q-32 -34 -61 -51q25 -17 51 -60l288 -483h-150q-40 0 -60 33l-245 401q-12 20 -24.5 26.5t-39.5 6.5h-33l-57 -467h-173z" />
<glyph unicode="ffk" horiz-adv-x="2115" d="M1427 1306q-79 23 -145 23q-122 0 -197.5 -79t-92.5 -212l-10 -80h257l-16 -123h-250l-103 -835h-170l103 835h-394l-103 -835h-170l102 834l-95 12q-40 6 -40 37v6l8 69h143l10 81q20 167 115.5 258t242.5 91q58 0 110 -19l-15 -85q-5 -26 -45 -26h-6h-44 q-75 0 -128.5 -52t-66.5 -172l-9 -76h400l10 80q36 288 277 373q85 30 160 30t105.5 -2.5t61.5 -5.5t63 -6.5t69 -4.5h50v-1h5l-6 -4l-101 -831h29q35 0 60 27l321 331q32 34 68 34h155l-374 -384q-32 -34 -61 -51q25 -17 51 -60l288 -483h-150q-40 0 -60 33l-245 401 q-12 20 -24.5 26.5t-39.5 6.5h-33l-57 -467h-173z" />
<glyph unicode="ft" horiz-adv-x="1252" d="M1196 73q-101 -88 -224 -88q-216 0 -216 196q0 25 3 53l73 601h-420l-103 -835h-170l102 834l-98 12q-40 6 -40 37v6l8 69h145l12 96q20 166 117.5 257t246.5 92q58 0 113 -19l-15 -85q-5 -23 -27 -25h-61h-3q-81 0 -137 -53t-70 -173l-11 -90h432l78 305q9 32 43 32h86 l-42 -337h264l-14 -123h-265l-73 -590q-2 -16 -2 -29q0 -40 18 -63q24 -30 58.5 -30t53.5 7.5t33 16t24.5 16t22 7.5t18.5 -16z" />
<glyph unicode="fft" horiz-adv-x="1823" d="M1768 73q-101 -88 -224 -88q-216 0 -216 196q0 25 4 53l74 601h-420l-103 -835h-170l102 835h-403l-103 -835h-170l102 833l-98 13q-40 6 -40 37v6l8 69h146l10 81q20 165 117 257t245 92q60 0 112 -19l-14 -85q-4 -23 -26.5 -24.5t-62.5 -1.5q-82 0 -138 -52t-70 -172 l-9 -76h409l12 96q20 164 117 256t246 93q58 0 113 -19l-15 -85q-4 -23 -26.5 -24.5t-61.5 -1.5q-180 0 -208 -225l-12 -90h432l77 305q8 32 42 32h86l-42 -337h265l-16 -123h-264l-72 -590q-2 -16 -2 -33q0 -37 17 -59q24 -30 58.5 -30t53.5 7.5t33.5 16t24.5 16t20 7.5 t19 -16z" />
<glyph unicode="tf" horiz-adv-x="1254" d="M617 73q-101 -88 -225 -88q-217 0 -217 196q0 25 3 53l73 601h-109q-15 0 -24 10q-7 8 -7 22v6l8 67l153 19l78 304q9 32 42 32h86l-42 -337h454l12 96q20 166 117.5 257t246.5 92q59 0 114 -19l-15 -85q-4 -23 -26.5 -24.5t-62.5 -1.5q-182 0 -210 -225l-12 -90h266 l-15 -123h-260l-103 -835h-169l102 835h-454l-72 -590q-2 -15 -2 -29q1 -41 19 -63q24 -30 58.5 -30t54 7.5t33.5 16t24 16t18 7.5q12 0 22 -16z" />
<glyph unicode="t&#x12f;" horiz-adv-x="1141" d="M615 73q-101 -88 -224 -88q-217 0 -217 199q0 24 3 50l74 601h-110q-14 0 -23 10q-7 8 -7 22v6l8 67l153 19l78 304q9 32 42 32h86l-42 -337h643l-117 -958h-15q-82 -42 -114 -108q-12 -24 -12 -54t19.5 -48t46.5 -18t41 3.5t23.5 8t15.5 8t11 3.5q13 0 16 -12l20 -62 q-70 -50 -156.5 -50t-128 33t-41.5 89q0 117 152 207h-49l103 835h-473l-72 -590q-2 -16 -2 -29q0 -42 18 -64q24 -30 57 -30h2q34 0 53.5 8t33.5 16.5t24 16t18 7.5q12 0 22 -16zM1034 1408q84 0 112 -68q8 -20 8 -44q0 -50 -41.5 -91t-90 -41t-78.5 32t-30 68 q0 65 42 104.5t78 39.5z" />
<glyph unicode="t&#x131;" horiz-adv-x="1141" d="M615 73q-101 -88 -224 -88q-217 0 -217 199q0 24 3 50l74 601h-110q-14 0 -23 10q-7 8 -7 22v6l8 67l153 19l78 304q9 32 42 32h86l-42 -337h643l-117 -958h-171l103 835h-473l-72 -590q-2 -16 -2 -29q0 -42 18 -64q24 -30 57 -30h2q34 0 53.5 8t33.5 16.5t24 16t18 7.5 q12 0 22 -16z" />
<glyph unicode="tt" horiz-adv-x="1299" d="M630 73q-103 -88 -229 -88q-221 0 -221 197q0 25 3 52l73 601h-113q-13 0 -23 10q-8 8 -8 22v6l8 67l158 19l78 304q9 32 42 32h85l-42 -337h448l77 305q9 32 43 32h86l-42 -337h274l-14 -123h-275l-73 -590q-2 -15 -2 -32q0 -38 19 -60q26 -30 62 -30t56 7.5t35 16 t25.5 16t18.5 7.5q11 0 21 -16l42 -81q-103 -88 -229 -88q-222 0 -222 197q0 24 3 52l74 601h-442l-72 -590q-2 -15 -2 -28q0 -43 20 -65q26 -30 60 -30h2q36 0 55.5 8t34.5 16.5t25.5 16t18.5 7.5q12 0 22 -16z" />
<glyph unicode="ttf" horiz-adv-x="1867" d="M622 73q-103 -88 -227 -88q-218 0 -218 196q0 25 3 53l73 601h-111q-14 0 -23 10q-7 8 -7 22v6l7 67l155 19l78 304q9 32 42 32h86l-42 -337h438l77 305q9 32 44 32h85l-42 -337h459l12 96q21 166 118.5 257t247.5 92q59 0 114 -19l-14 -85q-5 -23 -27 -24.5t-62 -1.5 q-185 0 -213 -225l-12 -90h268l-14 -123h-263l-103 -835h-169l102 835h-459l-72 -590q-2 -16 -2 -29q0 -40 18 -63q24 -30 59.5 -30t55.5 7.5t34.5 16t24.5 16t18 7.5q11 0 21 -16l42 -81q-103 -88 -227 -88q-218 0 -218 196q0 25 3 53l73 601h-432l-72 -590q-2 -16 -2 -29 q1 -42 19 -64q24 -30 58 -30h2q36 0 55 8t33 16.5t24.5 16t18.5 7.5q12 0 22 -16z" />
<glyph unicode="tt&#x12f;" horiz-adv-x="1753" d="M627 73q-103 -88 -228 -88q-220 0 -220 197q0 25 3 52l73 601h-113q-14 0 -23 10q-7 8 -7 22v6l7 67l158 19l78 304q7 32 42 32h85l-42 -337h444l78 305q6 32 43 32h85l-42 -337h637l-14 -123h-1l-102 -835h-24q-80 -44 -110 -108q-12 -24 -12 -53.5t18.5 -48t44 -18.5 t39.5 3.5t23 8t14.5 8t9.5 3.5q14 0 17 -12l18 -63q-68 -50 -152 -50t-124 33.5t-40 89.5q0 117 147 207h-38l101 835h-467l-72 -590q-2 -15 -2 -29q1 -41 19 -63q24 -30 60 -30t56 7.5t35 16t25.5 16t18.5 7.5q11 0 21 -16l41 -81q-101 -88 -227 -88q-221 0 -221 197 q0 25 3 52l73 601h-438l-72 -590q-2 -15 -2 -29q0 -42 19 -64q25 -30 60 -30h1q36 0 55.5 8t34.5 16.5t25 16t20 7.5t21 -16zM1640 1408q86 0 114 -68q8 -20 8 -45q0 -51 -42 -91t-90 -40h-1q-48 0 -78 32t-30 70q0 62 41.5 102t77.5 40z" />
<glyph unicode="tt&#x131;" horiz-adv-x="1753" d="M627 73q-101 -88 -227 -88q-221 0 -221 197q0 25 3 52l73 601h-113q-14 0 -23 10q-7 8 -7 22v6l7 67l158 19l78 304q7 32 42 32h85l-42 -337h444l78 305q6 32 43 32h85l-42 -337h637l-14 -123h-1l-102 -835h-169l101 835h-467l-72 -590q-2 -15 -2 -29q1 -41 19 -63 q24 -30 60 -30t56 7.5t35 16t25.5 16t18.5 7.5q11 0 21 -16l41 -81q-101 -88 -227 -88q-221 0 -221 197q0 25 3 52l73 601h-438l-72 -590q-2 -15 -2 -29q0 -42 19 -64q25 -30 60 -30h1q36 0 55.5 8t34.5 16.5t25.5 16t18.5 7.5q12 0 22 -16z" />
<glyph unicode="f&#x1d0;" horiz-adv-x="1084" d="M146 0l102 833l-104 13q-41 6 -41 37v6l9 69h151l16 129q20 160 102.5 242t211.5 82q47 0 74 -9l-10 -93q-3 -23 -63 -23q-125 0 -150 -198l-16 -130h583l-118 -958h-170l102 835h-405l-103 -835h-171zM706 1383h117q25 0 37 -14l89 -133q6 -9 13 -28q9 16 19 28l123 132 q13 15 40 15h113l-228 -254h-156z" />
<glyph unicode="f&#x209;" horiz-adv-x="1084" d="M498 1390q58 20 106 20q79 0 107.5 -11.5t46.5 -42.5l143 -233h-81q-36 0 -56 26l-107 136q-106 -3 -152.5 -47t-60.5 -150l-16 -130h582l-118 -958h-170l102 835h-405l-103 -835h-170l102 833l-104 13q-41 6 -41 37v6l9 69h151l16 129q30 237 219 303zM975 1398 q32 0 46.5 -10t23.5 -32l103 -233h-72q-40 0 -55 26l-160 249h114z" />
<glyph unicode="f&#x20b;" horiz-adv-x="1084" d="M146 0l102 833l-104 13q-41 6 -41 37v6l9 69h151l16 129q20 160 102.5 242t211.5 82q45 0 74 -9l-10 -93q-3 -23 -63 -23q-125 0 -150 -198l-16 -130h582l-118 -958h-170l102 835h-405l-103 -835h-170zM811 1134h-120q21 180 166 238q52 20 125 20q136 0 190 -70 q43 -57 43 -144q0 -21 -3 -44h-120q2 18 2 33q0 116 -124 116q-140 0 -159 -149z" />
<glyph unicode="f&#x1e2f;" horiz-adv-x="1084" d="M146 0l102 833l-104 13q-41 6 -41 37v6l9 69h151l16 129q20 160 102.5 242t211.5 82q45 0 74 -9l-10 -93q-3 -23 -63 -23q-125 0 -150 -198l-16 -130h582l-117 -958h-171l102 835h-405l-103 -835h-170zM1270 1536l-234 -215q-28 -27 -71 -27h-92l151 200q32 42 80 42h166 zM1160 1238.5q25 -26.5 25 -56.5q0 -52 -34.5 -82.5t-74 -30.5t-64 25.5t-24.5 54.5q0 51 34 83.5t73.5 32.5t64.5 -26.5zM772 1265h2q67 0 91 -55q7 -16 7 -36q0 -44 -34 -74.5t-65 -30.5q-47 0 -73 26q-26 28 -26 60q0 21 10 43q10 20 34 43.5t54 23.5z" />
<glyph unicode="ff&#x1d0;" horiz-adv-x="1654" d="M1467 0h-170l103 835h-396l-103 -835h-170l103 835h-418l-103 -835h-170l102 833l-101 13q-41 6 -41 37v6l8 69h150l10 81q19 165 117.5 257t250.5 92q60 0 115 -19l-15 -85q-4 -23 -26.5 -24.5t-62.5 -1.5q-189 0 -216 -224l-9 -76h424l16 129q20 160 100.5 242 t208.5 82q43 0 74 -9l-12 -93q-3 -23 -61 -23q-121 0 -146 -198l-16 -130h572zM1280 1383h118q25 0 34 -14l86 -133q9 -16 14 -29q4 8 19 29l120 132q11 15 39 15h113l-224 -254h-158z" />
<glyph unicode="ff&#x209;" horiz-adv-x="1654" d="M1467 0h-170l103 835h-396l-103 -835h-170l103 835h-418l-103 -835h-170l102 833l-101 13q-41 6 -41 37v6l8 69h150l10 81q19 165 117.5 257t250.5 92q60 0 115 -19l-15 -85q-4 -23 -26.5 -24.5t-62.5 -1.5q-189 0 -216 -224l-9 -76h424l16 129q40 324 347 324 q107 -1 134 -55l139 -233h-82q-34 0 -55 27l-103 135q-105 -3 -154.5 -48t-61.5 -149l-16 -130h572zM1559 1398q32 0 46.5 -10t23.5 -32l99 -233h-70q-40 0 -56 26l-156 249h113z" />
<glyph unicode="ff&#x20b;" horiz-adv-x="1654" d="M143 0l102 833l-101 13q-41 6 -41 37v6l8 69h150l10 81q19 165 117.5 257t250.5 92q60 0 115 -19l-15 -85q-4 -23 -26.5 -24.5t-62.5 -1.5q-189 0 -216 -224l-9 -76h424l16 129q20 160 100.5 242t207.5 82q44 0 75 -9l-12 -93q-3 -23 -61 -23q-121 0 -146 -198l-16 -130 h572l-118 -958h-170l103 835h-396l-103 -835h-170l103 835h-418l-103 -835h-170zM1536 1283h-2q-139 0 -153 -149h-121q21 182 165 238q52 20 124 20q228 0 228 -207q0 -24 -3 -51h-120q3 23 3 41q0 39 -13 58q-34 50 -108 50z" />
<glyph unicode="ff&#x1e2f;" horiz-adv-x="1654" d="M143 0l102 833l-101 13q-41 6 -41 37v6l8 69h150l10 81q19 165 117.5 257t250.5 92q60 0 115 -19l-15 -85q-4 -23 -26.5 -24.5t-62.5 -1.5q-189 0 -216 -224l-9 -76h424l16 129q20 160 100.5 242t207.5 82q44 0 75 -9l-12 -93q-3 -23 -61 -23q-121 0 -146 -198l-16 -130 h572l-118 -958h-170l103 835h-396l-103 -835h-170l103 835h-418l-103 -835h-170zM1866 1536l-230 -215q-28 -27 -71 -27h-91l147 200q16 21 32 31.5t47 10.5h166zM1755.5 1238.5q24.5 -26.5 24.5 -56.5q0 -53 -34 -83q-33 -30 -72 -31h-1q-39 0 -63 26t-24 55q0 50 33 83 t72.5 33t64 -26.5zM1448 1238q25 -27 26 -58q0 -48 -34 -80t-72 -32h-1q-39 0 -63.5 26t-24.5 55q0 50 33 83t71 33l1 -1q40 0 64 -26z" />
<glyph unicode="f&#x237;" horiz-adv-x="1084" d="M146 0l102 833l-104 13q-41 6 -41 37v6l9 69h151l16 129q20 160 102.5 242t211.5 82q45 0 74 -9l-10 -93q-3 -23 -63 -23q-125 0 -150 -198l-16 -130h582l-127 -1033q-23 -193 -179 -255q-54 -22 -116 -22t-117 19l19 91q4 16 14 18q8 1 17 1q3 -1 6 -1h30 q75 0 110.5 35.5t45.5 113.5l111 910h-405l-103 -835h-170z" />
<glyph unicode="ff&#x237;" horiz-adv-x="1655" d="M1457 -75q-23 -193 -177 -255q-54 -22 -116.5 -22t-113.5 19l19 91q5 16 15 18q8 1 16 1q4 -1 6 -1h29q73 0 107.5 35.5t44.5 113.5l113 910h-396l-103 -835h-170l103 835h-418l-103 -835h-170l102 833l-101 13q-41 6 -41 37v6l8 69h150l10 81q20 167 118.5 258t249.5 91 q60 0 115 -19l-15 -85q-4 -23 -26.5 -24.5t-62.5 -1.5q-189 0 -216 -224l-9 -76h424l16 129q20 160 100.5 242t207.5 82q44 0 75 -9l-12 -93q-3 -23 -61 -23q-121 0 -146 -198l-16 -130h572z" />
<glyph unicode="f&#x135;" horiz-adv-x="1084" d="M146 0l102 833l-104 13q-41 6 -41 37v6l9 69h151l16 129q20 160 102.5 242t211.5 82q45 0 74 -9l-10 -93q-3 -23 -63 -23q-125 0 -150 -198l-16 -130h582l-127 -1033q-23 -193 -179 -255q-54 -22 -116 -22t-117 19l19 91q4 16 14 18q8 1 17 1q3 -1 6 -1h30 q75 0 110.5 35.5t45.5 113.5l111 910h-405l-103 -835h-170zM1170 1128h-112q-23 0 -35 14l-96 121q-7 7 -13 16l-143 -137q-17 -14 -39 -14h-118l231 254h158z" />
<glyph unicode="f&#x13e;" horiz-adv-x="1155" d="M781 1268q-158 14 -181 14q-115 0 -187 -70t-86 -200l-6 -52h236l-15 -127h-230l-99 -802l-49 -198q-16 -74 -87 -74h-69l131 1072l-97 12q-40 6 -40 37v6l8 74h145l7 52q21 172 133 284.5t294 112.5l262 -13h117l-170 -1396h-171zM1293 1424q20 0 23.5 -10.5t1.5 -21.5 q-1 -9 -6 -25t-17 -44.5t-31.5 -72t-50.5 -107.5q-10 -22 -24.5 -29t-37.5 -7h-56l89 317h109z" />
<glyph unicode="f&#x13c;" horiz-adv-x="1084" d="M838 1268q-158 14 -181 14q-115 0 -187 -70t-86 -200l-6 -52h236l-15 -127h-230l-99 -802l-49 -198q-16 -74 -87 -74h-69l131 1072l-97 12q-40 6 -40 37v6l8 74h145l7 52q21 172 133 284.5t294 112.5l282 -13h97l-170 -1396h-171zM839 -93q28 0 28 -30.5t-30.5 -98 t-48.5 -104t-33 -43t-38 -6.5h-59l78 282h103z" />
<glyph unicode="f&#x21b;" horiz-adv-x="1261" d="M1196 73q-101 -88 -224 -88q-216 0 -216 196q0 25 3 53l73 601h-420l-103 -835h-170l102 834l-98 12q-40 6 -40 37v6l8 69h145l12 96q20 166 117.5 257t246.5 92q58 0 113 -19l-15 -85q-5 -23 -27 -25h-61h-3q-81 0 -137 -53t-70 -173l-11 -90h432l78 305q9 32 43 32h86 l-42 -337h264l-14 -123h-265l-73 -590q-2 -16 -2 -29q0 -40 18 -63q24 -30 58.5 -30t53.5 7.5t33 16t24.5 16t22 7.5t18.5 -16zM1005 -93q28 -1 28 -31t-30.5 -97.5t-48.5 -104t-33 -43t-38 -6.5h-59l78 282h103z" />
<glyph unicode="f&#x165;" horiz-adv-x="1299" d="M1213 73q-101 -88 -224 -88q-216 0 -216 196q0 25 3 53l73 601h-420l-103 -835h-170l102 834l-98 12q-40 6 -40 37v6l8 69h145l12 96q20 166 117.5 257t246.5 92q58 0 113 -19l-15 -85q-5 -23 -27 -25h-61h-3q-81 0 -137 -53t-70 -173l-11 -90h432l78 305q9 32 43 32h86 l-42 -337h264l-14 -123h-265l-73 -590q-2 -16 -2 -29q0 -40 18 -63q24 -30 58.5 -30t53.5 7.5t33 16t24.5 16t22 7.5t18.5 -16zM1397 1424q20 0 23.5 -10.5t1.5 -21.5q-1 -9 -6 -25t-17 -44.5t-31.5 -72t-50.5 -107.5q-10 -22 -24.5 -29t-37.5 -7h-56l89 317h109z" />
<glyph unicode="f&#x1ecb;" horiz-adv-x="1084" d="M146 0l102 833l-104 13q-41 6 -41 37v6l9 69h151l16 129q20 160 102.5 242t211.5 82q45 0 74 -9l-10 -93q-3 -23 -63 -23q-125 0 -150 -198l-16 -130h582l-117 -958h-171l102 835h-405l-103 -835h-170zM1034 1202.5q-38 -34.5 -87 -34.5q-50 0 -86 36t-36 74q0 62 36 100 t86 38q51 0 78 -27q47 -47 47 -99.5t-38 -87zM855 -160q27 -28 27 -60q0 -57 -37.5 -92.5t-80 -35.5t-68.5 28.5t-26 60.5q0 57 35 93t78 36h1q44 0 71 -30z" />
<glyph unicode="f&#x1e2d;" horiz-adv-x="1084" d="M146 0l102 833l-104 13q-41 6 -41 37v6l9 69h151l16 129q20 160 102.5 242t211.5 82q45 0 74 -9l-10 -93q-3 -23 -63 -23q-125 0 -150 -198l-16 -130h582l-117 -958h-171l102 835h-405l-103 -835h-170zM839 -215q-63 0 -75 -85h-104q10 89 64 147t112 58t97.5 -30.5 t59 -44.5t39.5 -14q63 0 76 84h103q-11 -89 -63 -147q-51 -57 -108 -57h-2q-58 0 -99 30.5t-60.5 44.5t-39.5 14zM1034 1202.5q-38 -34.5 -87 -34.5q-50 0 -86 36t-36 74q0 62 36 100t86 38q51 0 78 -27q47 -47 47 -99.5t-38 -87z" />
<glyph unicode="f&#x268;" horiz-adv-x="1084" d="M742 544l35 288h-404l-98 -801l-49 -198q-16 -74 -87 -74h-69l131 1071l-103 13q-41 6 -41 37v6l7 74h153l7 52q35 286 293 374q87 30 190 30t152 -19l-16 -88q-4 -19 -47 -19h-12q-17 1 -39 1q-169 0 -253.5 -69t-103.5 -213l-6 -49h583l-52 -416h186l-16 -123h-185 l-51 -421h-171l51 421h-81l15 123h81z" />
<glyph unicode="f&#xed;" horiz-adv-x="1084" d="M146 0l102 833l-104 13q-41 6 -41 37v6l9 69h151l16 129q20 160 102.5 242t211.5 82q45 0 74 -9l-10 -93q-3 -23 -63 -23q-125 0 -150 -198l-16 -130h582l-117 -958h-171l102 835h-405l-103 -835h-170zM1272 1399l-241 -249q-15 -15 -28 -21t-32 -6h-97l161 233 q15 22 31 32.5t46 10.5h160z" />
<glyph unicode="f&#x1ec9;" horiz-adv-x="1084" d="M146 0l102 833l-104 13q-41 6 -41 37v6l9 69h151l16 129q20 160 102.5 242t211.5 82q45 0 74 -9l-10 -93q-3 -23 -63 -23q-125 0 -150 -198l-16 -130h582l-117 -958h-171l102 835h-405l-103 -835h-170zM667 1370q29 22 75 35t99 13q89 0 130.5 -35t41.5 -87 q0 -47 -32 -82t-82 -54l-15 -79h-86v128q52 7 71.5 26t19.5 42q0 22 -16 39t-54 17q-19 0 -34 -4t-26 -9.5t-20 -9.5t-16 -4q-8 0 -13 4t-10 12z" />
<glyph unicode="ff&#x1ecb;" horiz-adv-x="1654" d="M1569 835l-103 -835h-170l103 835h-396l-103 -835h-170l103 835h-417l-103 -835h-170l102 833l-101 13q-41 6 -41 37v6l8 69h150l10 81q20 167 118.5 258t249.5 91q59 0 114 -19l-14 -85q-5 -26 -47 -26h-6h-47q-79 0 -135.5 -52t-69.5 -172l-9 -76h423l16 129 q20 160 100.5 242t208.5 82q43 0 74 -9l-12 -93q-2 -23 -60 -23q-122 0 -147 -198l-16 -130h572l-14 -123h-1zM1609 1202.5q-38 -34.5 -87 -34.5q-50 0 -86 36t-36 74q0 62 36 100t86 38q51 0 78 -27q47 -47 47 -99.5t-38 -87zM1431 -160q27 -28 27 -60q0 -57 -37.5 -92.5 t-80 -35.5t-68.5 28.5t-26 60.5q0 57 35 93t78 36h1q44 0 71 -30z" />
<glyph unicode="ff&#x1e2d;" horiz-adv-x="1654" d="M1569 835l-103 -835h-170l103 835h-396l-103 -835h-170l103 835h-417l-103 -835h-170l102 833l-101 13q-41 6 -41 37v6l8 69h150l10 81q20 167 118.5 258t249.5 91q59 0 114 -19l-14 -85q-5 -26 -47 -26h-6h-47q-79 0 -135.5 -52t-69.5 -172l-9 -76h423l16 129 q20 160 100.5 242t208.5 82q43 0 74 -9l-12 -93q-2 -23 -60 -23q-122 0 -147 -198l-16 -130h572l-14 -123h-1zM1419 -215q-63 0 -75 -85h-104q10 89 64 147t112 58t97.5 -30.5t59 -44.5t39.5 -14q63 0 76 84h103q-11 -89 -63 -147q-51 -57 -108 -57h-2q-58 0 -99 30.5 t-60.5 44.5t-39.5 14zM1609 1202.5q-38 -34.5 -87 -34.5q-50 0 -86 36t-36 74q0 62 36 100t86 38q51 0 78 -27q47 -47 47 -99.5t-38 -87z" />
<glyph unicode="ff&#x268;" horiz-adv-x="1654" d="M1569 835l-36 -291h251l-16 -123h-250l-52 -421h-170l52 421h-17l15 123h17l36 291h-396l-103 -835h-170l103 835h-417l-103 -835h-170l102 833l-101 13q-41 6 -41 37v6l8 69h150l10 81q20 167 118.5 258t249.5 91q59 0 114 -19l-14 -85q-5 -26 -47 -26h-6h-47 q-79 0 -135.5 -52t-69.5 -172l-9 -76h423l16 129q20 160 100.5 242t208.5 82q43 0 74 -9l-12 -93q-2 -23 -60 -23q-122 0 -147 -198l-16 -130h572l-14 -123h-1zM1609 1202.5q-38 -34.5 -87 -34.5q-50 0 -86 36t-36 74q0 62 36 100t86 38q51 0 78 -27q47 -47 47 -99.5 t-38 -87z" />
<glyph unicode="ff&#xed;" horiz-adv-x="1654" d="M1569 835l-103 -835h-170l103 835h-396l-103 -835h-170l103 835h-417l-103 -835h-170l102 833l-101 13q-41 6 -41 37v6l8 69h150l10 81q20 167 118.5 258t249.5 91q59 0 114 -19l-14 -85q-5 -26 -47 -26h-6h-47q-79 0 -135.5 -52t-69.5 -172l-9 -76h423l16 129 q20 160 100.5 242t208.5 82q43 0 74 -9l-12 -93q-2 -23 -60 -23q-122 0 -147 -198l-16 -130h572l-14 -123h-1zM1810 1399l-241 -249q-15 -15 -28 -21t-32 -6h-97l161 233q15 22 31 32.5t46 10.5h160z" />
<glyph unicode="ff&#x1ec9;" horiz-adv-x="1654" d="M1569 835l-103 -835h-170l103 835h-396l-103 -835h-170l103 835h-417l-103 -835h-170l102 833l-101 13q-41 6 -41 37v6l8 69h150l10 81q20 167 118.5 258t249.5 91q59 0 114 -19l-14 -85q-5 -26 -47 -26h-6h-47q-79 0 -135.5 -52t-69.5 -172l-9 -76h423l16 129 q20 160 100.5 242t208.5 82q43 0 74 -9l-12 -93q-2 -23 -60 -23q-122 0 -147 -198l-16 -130h572l-14 -123h-1zM1248 1370q29 22 75 35t99 13q89 0 130.5 -35t41.5 -87q0 -47 -32 -82t-82 -54l-15 -79h-86v128q52 7 71.5 26t19.5 42q0 22 -16 39t-54 17q-19 0 -34 -4 t-26 -9.5t-20 -9.5t-16 -4q-8 0 -13 4t-10 12z" />
<glyph unicode="f&#x13a;" horiz-adv-x="1084" d="M838 1268q-158 14 -181 14q-115 0 -187 -70t-86 -200l-6 -52h236l-15 -127h-230l-99 -802l-49 -198q-16 -74 -87 -74h-69l131 1072l-97 12q-40 6 -40 37v6l8 74h145l7 52q21 172 133 284.5t294 112.5l282 -13h97l-170 -1396h-171zM1264 1788l-322 -276q-23 -20 -62 -20 h-122l233 265q18 21 34.5 26t46.5 5h192z" />
<glyph unicode="ti" horiz-adv-x="1141" d="M615 73q-101 -88 -224 -88q-217 0 -217 199q0 24 3 50l74 601h-110q-14 0 -23 10q-7 8 -7 22v6l8 67l153 19l78 304q9 32 42 32h86l-42 -337h643l-117 -958h-171l103 835h-473l-72 -590q-2 -16 -2 -29q0 -42 18 -64q24 -30 57 -30h2q34 0 53.5 8t33.5 16.5t24 16t18 7.5 q12 0 22 -16zM1104 1202.5q-38 -34.5 -87 -34.5q-50 0 -86 36t-36 74q0 62 36 100t86 38q51 0 78 -27q47 -47 47 -99.5t-38 -87z" />
<glyph unicode="t&#xec;" horiz-adv-x="1141" d="M615 73q-101 -88 -224 -88q-217 0 -217 199q0 24 3 50l74 601h-110q-14 0 -23 10q-7 8 -7 22v6l8 67l153 19l78 304q9 32 42 32h86l-42 -337h643l-117 -958h-171l103 835h-473l-72 -590q-2 -16 -2 -29q0 -42 18 -64q24 -30 57 -30h2q34 0 53.5 8t33.5 16.5t24 16t18 7.5 q12 0 22 -16zM993 1399q30 0 43.5 -10.5t22.5 -32.5l105 -233h-93q-19 0 -30.5 6t-22.5 21l-179 249h154z" />
<glyph unicode="t&#xed;" horiz-adv-x="1141" d="M615 73q-101 -88 -224 -88q-217 0 -217 199q0 24 3 50l74 601h-110q-14 0 -23 10q-7 8 -7 22v6l8 67l153 19l78 304q9 32 42 32h86l-42 -337h643l-117 -958h-171l103 835h-473l-72 -590q-2 -16 -2 -29q0 -42 18 -64q24 -30 57 -30h2q34 0 53.5 8t33.5 16.5t24 16t18 7.5 q12 0 22 -16zM1294 1399l-241 -249q-15 -15 -28 -21t-32 -6h-97l161 233q15 22 31 32.5t46 10.5h160z" />
<glyph unicode="t&#xee;" horiz-adv-x="1141" d="M994 960v-960h-176v832h-465v-584q0 -60 26.5 -90t69.5 -30q25 0 42.5 7t30 16t21.5 16t17 7q9 0 14.5 -4t10.5 -13l52 -84q-44 -42 -104 -65t-125 -23q-111 0 -171 65t-60 186v596h-108q-16 0 -26.5 10t-10.5 29v70l151 20l40 301q3 15 13 24t27 9h90v-335h641z M1207 1128h-118q-11 0 -22 4t-22 15l-118 125q-5 4 -8.5 9t-8.5 10q-8 -11 -15 -18l-119 -126q-18 -19 -44 -19h-122l217 255h162z" />
<glyph unicode="t&#xef;" horiz-adv-x="1141" d="M615 73q-101 -88 -224 -88q-217 0 -217 199q0 24 3 50l74 601h-110q-14 0 -23 10q-7 8 -7 22v6l8 67l153 19l78 304q9 32 42 32h86l-42 -337h643l-117 -958h-171l103 835h-473l-72 -590q-2 -16 -2 -29q0 -42 18 -64q24 -30 57 -30h2q34 0 53.5 8t33.5 16.5t24 16t18 7.5 q12 0 22 -16zM777 1323q27 -28 27 -60q0 -57 -37.5 -92.5t-80 -35.5t-68.5 28.5t-26 60.5q0 57 35 93t78 36h1q44 0 71 -30zM1080 1323q27 -28 27 -60q0 -57 -37.5 -92.5t-80 -35.5t-68.5 28.5t-26 60.5q0 57 35 93t78 36h1q44 0 71 -30z" />
<glyph unicode="t&#x12b;" horiz-adv-x="986" d="M350 -15h-3q-94 0 -137 61q-34 47 -34 124q0 24 3 52l69 564h-92q-14 0 -21.5 10t-5.5 29l9 70l131 20l78 342q5 17 15 27.5t25 10.5h80l-47 -381h555l-113 -914h-156l97 786h-398l-67 -546q-2 -15 -2 -28q0 -35 14 -56q19 -28 56 -28q21 0 37 6.5t27.5 15t20 15 t15.5 6.5q8 0 12 -4t8 -13l34 -81q-43 -42 -98.5 -65t-111.5 -23zM706 1301h480l-14 -114h-480z" />
<glyph unicode="t&#x129;" horiz-adv-x="1141" d="M615 73q-101 -88 -224 -88q-217 0 -217 199q0 24 3 50l74 601h-110q-14 0 -23 10q-7 8 -7 22v6l8 67l153 19l78 304q9 32 42 32h86l-42 -337h643l-117 -958h-171l103 835h-473l-72 -590q-2 -16 -2 -29q0 -42 18 -64q24 -30 57 -30h2q34 0 53.5 8t33.5 16.5t24 16t18 7.5 q12 0 22 -16zM914 1246q-63 0 -75 -85h-104q10 89 64 147t112 58t97.5 -30.5t59 -44.5t39.5 -14q63 0 76 84h103q-11 -89 -63 -147q-51 -57 -108 -57h-2q-58 0 -99 30.5t-60.5 44.5t-39.5 14z" />
<glyph unicode="t&#x12d;" horiz-adv-x="1141" d="M615 73q-101 -88 -224 -88q-217 0 -217 199q0 24 3 50l74 601h-110q-14 0 -23 10q-7 8 -7 22v6l8 67l153 19l78 304q9 32 42 32h86l-42 -337h643l-117 -958h-171l103 835h-473l-72 -590q-2 -16 -2 -29q0 -42 18 -64q24 -30 57 -30h2q34 0 53.5 8t33.5 16.5t24 16t18 7.5 q12 0 22 -16zM1004 1234q128 0 147 148h120q-24 -180 -161 -238q-50 -21 -120 -21q-132 0 -181 72q-38 55 -38 134q0 25 4 53h119q-3 -24 -3 -43q0 -38 12 -56q31 -49 101 -49z" />
<glyph unicode="t&#x1d0;" horiz-adv-x="1141" d="M615 73q-101 -88 -224 -88q-217 0 -217 199q0 24 3 50l74 601h-110q-14 0 -23 10q-7 8 -7 22v6l8 67l153 19l78 304q9 32 42 32h86l-42 -337h643l-117 -958h-171l103 835h-473l-72 -590q-2 -16 -2 -29q0 -42 18 -64q24 -30 57 -30h2q34 0 53.5 8t33.5 16.5t24 16t18 7.5 q12 0 22 -16zM742 1382h118q20 0 34 -14l96 -123l13 -19q5 5 9 10t9 9l126 123q14 14 39 14h113l-231 -254h-157z" />
<glyph unicode="t&#x1e2d;" horiz-adv-x="1141" d="M615 73q-101 -88 -224 -88q-217 0 -217 199q0 24 3 50l74 601h-110q-14 0 -23 10q-7 8 -7 22v6l8 67l153 19l78 304q9 32 42 32h86l-42 -337h643l-117 -958h-171l103 835h-473l-72 -590q-2 -16 -2 -29q0 -42 18 -64q24 -30 57 -30h2q34 0 53.5 8t33.5 16.5t24 16t18 7.5 q12 0 22 -16zM903 -215q-63 0 -75 -85h-104q10 89 64 147t112 58t97.5 -30.5t59 -44.5t39.5 -14q63 0 76 84h103q-11 -89 -63 -147q-51 -57 -108 -57h-2q-58 0 -99 30.5t-60.5 44.5t-39.5 14zM1104 1202.5q-38 -34.5 -87 -34.5q-50 0 -86 36t-36 74q0 62 36 100t86 38 q51 0 78 -27q47 -47 47 -99.5t-38 -87z" />
<glyph unicode="t&#x1e2f;" horiz-adv-x="1141" d="M615 73q-101 -88 -224 -88q-217 0 -217 199q0 24 3 50l74 601h-110q-14 0 -23 10q-7 8 -7 22v6l8 67l153 19l78 304q9 32 42 32h86l-42 -337h643l-117 -958h-171l103 835h-473l-72 -590q-2 -16 -2 -29q0 -42 18 -64q24 -30 57 -30h2q34 0 53.5 8t33.5 16.5t24 16t18 7.5 q12 0 22 -16zM1348 1702l-241 -249q-15 -15 -28 -21t-32 -6h-97l161 233q15 22 31 32.5t46 10.5h160zM747 1323q27 -28 27 -60q0 -57 -37.5 -92.5t-80 -35.5t-68.5 28.5t-26 60.5q0 57 35 93t78 36h1q44 0 71 -30zM1117 1323q27 -28 27 -60q0 -57 -37.5 -92.5t-80 -35.5 t-68.5 28.5t-26 60.5q0 57 35 93t78 36h1q44 0 71 -30z" />
<glyph unicode="t&#x268;" horiz-adv-x="1141" d="M615 73q-101 -88 -224 -88q-217 0 -217 199q0 24 3 50l74 601h-110q-14 0 -23 10q-7 8 -7 22v6l8 67l153 19l78 304q9 32 42 32h86l-42 -337h643l-117 -958h-171l103 835h-473l-72 -590q-2 -16 -2 -29q0 -42 18 -64q24 -30 57 -30h2q34 0 53.5 8t33.5 16.5t24 16t18 7.5 q12 0 22 -16zM1104 1202.5q-38 -34.5 -87 -34.5q-50 0 -86 36t-36 74q0 62 36 100t86 38q51 0 78 -27q47 -47 47 -99.5t-38 -87z" />
<glyph unicode="tti" horiz-adv-x="1753" d="M627 73q-101 -88 -227 -88q-221 0 -221 197q0 25 3 52l73 601h-113q-14 0 -23 10q-7 8 -7 22v6l7 67l158 19l78 304q7 32 42 32h85l-42 -337h444l78 305q6 32 43 32h85l-42 -337h637l-14 -123h-1l-102 -835h-169l101 835h-467l-72 -590q-2 -15 -2 -29q1 -41 19 -63 q24 -30 60 -30t56 7.5t35 16t25.5 16t18.5 7.5q11 0 21 -16l41 -81q-101 -88 -227 -88q-221 0 -221 197q0 25 3 52l73 601h-438l-72 -590q-2 -15 -2 -29q0 -42 19 -64q25 -30 60 -30h1q36 0 55.5 8t34.5 16.5t25.5 16t18.5 7.5q12 0 22 -16zM1716 1202.5 q-38 -34.5 -87 -34.5q-50 0 -86 36t-36 74q0 62 36 100t86 38q51 0 78 -27q47 -47 47 -99.5t-38 -87z" />
<glyph unicode="tt&#xec;" horiz-adv-x="1753" d="M627 73q-101 -88 -227 -88q-221 0 -221 197q0 25 3 52l73 601h-113q-14 0 -23 10q-7 8 -7 22v6l7 67l158 19l78 304q7 32 42 32h85l-42 -337h444l78 305q6 32 43 32h85l-42 -337h637l-14 -123h-1l-102 -835h-169l101 835h-467l-72 -590q-2 -15 -2 -29q1 -41 19 -63 q24 -30 60 -30t56 7.5t35 16t25.5 16t18.5 7.5q11 0 21 -16l41 -81q-101 -88 -227 -88q-221 0 -221 197q0 25 3 52l73 601h-438l-72 -590q-2 -15 -2 -29q0 -42 19 -64q25 -30 60 -30h1q36 0 55.5 8t34.5 16.5t25.5 16t18.5 7.5q12 0 22 -16zM1605 1399q30 0 43.5 -10.5 t22.5 -32.5l105 -233h-93q-19 0 -30.5 6t-22.5 21l-179 249h154z" />
<glyph unicode="tt&#xed;" horiz-adv-x="1753" d="M627 73q-101 -88 -227 -88q-221 0 -221 197q0 25 3 52l73 601h-113q-14 0 -23 10q-7 8 -7 22v6l7 67l158 19l78 304q7 32 42 32h85l-42 -337h444l78 305q6 32 43 32h85l-42 -337h637l-14 -123h-1l-102 -835h-169l101 835h-467l-72 -590q-2 -15 -2 -29q1 -41 19 -63 q24 -30 60 -30t56 7.5t35 16t25.5 16t18.5 7.5q11 0 21 -16l41 -81q-101 -88 -227 -88q-221 0 -221 197q0 25 3 52l73 601h-438l-72 -590q-2 -15 -2 -29q0 -42 19 -64q25 -30 60 -30h1q36 0 55.5 8t34.5 16.5t25.5 16t18.5 7.5q12 0 22 -16zM1906 1399l-241 -249 q-15 -15 -28 -21t-32 -6h-97l161 233q15 22 31 32.5t46 10.5h160z" />
<glyph unicode="tt&#xee;" horiz-adv-x="1515" d="M358 -15h-3h-3q-92 0 -137 61q-35 47 -35 126q0 24 3 50l69 564h-95q-13 0 -21 10t-5 29l8 70l135 20l77 334q4 17 14.5 26.5t25.5 9.5h79l-45 -371h374l77 335q4 17 14.5 26.5t25.5 9.5h80l-46 -371h550l-112 -914h-156l96 786h-394l-67 -546q-2 -15 -2 -27 q0 -36 15 -57q20 -28 58 -28q22 0 39 6.5t29.5 15t21 15t15.5 6.5q8 0 12 -4t7 -13l34 -81q-44 -42 -99 -65t-113 -23h-3h-3q-94 0 -138 61q-34 47 -34 125q0 24 3 51l69 564h-369l-67 -546q-2 -15 -2 -27q0 -36 15 -57q20 -28 58 -28q22 0 38.5 6.5t29.5 15t21.5 15 t14.5 6.5q8 0 12.5 -4t7.5 -13l34 -81q-44 -42 -100 -65t-113 -23zM1709 1100h-102q-9 0 -18 4.5t-17 16.5l-85 139q-4 4 -6 9.5t-6 11.5q-8 -12 -15 -20l-121 -140q-18 -21 -41 -21h-105l221 283h143z" />
<glyph unicode="tt&#xef;" horiz-adv-x="1753" d="M627 73q-101 -88 -227 -88q-221 0 -221 197q0 25 3 52l73 601h-113q-14 0 -23 10q-7 8 -7 22v6l7 67l158 19l78 304q7 32 42 32h85l-42 -337h444l78 305q6 32 43 32h85l-42 -337h637l-14 -123h-1l-102 -835h-169l101 835h-467l-72 -590q-2 -15 -2 -29q1 -41 19 -63 q24 -30 60 -30t56 7.5t35 16t25.5 16t18.5 7.5q11 0 21 -16l41 -81q-101 -88 -227 -88q-221 0 -221 197q0 25 3 52l73 601h-438l-72 -590q-2 -15 -2 -29q0 -42 19 -64q25 -30 60 -30h1q36 0 55.5 8t34.5 16.5t25.5 16t18.5 7.5q12 0 22 -16zM1389 1323q27 -28 27 -60 q0 -57 -37.5 -92.5t-80 -35.5t-68.5 28.5t-26 60.5q0 57 35 93t78 36h1q44 0 71 -30zM1692 1323q27 -28 27 -60q0 -57 -37.5 -92.5t-80 -35.5t-68.5 28.5t-26 60.5q0 57 35 93t78 36h1q44 0 71 -30z" />
<glyph unicode="tt&#x12b;" horiz-adv-x="1516" d="M571 73q-92 -88 -218 -88h-4q-89 0 -129 54t-40 133q0 24 3 50l69 564h-95q-13 0 -21 10t-5 29l8 70l135 20l78 342q9 38 40 38h80l-47 -381h374l79 343q9 38 39 38h80l-47 -381h550l-112 -914h-156l96 786h-394l-67 -546q-2 -15 -2 -39t17.5 -48.5t47.5 -24.5t47 6.5 t29.5 15t21 15t16.5 6.5q13 0 18 -17l34 -81q-92 -88 -221 -88q-91 0 -130 54t-39 132q0 24 3 51l69 564h-369l-67 -546q-2 -15 -2 -39t17.5 -48.5t47.5 -24.5t46.5 6.5t29.5 15t21.5 15t15.5 6.5q13 0 19 -17zM1235 1301h481l-14 -114h-481z" />
<glyph unicode="tt&#x129;" horiz-adv-x="1753" d="M627 73q-101 -88 -227 -88q-221 0 -221 197q0 25 3 52l73 601h-113q-14 0 -23 10q-7 8 -7 22v6l7 67l158 19l78 304q7 32 42 32h85l-42 -337h444l78 305q6 32 43 32h85l-42 -337h637l-14 -123h-1l-102 -835h-169l101 835h-467l-72 -590q-2 -15 -2 -29q1 -41 19 -63 q24 -30 60 -30t56 7.5t35 16t25.5 16t18.5 7.5q11 0 21 -16l41 -81q-101 -88 -227 -88q-221 0 -221 197q0 25 3 52l73 601h-438l-72 -590q-2 -15 -2 -29q0 -42 19 -64q25 -30 60 -30h1q36 0 55.5 8t34.5 16.5t25.5 16t18.5 7.5q12 0 22 -16zM1526 1246q-63 0 -75 -85h-104 q10 89 64 147t112 58t97.5 -30.5t59 -44.5t39.5 -14q63 0 76 84h103q-11 -89 -63 -147q-51 -57 -108 -57h-2q-58 0 -99 30.5t-60.5 44.5t-39.5 14z" />
<glyph unicode="tt&#x12d;" horiz-adv-x="1753" d="M627 73q-101 -88 -227 -88q-221 0 -221 197q0 25 3 52l73 601h-113q-14 0 -23 10q-7 8 -7 22v6l7 67l158 19l78 304q7 32 42 32h85l-42 -337h444l78 305q6 32 43 32h85l-42 -337h637l-14 -123h-1l-102 -835h-169l101 835h-467l-72 -590q-2 -15 -2 -29q1 -41 19 -63 q24 -30 60 -30t56 7.5t35 16t25.5 16t18.5 7.5q11 0 21 -16l41 -81q-101 -88 -227 -88q-221 0 -221 197q0 25 3 52l73 601h-438l-72 -590q-2 -15 -2 -29q0 -42 19 -64q25 -30 60 -30h1q36 0 55.5 8t34.5 16.5t25.5 16t18.5 7.5q12 0 22 -16zM1616 1234q128 0 147 148h120 q-24 -180 -161 -238q-50 -21 -120 -21q-132 0 -181 72q-38 55 -38 134q0 25 4 53h119q-3 -24 -3 -43q0 -38 12 -56q31 -49 101 -49z" />
<glyph unicode="tt&#x1d0;" horiz-adv-x="1753" d="M627 73q-101 -88 -227 -88q-221 0 -221 197q0 25 3 52l73 601h-113q-14 0 -23 10q-7 8 -7 22v6l7 67l158 19l78 304q7 32 42 32h85l-42 -337h444l78 305q6 32 43 32h85l-42 -337h637l-14 -123h-1l-102 -835h-169l101 835h-467l-72 -590q-2 -15 -2 -29q1 -41 19 -63 q24 -30 60 -30t56 7.5t35 16t25.5 16t18.5 7.5q11 0 21 -16l41 -81q-101 -88 -227 -88q-221 0 -221 197q0 25 3 52l73 601h-438l-72 -590q-2 -15 -2 -29q0 -42 19 -64q25 -30 60 -30h1q36 0 55.5 8t34.5 16.5t25.5 16t18.5 7.5q12 0 22 -16zM1354 1382h118q20 0 34 -14 l96 -123l13 -19q5 5 9 10t9 9l126 123q14 14 39 14h113l-231 -254h-157z" />
<glyph unicode="tt&#x1e2d;" horiz-adv-x="1753" d="M627 73q-101 -88 -227 -88q-221 0 -221 197q0 25 3 52l73 601h-113q-14 0 -23 10q-7 8 -7 22v6l7 67l158 19l78 304q7 32 42 32h85l-42 -337h444l78 305q6 32 43 32h85l-42 -337h637l-14 -123h-1l-102 -835h-169l101 835h-467l-72 -590q-2 -15 -2 -29q1 -41 19 -63 q24 -30 60 -30t56 7.5t35 16t25.5 16t18.5 7.5q11 0 21 -16l41 -81q-101 -88 -227 -88q-221 0 -221 197q0 25 3 52l73 601h-438l-72 -590q-2 -15 -2 -29q0 -42 19 -64q25 -30 60 -30h1q36 0 55.5 8t34.5 16.5t25.5 16t18.5 7.5q12 0 22 -16zM1515 -215q-63 0 -75 -85h-104 q10 89 64 147t112 58t97.5 -30.5t59 -44.5t39.5 -14q63 0 76 84h103q-11 -89 -63 -147q-51 -57 -108 -57h-2q-58 0 -99 30.5t-60.5 44.5t-39.5 14zM1716 1202.5q-38 -34.5 -87 -34.5q-50 0 -86 36t-36 74q0 62 36 100t86 38q51 0 78 -27q47 -47 47 -99.5t-38 -87z" />
<glyph unicode="tt&#x1e2f;" horiz-adv-x="1753" d="M627 73q-101 -88 -227 -88q-221 0 -221 197q0 25 3 52l73 601h-113q-14 0 -23 10q-7 8 -7 22v6l7 67l158 19l78 304q7 32 42 32h85l-42 -337h444l78 305q6 32 43 32h85l-42 -337h637l-14 -123h-1l-102 -835h-169l101 835h-467l-72 -590q-2 -15 -2 -29q1 -41 19 -63 q24 -30 60 -30t56 7.5t35 16t25.5 16t18.5 7.5q11 0 21 -16l41 -81q-101 -88 -227 -88q-221 0 -221 197q0 25 3 52l73 601h-438l-72 -590q-2 -15 -2 -29q0 -42 19 -64q25 -30 60 -30h1q36 0 55.5 8t34.5 16.5t25.5 16t18.5 7.5q12 0 22 -16zM1965 1702l-241 -249 q-15 -15 -28 -21t-32 -6h-97l161 233q15 22 31 32.5t46 10.5h160zM1364 1323q27 -28 27 -60q0 -57 -37.5 -92.5t-80 -35.5t-68.5 28.5t-26 60.5q0 57 35 93t78 36h1q44 0 71 -30zM1734 1323q27 -28 27 -60q0 -57 -37.5 -92.5t-80 -35.5t-68.5 28.5t-26 60.5q0 57 35 93 t78 36h1q44 0 71 -30z" />
<glyph unicode="tt&#x268;" horiz-adv-x="1753" d="M627 73q-101 -88 -227 -88q-221 0 -221 197q0 25 3 52l73 601h-113q-14 0 -23 10q-7 8 -7 22v6l7 67l158 19l78 304q7 32 42 32h85l-42 -337h444l78 305q6 32 43 32h85l-42 -337h637l-14 -123h-1l-102 -835h-169l101 835h-467l-72 -590q-2 -15 -2 -29q1 -41 19 -63 q24 -30 60 -30t56 7.5t35 16t25.5 16t18.5 7.5q11 0 21 -16l41 -81q-101 -88 -227 -88q-221 0 -221 197q0 25 3 52l73 601h-438l-72 -590q-2 -15 -2 -29q0 -42 19 -64q25 -30 60 -30h1q36 0 55.5 8t34.5 16.5t25.5 16t18.5 7.5q12 0 22 -16zM1716 1202.5 q-38 -34.5 -87 -34.5q-50 0 -86 36t-36 74q0 62 36 100t86 38q51 0 78 -27q47 -47 47 -99.5t-38 -87z" />
<glyph unicode="t&#x209;" horiz-adv-x="1141" d="M615 73q-101 -88 -224 -88q-217 0 -217 199q0 24 3 50l74 601h-110q-14 0 -23 10q-7 8 -7 22v6l8 67l153 19l78 304q9 32 42 32h86l-42 -337h643l-117 -958h-171l103 835h-473l-72 -590q-2 -16 -2 -29q0 -42 18 -64q24 -30 57 -30h2q34 0 53.5 8t33.5 16.5t24 16t18 7.5 q12 0 22 -16zM883 1399q32 0 48.5 -10.5t28.5 -32.5l132 -233h-73q-20 0 -34 5.5t-26 21.5l-192 249h116zM591 1399q32 0 47 -11t30 -32l173 -233h-84q-20 0 -33.5 6.5t-27.5 20.5l-234 249h129z" />
<glyph unicode="tt&#x209;" horiz-adv-x="1753" d="M627 73q-101 -88 -227 -88q-221 0 -221 197q0 25 3 52l73 601h-113q-14 0 -23 10q-7 8 -7 22v6l7 67l158 19l78 304q7 32 42 32h85l-42 -337h444l78 305q6 32 43 32h85l-42 -337h637l-14 -123h-1l-102 -835h-169l101 835h-467l-72 -590q-2 -15 -2 -29q1 -41 19 -63 q24 -30 60 -30t56 7.5t35 16t25.5 16t18.5 7.5q11 0 21 -16l41 -81q-101 -88 -227 -88q-221 0 -221 197q0 25 3 52l73 601h-438l-72 -590q-2 -15 -2 -29q0 -42 19 -64q25 -30 60 -30h1q36 0 55.5 8t34.5 16.5t25.5 16t18.5 7.5q12 0 22 -16zM1508 1399q32 0 48.5 -10.5 t28.5 -32.5l132 -233h-73q-20 0 -34 5.5t-26 21.5l-192 249h116zM1216 1399q32 0 47 -11t30 -32l173 -233h-84q-20 0 -33.5 6.5t-27.5 20.5l-234 249h129z" />
<glyph unicode="t&#x20b;" horiz-adv-x="1141" d="M615 73q-101 -88 -224 -88q-217 0 -217 199q0 24 3 50l74 601h-110q-14 0 -23 10q-7 8 -7 22v6l8 67l153 19l78 304q9 32 42 32h86l-42 -337h643l-117 -958h-171l103 835h-473l-72 -590q-2 -16 -2 -29q0 -42 18 -64q24 -30 57 -30h2q34 0 53.5 8t33.5 16.5t24 16t18 7.5 q12 0 22 -16zM911 1398q74 0 125 -21t82 -56.5t44.5 -82.5t13.5 -100h-124q0 32 -6.5 58.5t-23 46t-43.5 30.5t-68 11q-42 0 -69.5 -11t-44 -30.5t-23 -46t-6.5 -58.5h-124q0 53 13.5 100t45 82.5t82.5 56.5t126 21z" />
<glyph unicode="tt&#x20b;" horiz-adv-x="1753" d="M627 73q-101 -88 -227 -88q-221 0 -221 197q0 25 3 52l73 601h-113q-14 0 -23 10q-7 8 -7 22v6l7 67l158 19l78 304q7 32 42 32h85l-42 -337h444l78 305q6 32 43 32h85l-42 -337h637l-14 -123h-1l-102 -835h-169l101 835h-467l-72 -590q-2 -15 -2 -29q1 -41 19 -63 q24 -30 60 -30t56 7.5t35 16t25.5 16t18.5 7.5q11 0 21 -16l41 -81q-101 -88 -227 -88q-221 0 -221 197q0 25 3 52l73 601h-438l-72 -590q-2 -15 -2 -29q0 -42 19 -64q25 -30 60 -30h1q36 0 55.5 8t34.5 16.5t25.5 16t18.5 7.5q12 0 22 -16zM1519 1398q74 0 125 -21 t82 -56.5t44.5 -82.5t13.5 -100h-124q0 32 -6.5 58.5t-23 46t-43.5 30.5t-68 11q-42 0 -69.5 -11t-44 -30.5t-23 -46t-6.5 -58.5h-124q0 53 13.5 100t45 82.5t82.5 56.5t126 21z" />
<glyph d="M-17 -330q0 7 5 12t12 5q8 0 13 -5t5 -12q0 -8 -5 -13t-13 -5q-7 0 -12 5t-5 13z" />
<glyph unicode="&#xd;" />
<glyph unicode=" "  horiz-adv-x="463" />
<glyph unicode="&#x09;" horiz-adv-x="463" />
<glyph unicode="&#xa0;" horiz-adv-x="463" />
<glyph unicode="!" horiz-adv-x="611" d="M556 1383l-68 -552q-5 -44 -11.5 -85t-14.5 -83t-17.5 -86t-21.5 -94h-110q1 50 2.5 94t3 86t5 83t8.5 85l68 552h156zM205 107q3 25 14.5 47.5t29 39.5t39.5 26.5t47 9.5q23 0 42.5 -9.5t33 -26.5t19.5 -39.5t3 -47.5q-3 -26 -14.5 -48t-29 -38.5t-39.5 -25.5t-45 -9 q-24 0 -44 9t-33.5 25.5t-19.5 38.5t-3 48z" />
<glyph unicode="&#x22;" horiz-adv-x="821" d="M476 1383l-35 -280l-34 -149q-7 -31 -21 -48.5t-43 -17.5q-24 0 -35.5 17t-10.5 49l3 149l34 280h142zM839 1383l-35 -280l-34 -149q-7 -31 -21 -48.5t-43 -17.5q-24 0 -35.5 17t-10.5 49l3 149l34 280h142z" />
<glyph unicode="#" horiz-adv-x="946" d="M710 408l-118 -408h-73q-24 0 -37 21.5t-3 53.5l97 333h-191l-97 -341q-11 -36 -33.5 -51.5t-49.5 -15.5h-73l118 408h-113q-25 0 -34 16t1 56l15 56h163l88 312h-185l21 73q8 29 26 42.5t53 13.5h117l100 344q8 29 30 45.5t49 16.5h73l-117 -406h191l118 406h72 q26 0 39.5 -18t5.5 -47l-100 -341h172l-21 -74q-8 -29 -26.5 -42t-53.5 -13h-103l-89 -312h138q25 0 34.5 -16t-1.5 -56l-14 -56h-189zM416 536h191l90 312h-192z" />
<glyph unicode="$" horiz-adv-x="960" d="M407 -18q-93 11 -166 51t-119 102l43 59q11 15 23 22.5t29 7.5q12 0 28.5 -14t41 -32t60 -35.5t86.5 -24.5l69 361q-52 15 -102 35t-88 55t-58 85q-13 35 -13 81q0 22 3 46q7 55 34.5 108.5t74.5 96.5t114 71t152 33l39 204h94l-40 -207q77 -11 137.5 -43t98.5 -80 l-45 -65q-9 -12 -17.5 -19.5t-21.5 -7.5q-11 0 -25.5 10.5t-34.5 24.5t-48.5 28t-68.5 20l-64 -340q53 -17 104 -37q51 -22 91 -54t60 -82q14 -34 14 -80q0 -20 -3 -42q-8 -68 -40 -127t-83.5 -104.5t-118 -74t-145.5 -34.5l-39 -208h-95zM743 295q1 9 1 18q0 23 -8 41 q-10 24 -30.5 42t-50 31.5t-63.5 24.5l-64 -335q50 4 88 19.5t65 39t42.5 54t19.5 65.5zM398 795q-1 -10 -1 -19q-1 -20 5 -36q8 -24 27.5 -41t46 -30.5t57.5 -24.5l60 313q-48 -5 -83 -19.5t-59 -36.5t-36.5 -49t-16.5 -57z" />
<glyph unicode="%" horiz-adv-x="1358" d="M740 1049q-10 -81 -40 -144.5t-73.5 -108t-96.5 -67.5t-108 -23q-59 0 -106.5 23t-79.5 67t-44 108q-7 36 -7 78q0 32 4 67q10 83 39 148t71 109.5t95.5 67.5t112.5 23t107 -23q48 -24 79 -68q33 -44 45 -109q6 -32 6 -68v-10q0 -33 -4 -70zM613 1049q4 35 4 65 q-1 24 -3 43q-6 44 -22.5 72t-42.5 40.5t-56 12.5q-31 0 -59.5 -12.5t-52 -40.5t-40 -72t-24.5 -108q-5 -35 -5 -65q0 -22 3 -40q6 -44 23 -71t42.5 -39t55.5 -12q31 0 60 12t52 39t40 70.5t25 105.5zM1339 327q-10 -81 -40 -145t-74 -108.5t-97 -67.5t-107 -23 q-59 0 -107 23t-79.5 67.5t-44.5 108.5q-7 36 -7 78q0 32 4 67q10 83 38.5 147.5t71.5 109t96.5 68t111.5 23.5q59 0 107 -23.5t79 -67.5q31 -46 45 -110q7 -33 7 -71v-9q0 -32 -4 -67zM1212 327q4 35 4 64q0 23 -2 43q-6 44 -23.5 72t-43 40.5t-56.5 12.5t-59 -12.5 t-51.5 -40t-40.5 -72t-25 -107.5q-4 -35 -4 -64q1 -23 3 -43q6 -44 22.5 -70.5t42 -38.5t56.5 -12t59 12t52 39t41 70.5t25 106.5zM293 52q-21 -31 -43.5 -41.5t-49.5 -10.5h-69l1080 1323q19 29 42 44.5t55 15.5h71z" />
<glyph unicode="&#x26;" horiz-adv-x="1297" d="M780 1399q73 0 130.5 -24.5t96 -65.5t57.5 -95q16 -44 16 -91q0 -10 -1 -20l-104 -22q-4 -1 -9 -1q-10 0 -18 5q-12 7 -14 26q-4 25 -15 52t-31.5 49t-51 36.5t-73.5 14.5q-46 0 -85 -15.5t-68.5 -43t-48.5 -64.5t-24 -80q-2 -17 -2 -46q0 -36 17 -80q23 -59 85 -134 l331 -405q44 66 73.5 137t45.5 143q8 40 43 40h99q-15 -112 -60.5 -219.5t-117.5 -201.5l241 -294h-158q-27 0 -42.5 7t-32.5 28l-117 141q-97 -88 -217 -139.5t-256 -51.5q-73 0 -141 26t-118 75.5t-75 121.5q-17 50 -17 108q0 26 3 53q8 67 37.5 127.5t73.5 111.5 t102.5 92t123.5 69q-47 74 -66 145q-11 42 -11 87q0 33 3 58q9 70 41 132t84 108.5t120.5 73t150.5 26.5zM514 127q103 0 190.5 39.5t157.5 105.5l-339 409q-105 -54 -164 -130.5t-70 -167.5q-3 -20 -3 -39q0 -38 12 -70q16 -48 48.5 -80.5t76.5 -49.5t91 -17z" />
<glyph unicode="'" horiz-adv-x="414" d="M448 1383l-35 -280l-34 -149q-7 -31 -21 -48.5t-43 -17.5q-24 0 -35.5 17t-10.5 49l3 149l34 280h142z" />
<glyph unicode="(" horiz-adv-x="572" d="M353 607q-12 -105 -13 -204q0 -99 13 -197q26 -197 96 -371q6 -16 6 -28q0 -9 -4 -17q-9 -16 -24 -26l-79 -48q-53 111 -86.5 220.5t-49.5 219.5q-16 106 -16 215v7q0 112 15 229q14 117 41.5 229t70 222t103 219t141.5 220l67 -47q13 -10 18 -26q1 -4 1 -8 q0 -17 -14 -38q-115 -176 -188 -370q-75 -200 -98 -401z" />
<glyph unicode=")" horiz-adv-x="572" d="M368 607q13 104 13 205q-1 100 -13 196q-24 194 -96 370q-6 14 -6 24v2q0 11 4 20t10.5 15t14.5 11l78 48q53 -112 87 -221t49.5 -219t15.5 -222q-1 -112 -15 -229t-41 -229.5t-70 -222t-103.5 -219t-140.5 -220.5l-67 48q-7 4 -12 10q-4 8 -6 16q-1 3 -1 6q-1 6 1 13 q2 11 13 26q115 176 187.5 370.5t97.5 401.5z" />
<glyph unicode="*" horiz-adv-x="939" d="M530 832l23 189q2 18 6.5 34.5t13.5 31.5q-11 -14 -24 -23.5t-29 -18.5l-165 -96l-31 74l165 96q17 10 33 15.5t32 7.5q-29 3 -59 24l-142 98l49 74l142 -97q29 -20 45 -51q-8 23 -8 49q0 12 2 25l24 190h81l-24 -189q-2 -20 -6.5 -36.5t-12.5 -32.5q22 25 55 45l165 96 l30 -74l-165 -96q-17 -10 -32 -16.5t-31 -8.5q16 -2 29.5 -7.5t28.5 -15.5l141 -97l-48 -74l-143 97q-15 10 -26 20.5t-19 24.5q6 -23 6 -47q0 -11 -1 -21l-24 -190h-81z" />
<glyph unicode="+" horiz-adv-x="946" d="M677 1126l-51 -412h365l-17 -133h-364l-51 -413h-134l51 413h-363l17 133h362l51 412h134z" />
<glyph unicode="," horiz-adv-x="469" d="M142 120q3 22 13.5 42t26 35t36.5 24t46 9q28 0 48 -11q18 -11 30 -29t16 -44q2 -13 2 -26.5t-2 -28.5q-5 -43 -22.5 -90t-45 -93t-64.5 -89.5t-82 -80.5l-25 28q-9 10 -9 23v5q1 12 17 26q10 10 26 28t33 41t32.5 51t25.5 60h-11q-47 0 -72 34q-20 27 -20 67q0 9 1 19z " />
<glyph unicode="-" horiz-adv-x="580" d="M148 653h445l-18 -149h-445z" />
<glyph unicode="." horiz-adv-x="517" d="M308 18.5q-38 -34.5 -87 -34.5q-50 0 -86 36t-36 74q0 62 36 100t86 38q51 0 78 -27q47 -47 47 -99.5t-38 -87z" />
<glyph unicode="/" horiz-adv-x="736" d="M146 -20q-17 -34 -44.5 -50.5t-54.5 -16.5h-69l779 1445q31 64 93 64h69z" />
<glyph unicode="0" horiz-adv-x="963" d="M996 657q-21 -172 -70 -298.5t-118 -209t-153.5 -123t-175.5 -40.5t-165 40.5t-122 123t-66 208.5q-8 58 -8 127q0 79 11 172q21 172 70 298.5t117.5 209.5t152.5 123.5t175 40.5t165.5 -40.5t123 -123.5t66.5 -209q8 -58 8 -127q0 -79 -11 -172zM834 657q12 98 12 176 q0 41 -4 75q-10 102 -40 164t-76 89t-99 27q-54 0 -106.5 -27t-97.5 -89t-80 -163.5t-53 -251.5q-12 -98 -12 -176q0 -41 4 -75q10 -102 39.5 -164t75 -88.5t99.5 -26.5t106.5 26.5t98 88.5t80.5 163.5t53 251.5z" />
<glyph unicode="1" horiz-adv-x="959" d="M249 128h254l109 887q5 39 13 81l-232 -196q-25 -20 -45 -13.5t-26 19.5l-41 73l398 339h127l-147 -1190h233l-16 -128h-642z" />
<glyph unicode="2" horiz-adv-x="1038" d="M304 131q84 22 149 22h425q25 1 39 -15q12 -14 12 -35v-6l-12 -97h-856l7 55q5 40 38 69l461 424q146 135 193 204q86 126 86 243q0 143 -121 183q-36 12 -82 12q-92 0 -164 -54t-104 -143q-18 -50 -68 -50q-8 0 -18 1l-85 14q47 178 172.5 274t285.5 96t256 -85.5 t96 -235.5q0 -207 -201 -402q-60 -58 -126 -119z" />
<glyph unicode="3" horiz-adv-x="1038" d="M836 417q0 198 -300 198l13 117q171 3 253 73t82 202t-120 171q-37 12 -83 12q-93 0 -165 -54.5t-104 -142.5q-19 -51 -66 -51q-9 0 -19 2l-83 14q47 180 171.5 275t284 95t252.5 -82t93 -215q0 -267 -264 -342q218 -62 218 -262.5t-140 -320.5q-139 -120 -335 -120h-3 q-274 0 -356 206q-25 62 -38 135l74 29q25 9 43 9q33 0 44 -31q9 -25 22 -60.5t39 -69.5q62 -81 192 -81t212.5 89t82.5 205z" />
<glyph unicode="4" horiz-adv-x="1038" d="M841 473h193l-10 -92q-5 -35 -40 -35h-159l-42 -346h-141l43 346h-568q-38 0 -43 37l-8 82l727 849h152zM769 1019q5 49 18 105l-545 -651h459z" />
<glyph unicode="5" horiz-adv-x="1038" d="M547 705q-80 0 -194 -34l-98 30l179 613h607l-8 -71q-11 -78 -104 -78h-400l-101 -347q101 22 189 22q170 0 266 -97q96 -96 96 -229q0 -245 -153 -388q-151 -141 -361 -141l-1 1q-211 0 -348 137l57 69q20 23 42 23h3q20 0 39 -13q115 -77 207 -78q163 0 257 99 q93 98 93 250q0 232 -267 232z" />
<glyph unicode="6" horiz-adv-x="962" d="M511 866q-17 -21 -32.5 -40.5t-30.5 -38.5q44 29 94 45t106 16q71 0 132 -27t103 -79.5t61 -129.5q12 -47 12 -103q0 -35 -5 -73q-12 -95 -52 -177.5t-102 -143.5t-142 -95.5t-172 -34.5h-5q-89 0 -157 33q-71 34 -115 96q-44 60 -62 148q-10 50 -10 108q0 42 6 88 q11 91 58.5 193t136.5 220l357 470q14 18 38.5 30t54.5 12h145zM294 427q-4 -31 -4 -60q0 -33 5 -61q9 -54 35 -93t68 -61t100 -22q57 0 106 22.5t87 61.5t62.5 92.5t32.5 116.5q3 29 3 55q0 36 -6 67q-11 54 -38.5 91.5t-70 57.5t-97.5 20q-57 0 -106 -23.5t-86 -63 t-60.5 -91.5t-30.5 -109z" />
<glyph unicode="7" horiz-adv-x="1038" d="M1176 1314l-8 -73q-5 -39 -30 -83l-666 -1101q-33 -57 -96 -57h-115l672 1086q28 45 60 79h-668q-15 -1 -25 11q-8 10 -8 23v5l13 110h871z" />
<glyph unicode="8" horiz-adv-x="962" d="M479 -15q-90 0 -161.5 27.5t-118.5 79t-68 124.5q-14 48 -14 103q0 29 4 60q16 134 86 220t188 122q-90 40 -128 121q-28 59 -28 135q0 28 4 58q9 76 43.5 142.5t88.5 116t125 77.5t153 28t146 -28t105.5 -77.5t59.5 -115.5q12 -45 13 -94q0 -24 -3 -49 q-14 -112 -72.5 -193t-158.5 -121q111 -36 159 -122q36 -65 36 -156q0 -30 -4 -64q-11 -90 -50 -163t-98.5 -124.5t-138 -79t-168.5 -27.5zM496 124q56 0 102.5 19t81.5 53t56.5 81.5t28.5 104.5q4 29 4 55q0 37 -8 66q-13 50 -41 82t-69.5 47t-90.5 15t-94 -15t-81 -47 t-61 -82t-34 -121q-3 -23 -3 -45q0 -31 6 -59q10 -48 36.5 -82t68 -53t98.5 -19zM578 787q56 0 98 20.5t70 54.5t45 78.5t22 91.5q3 21 3 40q0 26 -5 50q-8 42 -29.5 73.5t-58 50t-87.5 18.5t-92 -18.5t-70.5 -50t-47.5 -73.5t-24 -90q-3 -24 -3 -46q0 -24 3 -46 q6 -44 26 -78t57 -54.5t93 -20.5z" />
<glyph unicode="9" horiz-adv-x="1038" d="M814 622q-109 -83 -248.5 -83t-230 88.5t-90.5 239.5q0 194 138.5 327.5t323 133.5t281.5 -102q98 -102 98 -272q0 -169 -118 -338q-38 -54 -86 -115l-369 -463q-29 -38 -87 -38h-148l454 524q46 52 82 98zM870 1130q-62 64 -178.5 64t-199.5 -87t-83 -206t58.5 -178 t145 -59t142.5 24.5t96 65.5q82 84 82 198t-63 178z" />
<glyph unicode=":" horiz-adv-x="548" d="M323 18.5q-38 -34.5 -87 -34.5q-50 0 -86 36t-36 74q0 62 36 100t86 38q51 0 78 -27q47 -47 47 -99.5t-38 -87zM400 696.5q-38 -34.5 -87 -34.5q-50 0 -86 36t-36 74q0 62 36 100t86 38q51 0 78 -27q47 -47 47 -99.5t-38 -87z" />
<glyph unicode=";" horiz-adv-x="548" d="M157 120q3 22 13.5 42t26 35t36.5 24t46 9q28 0 48 -11q18 -11 30 -29t16 -44q2 -13 2 -26.5t-2 -28.5q-5 -43 -22.5 -90t-45 -93t-64.5 -89.5t-82 -80.5l-25 28q-9 10 -9 23v5q1 12 17 26q10 10 26 28t33 41t32.5 51t25.5 60h-11q-47 0 -72 34q-20 27 -20 67q0 9 1 19z M406 696.5q-38 -34.5 -87 -34.5q-50 0 -86 36t-36 74q0 62 36 100t86 38q51 0 78 -27q47 -47 47 -99.5t-38 -87z" />
<glyph unicode="&#x3c;" horiz-adv-x="943" d="M169 685l742 388l-15 -125q-2 -16 -10.5 -28.5t-28.5 -22.5l-425 -217q-38 -19 -85 -31q44 -10 78 -30l372 -218q16 -10 21.5 -22.5t3.5 -28.5l-15 -125l-647 388z" />
<glyph unicode="=" horiz-adv-x="944" d="M154 554h772l-16 -132h-773zM193 879h773l-16 -133h-773z" />
<glyph unicode="&#x3e;" horiz-adv-x="943" d="M934 613l-742 -388l16 125q4 33 38 51l425 218q37 19 85 30q-45 12 -78 31l-370 218q-16 10 -22.5 22t-4.5 28l15 125l647 -388z" />
<glyph unicode="?" horiz-adv-x="877" d="M267 1260q31 28 68 53t79.5 44t90 30.5t101.5 11.5q72 0 130 -22t97.5 -63t57.5 -99q12 -39 12 -84q0 -22 -3 -46q-9 -74 -36 -127t-62.5 -93t-76 -69.5t-76 -55.5t-61 -51.5t-33.5 -57.5l-35 -148h-112l8 160q0 7 1 14q7 38 24 62q26 35 58 61q34 29 74 56.5t76.5 61 t63 76t33.5 101.5q2 14 2 26q0 26 -8 49q-10 33 -34 56.5t-57.5 36t-73.5 12.5q-55 0 -95.5 -14t-69.5 -31.5t-47.5 -31.5t-29.5 -14q-22 0 -33 22zM285 107q3 25 14.5 47.5t29 39.5t39.5 26.5t47 9.5q23 0 43 -10q18 -10 32 -26q14 -18 20 -40q4 -15 4 -31q0 -8 -1 -16 q-3 -26 -14.5 -48t-29 -38.5t-39.5 -25.5t-45 -9q-24 0 -44 9t-33.5 25.5t-19.5 38.5q-4 15 -4 31q0 8 1 17z" />
<glyph unicode="@" horiz-adv-x="1694" d="M1179 179q-69 0 -109 36t-44 111q-62 -77 -126.5 -110.5t-134.5 -33.5q-53 0 -90.5 20t-59.5 55q-21 35 -29 83q-4 25 -4 53q0 25 3 52q7 55 27 111t52 108t76 97.5t99 79t120.5 53t140.5 19.5q60 0 104.5 -10t83.5 -30l-126 -348q-26 -71 -32 -116v-3q-2 -17 -2 -31 q0 -24 6 -40q10 -26 32 -35.5t50 -9.5q43 0 86 27t78.5 76.5t61.5 118t36 152.5q6 49 6 94q0 76 -17 139q-27 100 -88 166.5t-151.5 100t-200.5 33.5q-120 0 -230.5 -49t-199.5 -136t-148 -205.5t-76 -257.5q-8 -62 -8 -119q1 -92 21 -169q32 -124 104.5 -207.5t179 -126 t234.5 -42.5q137 0 245.5 31.5t189.5 80.5q14 8 25 8q4 0 8 -1q13 -5 18 -22l15 -65q-104 -68 -232.5 -108t-282.5 -40q-156 0 -283.5 53t-213 153.5t-123.5 245.5q-24 92 -25 200q0 62 8 128q13 105 49.5 202.5t91.5 182.5t127 154.5t155.5 119.5t176 77.5t189.5 27.5 q125 0 233.5 -43.5t186.5 -126.5t116 -204q24 -77 24 -168v-7q0 -48 -6 -100q-13 -104 -51 -193t-94.5 -154t-126 -101.5t-145.5 -36.5zM812 297q27 0 56.5 9.5t58 33.5t56 65t49.5 103l103 284q-32 9 -74 9q-66 0 -125.5 -30t-106.5 -79.5t-77.5 -113t-38.5 -129.5 q-2 -17 -2 -33q0 -48 18 -78q23 -41 80 -41h3z" />
<glyph unicode="A" horiz-adv-x="1101" d="M1095 0h-131q-22 0 -34 12t-17 30l-66 316h-504l-142 -315q-8 -17 -24.5 -30t-38.5 -13h-131l620 1314h172zM402 488h418l-108 529q-6 24 -11.5 56t-8.5 69q-14 -38 -27.5 -70t-24.5 -56z" />
<glyph unicode="B" horiz-adv-x="1031" d="M131 0l161 1314h373q108 0 183 -23.5t119 -68.5q41 -41 59 -108q10 -37 10 -83q0 -29 -4 -60q-6 -49 -25 -93q-19 -45 -50.5 -83t-76 -69t-102.5 -50q124 -26 179 -102q43 -59 43 -148q0 -24 -3 -51q-10 -84 -45.5 -153t-93.5 -118.5t-137 -76.5t-177 -27h-413zM374 598 l-56 -454h241q64 0 112 17.5t81.5 48.5t52 74.5t25.5 94.5q2 19 2 36q0 76 -42 124q-52 59 -175 59h-241zM389 726h198q62 0 110.5 16.5t82.5 45.5t54.5 70t26.5 91q3 25 3 46q0 81 -40 123q-51 53 -172 53h-4h-204z" />
<glyph unicode="C" horiz-adv-x="1013" d="M920 274q13 0 22 -12l58 -78q-78 -94 -181 -146t-238 -52q-119 0 -209 49t-148 137t-80 212q-11 66 -11 139q0 64 9 134q18 149 72 272.5t136 212.5t186.5 138t223.5 49q118 0 202 -45t142 -122l-66 -84q-7 -9 -16 -15t-22 -6q-16 0 -33 18t-45 39.5t-71 39.5t-111 18 q-80 0 -151 -35t-127 -101.5t-94.5 -162t-52.5 -216.5q-7 -59 -7 -112q0 -56 8 -106q16 -96 56 -162t101.5 -101t136.5 -35q46 0 84 7t71 21.5t63 37t61 53.5q17 14 31 14z" />
<glyph unicode="D" horiz-adv-x="1167" d="M1186 657q-18 -148 -73 -269t-139 -207.5t-192.5 -133.5t-232.5 -47h-423l162 1314h422q125 0 222 -47.5t159 -133.5q61 -85 87 -207q15 -71 15 -152q0 -56 -7 -117zM1013 657q7 59 7 112q0 55 -8 103q-16 94 -58 160t-108.5 100.5t-153.5 34.5h-252l-125 -1020h252 q87 0 162 34.5t133.5 100t97 160.5t53.5 215z" />
<glyph unicode="E" horiz-adv-x="925" d="M1008 1314l-19 -148h-544l-53 -431h438l-17 -143h-438l-55 -444h545l-19 -148h-714l161 1314h715z" />
<glyph unicode="F" horiz-adv-x="871" d="M979 1314l-18 -148h-522l-56 -455h444l-18 -148h-444l-69 -563h-170l161 1314h692z" />
<glyph unicode="G" horiz-adv-x="1197" d="M1178 633l-62 -506q-98 -71 -203 -106t-223 -35q-142 0 -251 49t-179 137t-99 212q-18 75 -18 159q0 55 8 114q18 150 75.5 273.5t147 212t207 137.5t256.5 49q71 0 129.5 -11.5t107 -33t88 -52.5t71.5 -69l-57 -82q-15 -20 -33 -25q-5 -1 -10 -1q-14 0 -29 10 q-20 13 -43.5 31.5t-56.5 35t-80 28.5t-113 12q-97 0 -180 -36t-146.5 -103t-105 -162.5t-55.5 -213.5q-7 -54 -7 -104q0 -63 11 -117q19 -98 69 -165t127.5 -102.5t178.5 -35.5q78 0 142 19.5t127 54.5l36 288h-176q-17 0 -26 10q-7 8 -7 20v5l13 103h366z" />
<glyph unicode="H" horiz-adv-x="1181" d="M1054 0h-171l74 596h-586l-73 -596h-171l162 1314h170l-72 -585h586l72 585h170z" />
<glyph unicode="I" horiz-adv-x="473" d="M321 0h-169l161 1314h170z" />
<glyph unicode="J" horiz-adv-x="604" d="M556 455q-14 -110 -45 -197t-79.5 -147.5t-113 -92.5t-143.5 -32q-36 0 -70.5 5.5t-72.5 18.5q5 28 11 55t12 53q4 15 14 25t27 10q12 0 30.5 -7.5t49.5 -7.5q84 0 137 74t73 239l106 863h169z" />
<glyph unicode="K" horiz-adv-x="986" d="M373 740h48q27 0 46 9t34 29l376 494q20 23 39 32.5t46 9.5h145l-441 -564q-35 -43 -70 -61q41 -16 70 -65l307 -624h-149q-31 0 -44 10.5t-24 27.5l-259 520q-12 23 -28.5 32.5t-50.5 9.5h-62l-74 -600h-169l161 1314h169z" />
<glyph unicode="L" horiz-adv-x="797" d="M314 153h471l-19 -153h-640l161 1314h169z" />
<glyph unicode="M" horiz-adv-x="1621" d="M832 479q9 -22 16 -47q12 -45 13 -49q13 26 26 50q12 25 26 46l530 805q14 21 27.5 25.5t35.5 4.5h125l-161 -1314h-150l118 959q2 20 6.5 44.5t9.5 49.5l-537 -824q-26 -41 -67 -41h-24q-39 0 -56 41l-346 823q-1 -50 -5 -93l-118 -959h-149l161 1314h125q22 0 34 -4 q12 -5 22 -27z" />
<glyph unicode="N" horiz-adv-x="1223" d="M384 1314q23 0 32 -5q11 -6 22 -26l544 -983q1 24 2.5 47.5t3.5 43.5l113 923h149l-161 -1314h-86q-20 0 -32 7q-15 9 -23 25l-544 980q-1 -23 -2.5 -44t-4.5 -40l-114 -928h-148l161 1314h88z" />
<glyph unicode="O" horiz-adv-x="1258" d="M1273 657q-18 -148 -73.5 -271t-140.5 -212t-194.5 -138.5t-236.5 -49.5q-126 0 -223.5 49.5t-161 138.5t-89.5 212q-15 73 -15 154q0 56 7 117q18 147 74 270.5t141.5 213t196 139t235.5 49.5q126 0 224 -49.5t161 -139.5q63 -88 88 -212q15 -72 15 -152q0 -57 -8 -119z M1100 657q7 59 7 112v12q0 48 -7 91q-16 96 -58.5 162.5t-110.5 102t-157 35.5t-165.5 -35.5t-136 -102t-98.5 -162t-54 -215.5q-7 -58 -7 -110q0 -55 8 -105q16 -96 59 -162.5t110.5 -101.5t157.5 -35q89 0 165.5 35t135 101.5t97.5 162t54 215.5z" />
<glyph unicode="P" horiz-adv-x="979" d="M363 490l-60 -490h-169l161 1314h351q112 0 190.5 -29t126 -82t64.5 -129q10 -46 10 -98q0 -34 -4 -70q-11 -92 -49 -168t-100 -131.5t-147.5 -86t-191.5 -30.5h-182zM381 634h181q65 0 118 20t91 56t61.5 86t30.5 110q3 26 3 50q0 91 -45 146q-56 69 -189 69h-4h-181z " />
<glyph unicode="Q" horiz-adv-x="1280" d="M1283 657q-21 -174 -93 -311.5t-181 -227.5l268 -389h-140q-31 0 -54 10t-40 33l-177 260q-107 -46 -228 -46q-126 0 -223.5 49.5t-161 138.5t-89.5 212q-15 73 -15 154q0 56 7 117q18 147 74 270.5t141.5 213t196 139t235.5 49.5q126 0 224 -49.5t161 -139.5 q63 -88 88 -212q15 -74 15 -152q0 -57 -8 -119zM1110 657q7 60 7 124q0 48 -7 91q-16 96 -58.5 162.5t-110.5 102t-157 35.5t-165.5 -35.5t-136 -102t-98.5 -162t-54 -215.5q-7 -58 -7 -110q0 -55 8 -105q16 -96 59 -162.5t110.5 -101.5t157.5 -35q89 0 165.5 35t135 101.5 t97.5 162t54 215.5z" />
<glyph unicode="R" horiz-adv-x="1030" d="M370 546l-67 -546h-169l161 1314h335q112 0 190 -25.5t124.5 -73t63.5 -115.5q11 -42 11 -91q0 -29 -4 -60q-8 -69 -35 -129t-68.5 -108t-98 -82.5t-124.5 -52.5q14 -11 26.5 -24.5t23.5 -32.5l264 -520h-150q-44 0 -64 37l-231 468q-11 22 -26.5 31.5t-47.5 9.5h-114z M386 679h159q67 0 120 18.5t91.5 52.5t62 81.5t30.5 104.5q3 23 3 44q0 191 -240 191h-165z" />
<glyph unicode="S" horiz-adv-x="872" d="M876 1107q-17 -28 -42 -28q-14 0 -31 15.5t-42 34t-62 34t-90 15.5q-51 0 -92 -15.5t-70 -43t-46.5 -64t-22.5 -78.5q-2 -15 -2 -28q0 -37 14 -63q20 -36 55.5 -61.5t82.5 -44.5t95.5 -39t95 -45.5t80 -64t50.5 -94.5q11 -35 11 -80q0 -27 -4 -57q-11 -87 -46 -162.5 t-91.5 -131.5t-133 -88t-169.5 -32q-113 0 -201.5 46.5t-145.5 125.5l60 86q8 11 18.5 17.5t23.5 6.5q18 0 37.5 -20.5t49 -45t73 -45t107.5 -20.5q54 0 98 17t77 48t53.5 74.5t27.5 96.5q2 16 2 30q0 39 -14 67q-19 38 -54.5 63.5t-82.5 43t-96 36.5t-95 43.5t-80 64.5 t-50 99q-10 35 -10 81q0 31 4 66q8 69 40.5 134.5t84.5 116t123.5 81t158.5 30.5q98 0 175 -35t128 -102z" />
<glyph unicode="T" horiz-adv-x="927" d="M1067 1314l-19 -152h-356l-143 -1162h-170l143 1162h-357l18 152h884z" />
<glyph unicode="U" horiz-adv-x="1216" d="M626 144q73 0 134.5 27.5t107.5 77t75.5 117.5t39.5 150l98 798h169l-98 -798q-14 -114 -59 -211t-116 -168t-165 -111.5t-206 -40.5t-195.5 40.5t-137 111.5t-75.5 168q-13 59 -13 124q0 42 6 87l98 798h169l-98 -797q-4 -36 -4 -70q0 -43 6 -81q12 -68 46.5 -117.5 t89.5 -77t128 -27.5z" />
<glyph unicode="V" horiz-adv-x="1080" d="M167 1314h137q22 0 34.5 -12t16.5 -30l189 -921q7 -31 13.5 -67.5t9.5 -76.5q12 40 26.5 76.5t29.5 67.5l415 920q8 17 24 30t38 13h136l-620 -1314h-152z" />
<glyph unicode="W" horiz-adv-x="1693" d="M172 1314h143q21 0 35 -11.5t16 -30.5l126 -907q7 -48 10 -112q9 31 19.5 59.5t20.5 53.5l384 905q7 17 24 30t39 13h49q22 0 35 -11.5t17 -30.5l161 -907q4 -24 7.5 -51.5t4.5 -57.5q9 30 18.5 58t18.5 51l348 906q7 17 24.5 30t38.5 13h133l-532 -1314h-153l-172 996 q-3 14 -5 30.5t-5 35.5q-6 -19 -12 -35.5t-12 -30.5l-418 -996h-153z" />
<glyph unicode="X" horiz-adv-x="988" d="M461 674l-275 640h169q19 0 26 -7t13 -18l206 -512q9 17 19 30l306 479q9 13 18.5 20.5t22.5 7.5h162l-432 -630l282 -684h-168q-19 0 -28 11t-15 23l-210 536q-6 -15 -14 -25l-327 -511q-9 -13 -20.5 -23.5t-27.5 -10.5h-158z" />
<glyph unicode="Y" horiz-adv-x="928" d="M613 525l-64 -525h-170l65 523l-283 791h149q21 0 33.5 -11.5t19.5 -30.5l147 -507q12 -31 20.5 -58.5t14.5 -54.5q13 27 28 54.5t34 57.5l270 508q9 15 24.5 28.5t37.5 13.5h150z" />
<glyph unicode="Z" horiz-adv-x="889" d="M1007 1314l-9 -67q-4 -32 -25 -60l-699 -1039h577l-18 -148h-782l9 71q2 15 8 28t15 25l699 1042h-556l18 148h763z" />
<glyph unicode="[" horiz-adv-x="578" d="M111 -279l216 1759h333l-8 -68q-2 -20 -16 -33.5t-34 -13.5h-152l-188 -1529h152q20 0 30.5 -13.5t8.5 -33.5l-9 -68h-333z" />
<glyph unicode="\" horiz-adv-x="735" d="M159 1422h70q30 0 50 -16.5t29 -47.5l415 -1445h-67q-27 0 -50.5 16.5t-31.5 50.5z" />
<glyph unicode="]" horiz-adv-x="578" d="M282 1480h333l-216 -1759h-333l8 68q2 20 16.5 33.5t35.5 13.5h150l188 1529h-151q-20 0 -31 13.5t-9 33.5z" />
<glyph unicode="^" horiz-adv-x="945" d="M959 671h-119q-16 0 -26 9t-15 23l-151 427q-18 48 -26 94q-10 -23 -21 -45.5t-26 -47.5l-247 -427q-8 -14 -20.5 -23.5t-31.5 -9.5h-124l436 712h105z" />
<glyph unicode="_" horiz-adv-x="948" d="M929 -158l-14 -117h-949l15 117h948z" />
<glyph unicode="`" horiz-adv-x="550" d="M450 1399q30 0 43.5 -10.5t22.5 -32.5l105 -233h-93q-19 0 -30.5 6t-22.5 21l-179 249h154z" />
<glyph unicode="a" horiz-adv-x="1053" d="M717 268q-167 -282 -389 -282q-130 0 -205 91t-75 261t90 322q137 232 394 306q85 24 206 24q1 0 3 1q119 0 222 -45l-115 -946h-92q-57 0 -57 51v9zM780 856q-37 8 -113 8t-160 -41t-147 -109q-136 -148 -136 -347q0 -235 169 -235q153 0 279 237q38 72 68 158z" />
<glyph unicode="b" horiz-adv-x="1053" d="M505 -14q-166 0 -256 128l-15 -63q-5 -26 -17.5 -38.5t-42.5 -12.5h-93l172 1422h172l-85 -693q167 263 381 263q129 0 202 -92t73 -267q0 -246 -140 -443q-90 -126 -217 -178q-64 -26 -134 -26zM277 216q69 -94 211 -94t238 156t96 339q0 115 -43 175t-132 60t-185 -108 t-154 -279z" />
<glyph unicode="c" horiz-adv-x="852" d="M806 176q-142 -155 -286 -181q-50 -9 -121.5 -9t-137.5 29.5t-111 82.5q-92 108 -92 290q0 243 145 423.5t364 180.5q179 0 283 -135l-55 -66q-14 -18 -31 -18q-16 0 -30 12q-74 66 -157 66q-150 0 -246.5 -134t-96.5 -326.5t122 -248.5q40 -18 100 -18t104.5 19t75 42 t52 42t41 19t33.5 -17z" />
<glyph unicode="d" horiz-adv-x="1053" d="M543 992q152 0 242 -109l67 539h172l-175 -1422h-92q-57 0 -57 51v9l18 208q-120 -202 -281 -262q-54 -20 -110 -20q-129 0 -202 92t-73 268q0 248 140 442q92 126 218 178q64 26 133 26zM770 762q-69 95 -201 95h-3q-99 0 -180 -77q-113 -105 -149 -301 q-11 -59 -11 -116q0 -115 43.5 -176t131.5 -61t184 109t155 279z" />
<glyph unicode="e" horiz-adv-x="978" d="M230 395q0 -271 260 -271q147 0 286 107q26 20 48 20t37 -17l44 -53q-111 -104 -187 -138q-128 -57 -240 -57q-206 0 -312 110q-107 111 -107 298q0 235 152 416t395 181h3q151 0 232 -70t81 -145.5t-29 -128.5q-92 -169 -662 -219q-1 -8 -1 -16v-17zM765 756 q-1 71 -89 100q-32 10 -88 10q-124 0 -216 -91t-125 -231q471 50 511 171q7 21 7 41z" />
<glyph unicode="f" horiz-adv-x="625" d="M373 833l-97 -801l-49 -198q-16 -74 -87 -74h-70l131 1071l-105 14q-38 4 -38 37v7l7 71h151l12 93q20 165 124.5 258t258.5 93q61 0 116 -19l-16 -91q-3 -17 -21 -18q-7 -1 -80 -1q-81 0 -141 -54.5t-74 -172.5l-12 -88h266l-16 -127h-260z" />
<glyph unicode="g" horiz-adv-x="1053" d="M627 385q-83 -52 -202 -52t-200 75.5t-81 219t109 254t298 110.5q111 0 194 -49h284l-7 -58q-5 -39 -39 -45l-132 -23q20 -49 20 -103.5t-11.5 -92.5t-29 -71t-38 -61.5t-50.5 -75.5t-30 -89.5t10 -66t26 -46.5t34 -46.5t44.5 -66.5t26.5 -109q0 -139 -133 -239 q-134 -100 -330 -101h-5q-192 0 -301 67t-109 180q0 114 101 188q134 98 386 98q74 0 146 -10q-22 40 -22 92.5t41 120.5zM349.5 488q46.5 -46 115.5 -46q119 0 182 78t64 172q-1 92 -47 136t-116 44q-122 0 -183.5 -74t-61.5 -169t46.5 -141zM362 -228q235 0 309 126 q22 38 22 79t-19 86q-112 17 -166 17t-114 -3t-126 -26q-127 -45 -127 -136q0 -70 64 -106.5t157 -36.5z" />
<glyph unicode="h" horiz-adv-x="1053" d="M80 0l171 1422h175l-80 -663q78 115 174 174t178 59t131 -24q127 -63 127 -262q0 -39 -6 -83l-73 -623h-175l73 623q5 37 5 85q0 140 -128 140q-92 0 -186 -92t-149 -239l-62 -517h-175z" />
<glyph unicode="i" horiz-adv-x="470" d="M381 978l-118 -978h-173l118 978h173zM408.5 1198.5q-37.5 -37.5 -84.5 -37.5q-46 0 -82 37.5t-36 85.5q0 50 26 78q46 47 93 47t74 -27q47 -47 47 -96.5t-37.5 -87z" />
<glyph unicode="j" horiz-adv-x="490" d="M390 978l-129 -1049q-15 -123 -93.5 -201.5t-210.5 -78.5q-65 0 -111 19l19 94q5 19 19 19h49q74 0 109.5 35t45.5 113l130 1049h172zM318 1409q92 0 126 -77q10 -23 10 -48q0 -50 -38 -86t-85 -37q-48 0 -85 37t-37 87q1 49 27 77q46 47 82 47z" />
<glyph unicode="k" horiz-adv-x="931" d="M422 1422l-103 -836h30q35 0 60 27l321 331q32 34 68 34h155l-374 -384q-32 -34 -61 -51q25 -17 51 -60l288 -483h-150q-40 0 -60 33l-245 401q-12 20 -24.5 26.5t-39.5 6.5h-33l-57 -467h-173l174 1422h173z" />
<glyph unicode="l" horiz-adv-x="470" d="M88 0l171 1422h173l-172 -1422h-172z" />
<glyph unicode="m" horiz-adv-x="1620" d="M902 725q150 267 381.5 267t231.5 -275q0 -44 -6 -94l-74 -623h-173l74 623q6 47 6 69q0 67 -14 100q-25 55 -103 55q-145 -1 -257 -185q-36 -60 -65 -139l-61 -523h-173l73 623q7 53 7 75q0 64 -13 94q-23 55 -101 55q-151 0 -263 -201q-36 -64 -65 -145l-59 -501h-171 l117 979h86q59 0 59 -52v-7l-13 -182q154 254 368 254q208 0 208 -267z" />
<glyph unicode="n" horiz-adv-x="1053" d="M779 694q0 153 -129 153q-98 -1 -197 -100t-151 -254l-55 -493h-175l117 979h87q58 0 58 -52v-7l-13 -192q80 131 182.5 197.5t221.5 66.5t181 -96q48 -74 48 -191q0 -38 -5 -82l-73 -623h-175l73 623q5 39 5 71z" />
<glyph unicode="o" horiz-adv-x="1051" d="M467 123h2q149 0 245 135q95 134 95 319q0 141 -61 210q-60 69 -156 69q-169 0 -264.5 -135t-95.5 -321q0 -137 60.5 -207t174.5 -70zM662.5 33.5q-97.5 -47.5 -197.5 -47.5q-192 0 -300.5 110.5t-108.5 302.5q0 247 153.5 420t378.5 174q178 -1 288 -111 q109 -109 109 -298v-4v-2q0 -243 -153 -416q-72 -81 -169.5 -128.5z" />
<glyph unicode="p" horiz-adv-x="1053" d="M503 -14q-155 0 -247 111l-52 -427h-171l159 1309h88q58 0 58 -52v-7l-16 -211q124 204 286 263q55 20 112 20q134 0 207 -91.5t73 -268.5q0 -246 -142 -442q-92 -127 -220 -178q-64 -26 -135 -26zM270 217q72 -95 216 -95t242 155.5t98 338.5q0 116 -44.5 176t-135 60 t-189.5 -109.5t-157 -280.5z" />
<glyph unicode="q" horiz-adv-x="1053" d="M703 245q-157 -259 -379 -259q-126 0 -201 91t-75 261t90 322q137 232 394 306q85 24 206 24q1 0 3 1q119 0 222 -45l-157 -1276h-110q-36 0 -48 22q-9 17 -10 38q0 6 1 13zM781 856q-46 8 -118 8t-156 -41t-147 -109q-136 -148 -136 -347q0 -235 169 -235 q101 0 193.5 108.5t152.5 283.5z" />
<glyph unicode="r" horiz-adv-x="702" d="M320 699q137 287 317 287q41 0 83 -17l-31 -169q-48 19 -108 19t-122 -55q-99 -87 -162 -317l-53 -447h-172l118 979h87q58 0 58 -52v-7z" />
<glyph unicode="s" horiz-adv-x="797" d="M734 820q-16 -22 -33.5 -22t-34 11t-62.5 34t-108 23q-2 0 -3 1q-103 0 -162 -45t-59 -108q0 -82 138 -144q39 -18 80 -36q103 -44 160.5 -89t57.5 -117q0 -145 -111 -243.5t-294 -98.5q-1 0 -2 -1q-182 0 -289 119l42 66q17 27 39.5 27t38.5 -14.5t42 -30.5 q65 -44 136 -44h2q122 1 181 51.5t59 112.5t-32 93q-48 47 -186 96q-56 21 -104 47q-112 61 -113 167q1 129 104.5 223t275 94t280.5 -109z" />
<glyph unicode="t" horiz-adv-x="686" d="M605 73q-101 -88 -235 -88q-97 0 -153 52t-56 155q0 48 14 154l60 486h-113q-14 0 -23 10q-7 8 -7 22v7l8 70l156 21l74 300q11 33 41 33h93l-41 -335h266l-15 -128h-267l-59 -477q-15 -117 -15 -132q0 -95 90 -95q50 0 106 39q10 7 20.5 7t17.5 -17z" />
<glyph unicode="u" horiz-adv-x="1053" d="M270 289q0 -157 129 -157q95 0 192 93.5t152 247.5l60 505h175l-118 -978h-87q-62 0 -62 55v8l13 179q-80 -127 -181 -191.5t-220 -64.5t-181 97q-47 72 -47 186q0 43 5 87l73 622h175l-74 -622q-4 -37 -4 -67z" />
<glyph unicode="v" horiz-adv-x="913" d="M72 978h142q38 0 46 -36l137 -625q15 -68 19 -143q23 73 55 141l292 627q19 36 53 36h137l-486 -978h-147z" />
<glyph unicode="w" horiz-adv-x="1464" d="M76 978h130q42 0 49 -37l101 -623q8 -57 13 -131q13 37 51 130l286 629q15 34 49 34h73q39 0 44 -33l123 -629q16 -93 20 -131q20 70 44 129l265 626q14 36 50 36h127l-430 -978h-133q-24 0 -30 33l-135 659q-6 31 -9 63q-10 -32 -24 -64l-303 -658q-14 -33 -40 -33h-127 z" />
<glyph unicode="x" horiz-adv-x="887" d="M338 526l-225 452h157q32 0 43 -24l155 -333q12 24 24 39l208 291q19 27 42 27h158l-341 -452l250 -526h-157q-32 0 -47 34l-174 388q-8 -20 -21 -37l-252 -352q-24 -33 -52 -33h-153z" />
<glyph unicode="y" horiz-adv-x="916" d="M952 978l-443 -930l-90 -192q-12 -25 -15 -32q-74 -138 -219 -138q-69 0 -89 15.5t-17 46.5l7 63h39q77 7 109 35.5t111 181.5l15 30l-247 920h141q37 0 46 -36l147 -612q14 -59 18 -84q6 17 36 86l269 610q6 14 21 25t30 11h131zM307 -290z" />
<glyph unicode="z" horiz-adv-x="809" d="M803 904q-6 -36 -31 -68l-544 -699h465l-17 -137h-673l8 73q5 31 31 63l545 705h-456l18 137h663z" />
<glyph unicode="{" horiz-adv-x="595" d="M239 409q2 14 2 27q-1 44 -21 74q-26 38 -85 38l13 105q60 0 95.5 38.5t42.5 99.5q5 42 5 83v14q-1 48 -4 94.5t-4 94.5v14q0 41 5 84q8 67 33.5 123t68 96.5t101 63t132.5 22.5h48l-9 -78q-2 -20 -16.5 -28.5t-24.5 -8.5h-18q-70 0 -115 -48.5t-56 -131.5q-7 -50 -7 -97 q1 -3 1 -7q0 -50 2 -98q2 -49 2 -95q0 -4 1 -7q0 -43 -6 -87q-4 -36 -18 -67.5t-35 -57t-48.5 -43t-56.5 -26.5q28 -9 50.5 -26.5t36.5 -43.5q16 -25 22 -56q4 -21 4 -40q0 -13 -2 -27q-6 -48 -18.5 -95t-25.5 -95t-26 -98t-19 -104q-2 -19 -2 -36v-4q0 -54 25 -91 q34 -48 103 -48h18q10 0 22 -8q10 -7 10 -24v-5l-10 -78h-48q-74 0 -127 22.5t-85.5 63t-44.5 96.5q-6 29 -6 61v9q0 26 3 53q6 50 19 98t27.5 95t27 94.5t18.5 95.5z" />
<glyph unicode="|" horiz-adv-x="860" d="M548 1480h128l-223 -1817h-128z" />
<glyph unicode="}" horiz-adv-x="595" d="M457 409q-5 -41 -5 -82v-13q1 -48 4 -95t4 -95v-14q0 -41 -5 -84q-8 -67 -33.5 -123t-68 -96.5t-101 -63t-132.5 -22.5h-49l10 78q2 20 16 28.5t25 8.5h17q70 0 115.5 48.5t55.5 130.5q7 50 7 97q-1 3 -1 7q0 50 -1.5 98t-2.5 95v13q0 40 5 82q4 36 18.5 67t35.5 56.5 t48 43t58 26.5q-29 9 -51.5 26.5t-37.5 43.5q-16 24 -22 56q-4 18 -3 38q0 15 2 30q6 48 18 94.5t25.5 94.5t26 98t19.5 104q2 19 2 36q0 57 -26 95q-34 48 -103 49h-18q-10 1 -22 9q-10 7 -10 20q0 4 1 8l9 78h49q74 0 127 -22q53 -24 85 -64t44 -96q7 -33 7 -70 q0 -26 -3 -53q-6 -50 -19 -98t-27 -95t-27 -94.5t-19 -96.5q-2 -13 -2 -25q0 -44 20 -74q26 -38 86 -39l-13 -105q-60 0 -95 -38.5t-43 -100.5z" />
<glyph unicode="~" horiz-adv-x="946" d="M707 593q59 0 95.5 40.5t46.5 108.5h132q-8 -65 -31.5 -119.5t-59.5 -93.5t-84 -60.5t-107 -21.5q-47 0 -91 16t-84 34.5t-76 34.5t-69 16q-59 0 -95.5 -40.5t-46.5 -108.5h-132q8 65 31.5 119t59.5 93t84 60.5t107 21.5q47 0 91 -15.5t84 -34.5t76 -34.5t69 -15.5z" />
<glyph unicode="&#xa1;" horiz-adv-x="611" d="M190 -330l64 521q5 43 12 84.5t15.5 83.5t18 86t20.5 94h110q-1 -50 -2 -94t-3 -86t-6 -83.5t-9 -84.5l-64 -521h-156zM299 872q3 26 14.5 48t29 38.5t39.5 25.5t46 9q23 0 43 -9t33.5 -25.5t19.5 -38.5t3 -48t-14.5 -48t-29 -39t-39.5 -26.5t-46 -9.5t-43.5 9.5 t-33 26.5t-19.5 39t-3 48z" />
<glyph unicode="&#xa2;" horiz-adv-x="944" d="M450 -10q-73 10 -131 48.5t-96 102.5q-37 63 -53 151q-8 48 -9 102q0 45 6 95q13 106 51.5 196.5t98 157t140.5 105.5t179 43l33 172q4 19 17.5 33t32.5 14h61l-41 -225q65 -12 114 -42.5t88 -76.5l-49 -62q-9 -10 -16.5 -15t-20.5 -5q-10 0 -22 8t-28 18.5t-38 22 t-53 18.5l-136 -730q50 4 85 19.5t59.5 31.5t42 29t31.5 13q10 0 18 -4.5t11 -11.5l38 -61q-61 -69 -141 -105t-169 -44l-30 -167q-4 -19 -18 -33.5t-34 -14.5h-60zM329 489q-6 -49 -6 -92q1 -89 27 -151q40 -91 127 -117l134 727q-59 -6 -107 -34t-83.5 -75t-58.5 -112 t-33 -146z" />
<glyph unicode="&#xa3;" horiz-adv-x="962" d="M127 513q3 25 20 43t44 18h80l14 113q10 82 38.5 155.5t77 129t119 88.5t164.5 33q115 0 184 -61t96 -167l-52 -40q-9 -7 -19.5 -12.5t-22.5 -5.5t-21 10.5t-18 26.5t-19.5 34t-28 34t-43 26.5t-62.5 10.5q-106 0 -164 -69t-73 -192l-14 -114h366l-8 -66 q-2 -18 -17.5 -32.5t-36.5 -14.5h-318l-14 -120q-16 -134 -110 -215q29 7 58 11t59 4h506l-18 -141h-823l14 110q58 14 100 59t52 127l20 165h-137z" />
<glyph unicode="&#xa4;" horiz-adv-x="945" d="M232 649q7 54 27 103t51 91l-118 147l93 89l118 -146q43 29 91.5 45.5t100.5 16.5q50 0 94 -16t80 -44l155 147l71 -89l-154 -147q22 -42 31 -92q5 -28 5 -58q0 -23 -3 -47q-7 -55 -27 -104t-53 -91l119 -146l-93 -89l-118 146q-43 -29 -91.5 -45t-100.5 -16 q-50 0 -94 15t-79 43l-155 -147l-72 90l155 146q-22 42 -31 92q-5 28 -5 58q0 24 3 48zM353 649q-2 -14 -2 -27q0 -29 8 -56q11 -39 34.5 -68.5t57.5 -46.5t75 -17q42 0 81 17t70 46.5t51.5 68.5t25.5 83q2 16 2 31q0 28 -7 54q-11 40 -35 68.5t-58.5 45.5t-76.5 17 q-41 0 -79.5 -17t-69 -46t-51 -68.5t-26.5 -84.5z" />
<glyph unicode="&#xa5;" horiz-adv-x="963" d="M195 506h241l-258 568h126q25 0 41.5 -17t24.5 -36l150 -365q14 -35 22 -62t13 -53q9 27 23 54t36 61l237 364q14 20 39 37t55 17h112l-396 -568h241l-12 -98h-279l-12 -93h279l-12 -97h-279l-26 -218h-148l27 218h-280l12 97h280l11 93h-280z" />
<glyph unicode="&#xa6;" horiz-adv-x="930" d="M583 1480h128l-94 -767h-128zM455 437h128l-94 -767h-128z" />
<glyph unicode="&#xa7;" horiz-adv-x="944" d="M918 1220q-14 -22 -37 -22q-14 0 -30 11t-40.5 23.5t-59 23.5t-84.5 11q-46 0 -84 -11.5t-65.5 -31.5t-44 -46.5t-20.5 -56.5q-1 -6 -1 -12q0 -29 16 -51q20 -28 54.5 -51t80 -43.5t92.5 -43t92 -48.5t78 -60.5t51 -78.5q12 -31 12 -71q0 -16 -2 -32q-10 -79 -54 -141 t-127 -98q42 -35 65 -83q17 -35 17 -80q0 -16 -2 -33q-8 -68 -39 -125.5t-81.5 -100t-120.5 -66.5t-157 -24q-100 0 -176 33.5t-126 86.5l46 66q17 26 47 26q17 0 34 -13.5t42.5 -29.5t63.5 -29.5t99 -13.5q97 0 154.5 44.5t66.5 116.5q1 9 1 17q1 31 -15 57 q-20 32 -55.5 56.5t-83 45t-96.5 41.5t-95 46q-41 22 -80 59q-37 35 -54 78q-12 30 -12 65v6q0 17 2 36q9 76 57 136t140 95q-41 36 -65 86q-17 37 -17 85q0 18 2 38q7 57 36 108.5t77 90.5t113.5 62t146.5 23q93 0 164 -30t118 -84zM338 700q-1 -8 -1 -16q-1 -24 9 -42 q12 -26 36 -47.5t56.5 -39.5t70 -35.5t76.5 -35t77 -37.5q56 25 82.5 61.5t32.5 81.5q1 10 1 19q0 41 -22 69q-26 36 -71.5 63.5t-102 51.5t-109.5 53q-67 -29 -98 -64.5t-37 -81.5z" />
<glyph unicode="&#xa8;" horiz-adv-x="743" d="M799 1244q-3 -23 -14 -43t-27 -35t-36 -23.5t-41 -8.5t-38.5 8.5t-30 23.5t-17.5 35t-3 43q3 23 13.5 43t26.5 35t35.5 24t40.5 9q20 0 38.5 -9t31 -24t18.5 -35t3 -43zM455 1244q-3 -23 -14 -43t-27 -35t-36 -23.5t-41 -8.5t-38.5 8.5t-30 23.5t-18 35t-2.5 43t13.5 43 t26 35t35.5 24t41 9q20 0 38.5 -9t31 -24t18.5 -35t3 -43z" />
<glyph unicode="&#xa9;" horiz-adv-x="1583" d="M1076 458q3 1 6 1q4 0 6 -2q6 -4 10 -9l48 -63q-59 -63 -137.5 -98.5t-182.5 -35.5q-88 0 -156.5 33t-112.5 92q-45 58 -63 140q-11 49 -11 105q0 36 5 73q12 97 53 178.5t102.5 140t140.5 91t167 32.5q48 0 88.5 -8.5t73.5 -24.5t59.5 -38t49.5 -49l-51 -63 q-6 -7 -13 -12.5t-19 -5.5q-13 0 -25 11t-32.5 23.5t-53.5 23.5t-85 11q-63 0 -116 -21.5t-92.5 -62t-65.5 -97.5t-35 -129q-4 -32 -4 -60q0 -38 7 -72q12 -58 41 -97.5t73.5 -60t98.5 -20.5q46 0 78.5 8t57.5 19t45.5 24t44.5 23zM221 692q12 97 46 187t86.5 168.5 t120.5 143t146.5 110.5t165.5 71.5t177 25.5t171 -25.5t148.5 -71.5t119.5 -110.5t85 -143t45 -168.5q6 -46 7 -94q0 -46 -6 -93q-12 -97 -46.5 -187t-87 -168.5t-120 -143t-146.5 -110.5t-166 -71.5t-177 -25.5t-171 25.5t-148.5 71.5t-119.5 110.5t-85 143t-45 168.5 q-6 45 -6 92t6 95zM313 692q-6 -45 -6 -89v-8q0 -76 19 -145q30 -113 96.5 -196t163 -131t214.5 -48t228 48t197 131t145 196t74 242q6 44 6 86q0 40 -6 80q-10 80 -38.5 148.5t-73 125t-103 96.5t-128.5 62t-149 22t-153.5 -22t-142.5 -62t-126 -96.5t-102.5 -125.5 t-74 -148.5t-40.5 -165.5z" />
<glyph unicode="&#xaa;" horiz-adv-x="759" d="M653 811q-17 0 -24.5 5.5t-12.5 22.5l-6 47q-24 -21 -46 -36.5t-46 -26t-49.5 -16t-56.5 -5.5q-33 0 -61 10t-47.5 29.5t-27.5 48.5q-6 20 -6 44q0 11 1 24q4 33 25 65.5t63.5 58t110 42.5t163.5 19l4 35q2 15 2 28q0 40 -17 62q-22 28 -72 28q-33 0 -57 -8.5t-42 -18 t-32 -18t-29 -8.5q-12 0 -20 7.5t-11 16.5l-17 40q53 48 111 70.5t124 22.5q48 0 83.5 -16.5t58 -46t31.5 -69.5q5 -24 5 -52q0 -18 -2 -38l-45 -367h-55zM460 892q45 0 79.5 18t70.5 51l13 101q-63 -2 -106.5 -10t-71.5 -20.5t-42 -29.5t-16 -37q-1 -8 -1 -14q0 -29 18 -43 q22 -16 56 -16z" />
<glyph unicode="&#xab;" horiz-adv-x="1049" d="M256 500l3 23l270 375l49 -27q20 -11 22 -30.5t-14 -42.5l-172 -252q-14 -22 -30 -35q11 -13 21 -34l110 -252q10 -23 4 -42.5t-29 -30.5l-56 -27zM581 500l3 23l270 375l49 -27q20 -11 22 -30.5t-14 -42.5l-172 -252q-14 -22 -30 -35q11 -13 21 -34l110 -252 q10 -23 4 -42.5t-29 -30.5l-56 -27z" />
<glyph unicode="&#xac;" horiz-adv-x="944" d="M172 714h774l-50 -410h-140l34 277h-634z" />
<glyph unicode="&#xad;" horiz-adv-x="627" d="M148 653h445l-18 -149h-445z" />
<glyph unicode="&#xae;" horiz-adv-x="1582" d="M221 692q12 97 46 187t86.5 168.5t120.5 143t146 110.5t165 71.5t177 25.5t171 -25.5t148.5 -71.5t119.5 -110.5t85 -142.5q34 -78 46 -169q6 -46 6 -94q0 -46 -6 -93q-12 -97 -46.5 -187t-86.5 -168.5t-120 -143t-147 -110.5t-166 -71.5t-177 -25.5t-171 25.5t-148 71.5 t-119 110.5t-85 143t-45 168.5q-6 45 -6 92t6 95zM313 692q-6 -44 -6 -86v-11q0 -34 5 -69q10 -80 38 -148t72.5 -124t102 -96t126.5 -61.5t149 -21.5q118 0 227.5 48t196.5 131t145 196t74 242q6 44 6 86v11q0 34 -5 69q-10 80 -39 148.5t-73.5 125t-103 96.5t-128.5 62 t-149 22t-153.5 -22t-142 -62t-125.5 -96.5t-102.5 -125.5t-74 -148.5t-40.5 -165.5zM738 603l-42 -340h-142l106 861h259q155 0 221 -60q55 -50 55 -140q0 -19 -2 -39q-11 -90 -66 -154t-152 -88q14 -10 24 -24.5t20 -32.5l159 -323h-136q-30 0 -41 25l-142 289 q-7 13 -17 19.5t-33 6.5h-71zM752 715h102q49 0 84.5 10t58.5 29t36 47t17 64q2 16 2 30q0 19 -3 33q-5 26 -21.5 43.5t-47 26t-75.5 8.5h-118z" />
<glyph unicode="&#xaf;" horiz-adv-x="745" d="M274 1301h517l-14 -114h-517z" />
<glyph unicode="&#xb0;" horiz-adv-x="644" d="M162 1088q8 65 37.5 122t74.5 99t101.5 66.5t117.5 24.5t112 -24.5t85.5 -66.5t50.5 -99q11 -38 11 -80q0 -21 -3 -42q-8 -64 -38 -120.5t-74.5 -99t-101.5 -67t-118 -24.5t-112 24.5t-85 66.5q-34 44 -50 100q-11 38 -11 78q0 21 3 42zM278 1087q-2 -14 -2 -28 q0 -25 6 -47q9 -35 30 -60.5t51 -40.5t68 -15q37 0 71.5 15t61.5 40.5t44.5 60.5t22.5 75q2 14 2 28q0 25 -6 47q-9 36 -29.5 62.5t-51 41.5t-68.5 15t-72 -15t-60.5 -41.5t-44.5 -62t-23 -75.5z" />
<glyph unicode="&#xb1;" horiz-adv-x="946" d="M681 1162l-44 -363h364l-16 -132h-365l-43 -354h-134l43 354h-362l16 132h363l44 363h134zM68 210h861l-17 -133h-861z" />
<glyph unicode="&#xb2;" horiz-adv-x="688" d="M522 1580q47 0 83.5 -14.5t60 -41t33.5 -63.5q7 -25 8 -54q0 -14 -2 -28q-5 -39 -20.5 -72t-38 -63t-50.5 -58.5t-58 -57.5l-163 -157q22 6 44 10t41 4h171q19 0 28 -11t7 -30l-9 -76h-460l5 42q2 13 8.5 27t17.5 25l224 211q51 48 88 99.5t43 102.5q1 10 1 19 q0 35 -18 56q-23 26 -63 26t-67.5 -23.5t-45.5 -62.5q-9 -18 -22.5 -25t-36.5 -2l-64 11q13 51 37 90t57.5 64.5t74 38.5t86.5 13z" />
<glyph unicode="&#xb3;" horiz-adv-x="685" d="M526 1580q46 0 82 -14t59 -38q24 -24 34 -58q7 -23 7 -48q0 -12 -2 -24q-15 -123 -126 -167q56 -17 82 -55q20 -30 20 -74q0 -12 -1 -24q-7 -53 -30.5 -94t-58.5 -68.5t-77.5 -41.5t-85.5 -14q-50 0 -86.5 12t-61.5 35.5t-39.5 58.5t-23.5 81l54 23q21 9 38 5t23 -21 l8 -24t16.5 -29.5t30 -24.5t48.5 -10q27 0 49 9.5t38 24.5t25.5 34t11.5 39q3 28 -1.5 49t-20 34.5t-43.5 20t-70 6.5l10 85q77 1 113 29.5t42 78.5q1 10 1 19q0 34 -18 54q-23 25 -65 25t-70 -23t-45 -60q-10 -20 -21 -26.5t-35 -1.5l-60 11q13 51 37.5 90t57 64.5 t71.5 38.5t83 13z" />
<glyph unicode="&#xb4;" horiz-adv-x="552" d="M610 1399l-241 -249q-15 -15 -28 -21t-32 -6h-97l161 233q15 22 31 32.5t46 10.5h160z" />
<glyph unicode="&#xb5;" horiz-adv-x="1126" d="M387 929l-68 -556q-4 -29 -4 -54q1 -66 25 -109q34 -60 115 -60q72 0 130 45t103 125l75 609h156l-82 -671q-2 -18 -2 -38q0 -43 19 -66q26 -32 78 -32h49l-9 -71q-3 -23 -32 -41.5t-77 -18.5q-34 0 -64 11.5t-52.5 35t-37 59.5t-16.5 87q-57 -84 -123 -131t-142 -47 q-58 0 -97.5 21t-64.5 61q0 -38 -3 -77.5t-7 -73.5l-33 -267h-77q-34 0 -49.5 19t-11.5 52l146 1188h156z" />
<glyph unicode="&#xb6;" horiz-adv-x="1114" d="M1256 1383l-18 -149h-179l-175 -1428h-144l175 1428h-217l-176 -1428h-143l102 830q-86 0 -151 30t-106 80q-42 51 -60 120q-11 42 -11 86v8q0 25 3 52q10 83 44.5 151.5t89 117t126 75.5t157.5 27h683z" />
<glyph unicode="&#xb7;" horiz-adv-x="476" d="M173 573q4 31 18 57.5t34.5 46.5t46.5 31.5t54 11.5t51.5 -11.5t39.5 -31.5t23.5 -46.5t3.5 -57.5q-4 -30 -18 -56.5t-34.5 -46t-47 -31t-54.5 -11.5t-51 11.5t-39 31t-23.5 46t-3.5 56.5z" />
<glyph unicode="&#xb8;" horiz-adv-x="579" d="M154 -243q6 0 12.5 -3.5t16 -7.5t22.5 -7.5t33 -3.5q37 0 58 16t24 41q1 5 1 9q0 31 -32 43q-36 14 -104 24l68 157h93l-38 -97q82 -18 114 -52q27 -29 27 -70q0 -8 -1 -16q-4 -31 -21.5 -56t-45 -42t-65 -26.5t-80.5 -9.5q-36 0 -68.5 8t-58.5 22l22 54q8 17 23 17z" />
<glyph unicode="&#xb9;" horiz-adv-x="504" d="M216 953h132l51 420l9 42l-105 -83q-9 -7 -17 -8.5t-15 0t-12.5 5t-7.5 8.5l-30 54l223 184h99l-76 -622h115l-10 -84h-366z" />
<glyph unicode="&#xba;" horiz-adv-x="799" d="M572 1399q63 0 111.5 -21t80.5 -60q28 -34 44 -94q9 -34 9 -71q-1 -28 -4 -53q-8 -70 -35 -125q-27 -56 -68 -95t-95 -60t-117 -21t-112 21t-80.5 60t-44.5 95q-8 35 -8 74q0 25 3 51q8 68 35 124t68 94.5t95.5 59.5t117.5 21zM511 903q75 0 119 50q44 51 55 146 q3 22 3 49v5q0 57 -22 92q-32 50 -107 50q-77 0 -120 -50q-45 -52 -55 -146q-3 -27 -3 -50v-5q0 -56 22 -91q31 -50 108 -50z" />
<glyph unicode="&#xbb;" horiz-adv-x="1049" d="M580 523l-3 -23l-270 -375l-50 27q-20 11 -21.5 30.5t13.5 42.5l173 251q16 24 29 35q-11 12 -20 35l-110 252q-10 23 -4 42.5t29 30.5l56 27zM905 523l-3 -23l-270 -375l-50 27q-20 11 -21.5 30.5t13.5 42.5l173 251q16 24 29 35q-11 12 -20 35l-110 252q-10 23 -4 42.5 t29 30.5l56 27z" />
<glyph unicode="&#xbc;" horiz-adv-x="1303" d="M277 52q-21 -31 -43.5 -41.5t-49.5 -10.5h-70l1081 1323q19 29 42 44.5t54 15.5h72zM1158 258h96l-8 -64q-1 -10 -8 -17.5t-18 -7.5h-73l-21 -169h-100l21 169h-272q-17 0 -25.5 7.5t-8.5 19.5l-4 56l362 452h113zM1086 488q2 18 6 39.5t10 44.5l-252 -314h208zM185 766 h132l51 420l9 42l-105 -83q-9 -7 -17 -8.5t-15 0t-12.5 5t-7.5 8.5l-30 54l223 184h99l-76 -622h115l-10 -84h-366z" />
<glyph unicode="&#xbd;" horiz-adv-x="1375" d="M268 52q-21 -31 -43.5 -41.5t-49.5 -10.5h-70l1081 1323q19 29 42 44.5t54 15.5h72zM1112 712q47 0 83.5 -14.5t60 -41t33.5 -63.5q7 -25 8 -54q0 -14 -2 -28q-5 -39 -20.5 -72t-38 -63t-50.5 -58.5t-58 -57.5l-163 -157q22 6 44 10t41 4h171q19 0 28 -11t7 -30l-9 -76 h-460l5 42q2 13 8.5 27t17.5 25l224 211q51 48 88 99.5t43 102.5q1 10 1 19q0 35 -18 56q-23 26 -63 26t-67.5 -23.5t-45.5 -62.5q-9 -18 -22.5 -25t-36.5 -2l-64 11q13 51 37 90t57.5 64.5t74 38.5t86.5 13zM182 766h132l51 420l9 42l-105 -83q-9 -7 -17 -8.5t-15 0 t-12.5 5t-7.5 8.5l-30 54l223 184h99l-76 -622h115l-10 -84h-366z" />
<glyph unicode="&#xbe;" horiz-adv-x="1383" d="M337 52q-21 -31 -43.5 -41.5t-49.5 -10.5h-70l1081 1323q19 29 42 44.5t54 15.5h72zM1229 258h96l-8 -64q-1 -10 -8 -17.5t-18 -7.5h-73l-21 -169h-100l21 169h-272q-17 0 -25.5 7.5t-8.5 19.5l-4 56l362 452h113zM1157 488q2 18 6 39.5t10 44.5l-252 -314h208zM503 1393 q46 0 82 -14t59 -38q24 -24 34 -58q7 -23 7 -48q0 -12 -2 -24q-15 -123 -126 -167q56 -17 82 -55q20 -30 20 -74q0 -12 -1 -24q-7 -53 -30.5 -94t-58.5 -68.5t-77.5 -41.5t-85.5 -14q-50 0 -86.5 12t-61.5 35.5t-39.5 58.5t-23.5 81l54 23q21 9 38 5t23 -21l8 -24 t16.5 -29.5t30 -24.5t48.5 -10q27 0 49 9.5t38 24.5t25.5 34t11.5 39q3 28 -1.5 49t-20 34.5t-43.5 20t-70 6.5l10 85q77 1 113 29.5t42 78.5q1 10 1 19q0 34 -18 54q-23 25 -65 25t-70 -23t-45 -60q-10 -20 -21 -26.5t-35 -1.5l-60 11q13 51 37.5 90t57 64.5t71.5 38.5 t83 13z" />
<glyph unicode="&#xbf;" horiz-adv-x="877" d="M751 -204q-31 -28 -68.5 -53.5t-79.5 -44.5t-90 -30t-102 -11q-72 0 -130 21t-97.5 61t-57.5 97q-12 38 -12 83q0 22 3 46q9 74 35.5 125t62 88t75.5 63t74.5 49t60.5 46.5t33 55.5l35 147h112l-9 -160q-1 -11 -1 -12l-1 -9q0 -26 -24 -56q-23 -32 -56 -57 q-35 -26 -74 -48q-39 -23 -74 -52t-61.5 -68.5t-33.5 -96.5q-2 -13 -2 -25q0 -27 8 -50q11 -33 34.5 -56.5t57 -36t73.5 -12.5q54 0 95 14.5t70 31.5t47.5 31.5t29.5 14.5q22 0 32 -22zM487 870q3 25 15 47.5t29 39.5t39.5 26.5t46.5 9.5q23 0 43 -9.5t33 -26.5t19 -39 q4 -15 4 -32q0 -8 -1 -16q-3 -26 -14.5 -48t-29 -38.5t-39.5 -25.5t-45 -9q-24 0 -44 9t-33.5 25.5t-19.5 38.5q-4 15 -4 31q0 8 1 17z" />
<glyph unicode="&#xc0;" horiz-adv-x="1101" d="M1095 0h-131q-22 0 -34 12t-17 30l-66 316h-504l-142 -315q-8 -17 -24.5 -30t-38.5 -13h-131l620 1314h172zM402 488h418l-108 529q-6 24 -11.5 56t-8.5 69q-14 -38 -27.5 -70t-24.5 -56zM644 1710q31 0 45.5 -5t28.5 -26l168 -265h-122q-38 0 -56 18l-244 278h180z" />
<glyph unicode="&#xc1;" horiz-adv-x="1185" d="M1095 0h-131q-22 0 -34 12t-17 30l-66 316h-504l-142 -315q-8 -17 -24.5 -30t-38.5 -13h-131l620 1314h172zM402 488h418l-108 529q-6 24 -11.5 56t-8.5 69q-14 -38 -27.5 -70t-24.5 -56zM1065 1710l-322 -276q-23 -20 -62 -20h-122l233 265q18 21 34.5 26t46.5 5h192z " />
<glyph unicode="&#xc2;" horiz-adv-x="1101" d="M1095 0h-131q-22 0 -34 12t-17 30l-66 316h-504l-142 -315q-8 -17 -24.5 -30t-38.5 -13h-131l620 1314h172zM402 488h418l-108 529q-6 24 -11.5 56t-8.5 69q-14 -38 -27.5 -70t-24.5 -56zM1009 1415h-123q-37 0 -54 29l-92 153l-128 -153q-26 -29 -61 -29h-119l244 262 h153z" />
<glyph unicode="&#xc3;" horiz-adv-x="1185" d="M1095 0h-131q-22 0 -34 12t-17 30l-66 316h-504l-142 -315q-8 -17 -24.5 -30t-38.5 -13h-131l620 1314h172zM402 488h418l-108 529q-6 24 -11.5 56t-8.5 69q-14 -38 -27.5 -70t-24.5 -56zM824 1543q22 -16 44 -16q40 0 66 30t30 67h103q-17 -139 -118 -193 q-32 -18 -71 -18h-2q-40 0 -70.5 16.5t-55.5 35.5t-47.5 35t-44.5 16q-39 0 -64.5 -30.5t-29.5 -67.5h-106q11 86 64 148t119 62l1 -1q67 0 135 -50q25 -18 47 -34z" />
<glyph unicode="&#xc4;" horiz-adv-x="1185" d="M1095 0h-131q-22 0 -34 12t-17 30l-66 316h-504l-142 -315q-8 -17 -24.5 -30t-38.5 -13h-131l620 1314h172zM402 488h418l-108 529q-6 24 -11.5 56t-8.5 69q-14 -38 -27.5 -70t-24.5 -56zM564 1610q27 -28 27 -60q0 -57 -37.5 -92.5t-80 -35.5t-68.5 28.5t-26 60.5 q0 57 35 93t78 36h1q44 0 71 -30zM968 1610q27 -28 27 -60q0 -57 -37.5 -92.5t-80 -35.5t-68.5 28.5t-26 60.5q0 57 35 93t78 36h1q44 0 71 -30z" />
<glyph unicode="&#xc5;" horiz-adv-x="1185" d="M1095 0h-131q-22 0 -34 12t-17 30l-66 316h-504l-142 -315q-8 -17 -24.5 -30t-38.5 -13h-131l620 1314h172zM402 488h418l-108 529q-6 24 -11.5 56t-8.5 69q-14 -38 -27.5 -70t-24.5 -56zM594 1482q-12 27 -12 65q0 78 58 131.5t134 53.5q103 0 142 -91q13 -30 13 -61 q0 -37 -18 -75q-16 -36 -43 -60q-56 -51 -132 -51h-3q-100 0 -139 88zM843 1569q0 90 -81 90q-41 0 -69 -32q-27 -31 -27 -71v-3q1 -89 79 -89h2q40 0 68 31.5t28 73.5z" />
<glyph unicode="&#xc6;" horiz-adv-x="1352" d="M839 1314h753l-35 -148h-532l-59 -431h393l-34 -143h-380l-62 -444h433l-35 -148h-565l48 358h-393l-199 -316q-13 -19 -31 -30.5t-39 -11.5h-119zM453 488h329l95 685q-19 -37 -37.5 -68.5t-36.5 -59.5z" />
<glyph unicode="&#xc7;" horiz-adv-x="1013" d="M439 -243q6 0 12.5 -3.5t16.5 -7.5t23 -7.5t32 -3.5q37 0 58 16t25 41q1 4 1 9q-1 31 -33 43q-36 14 -103 24l52 122q-105 12 -184.5 65t-128.5 141q-50 88 -68 204q-9 59 -9 125q0 63 9 132q18 149 72 272.5t136 212.5t186.5 138t223.5 49q118 0 202 -45t142 -122 l-66 -84q-7 -9 -16 -15t-22 -6q-16 0 -33 18t-45 39.5t-71 39.5t-111 18q-80 0 -151 -35t-127 -101.5t-94.5 -162t-52.5 -216.5q-7 -59 -7 -112q0 -56 8 -106q16 -96 56 -162t101.5 -101t136.5 -35q46 0 84 7t71 21.5t63 37t61 53.5q17 14 31 14q13 0 22 -12l58 -78 q-73 -88 -167 -139t-217 -58l-23 -59q81 -18 114 -52q28 -29 28 -70q0 -8 -1 -16q-4 -31 -21.5 -56t-45 -42t-65 -26.5t-80.5 -9.5q-36 0 -68.5 8t-59.5 22l23 54q7 17 22 17z" />
<glyph unicode="&#xc8;" horiz-adv-x="1000" d="M1008 1314l-19 -148h-544l-53 -431h438l-17 -143h-438l-55 -444h545l-19 -148h-714l161 1314h715zM592 1710q31 0 45.5 -5t28.5 -26l168 -265h-122q-38 0 -56 18l-244 278h180z" />
<glyph unicode="&#xc9;" horiz-adv-x="1000" d="M1008 1314l-19 -148h-544l-53 -431h438l-17 -143h-438l-55 -444h545l-19 -148h-714l161 1314h715zM992 1710l-322 -276q-23 -20 -62 -20h-122l233 265q18 21 34.5 26t46.5 5h192z" />
<glyph unicode="&#xca;" horiz-adv-x="1000" d="M1008 1314l-19 -148h-544l-53 -431h438l-17 -143h-438l-55 -444h545l-19 -148h-714l161 1314h715zM957 1414h-123q-37 0 -54 29l-92 153l-128 -153q-26 -29 -61 -29h-119l244 262h153z" />
<glyph unicode="&#xcb;" horiz-adv-x="1000" d="M1008 1314l-19 -148h-544l-53 -431h438l-17 -143h-438l-55 -444h545l-19 -148h-714l161 1314h715zM524 1610q27 -28 27 -60q0 -57 -37.5 -92.5t-80 -35.5t-68.5 28.5t-26 60.5q0 57 35 93t78 36h1q44 0 71 -30zM928 1610q27 -28 27 -60q0 -57 -37.5 -92.5t-80 -35.5 t-68.5 28.5t-26 60.5q0 57 35 93t78 36h1q44 0 71 -30z" />
<glyph unicode="&#xcc;" horiz-adv-x="516" d="M321 0h-169l161 1314h170zM333 1710q31 0 45.5 -5t28.5 -26l168 -265h-122q-38 0 -56 18l-244 278h180z" />
<glyph unicode="&#xcd;" horiz-adv-x="516" d="M321 0h-169l161 1314h170zM737 1710l-322 -276q-23 -20 -62 -20h-122l233 265q18 21 34.5 26t46.5 5h192z" />
<glyph unicode="&#xce;" horiz-adv-x="516" d="M321 0h-169l161 1314h170zM695 1415h-123q-37 0 -54 29l-92 153l-128 -153q-26 -29 -61 -29h-119l244 262h153z" />
<glyph unicode="&#xcf;" horiz-adv-x="516" d="M321 0h-169l161 1314h170zM263 1610q27 -28 27 -60q0 -57 -37.5 -92.5t-80 -35.5t-68.5 28.5t-26 60.5q0 57 35 93t78 36h1q44 0 71 -30zM667 1610q27 -28 27 -60q0 -57 -37.5 -92.5t-80 -35.5t-68.5 28.5t-26 60.5q0 57 35 93t78 36h1q44 0 71 -30z" />
<glyph unicode="&#xd0;" horiz-adv-x="1279" d="M126 716h143l74 598h408q121 0 214 -47.5t154 -133.5q61 -85 85 -207q14 -69 14 -148q0 -58 -8 -121q-18 -148 -72 -269t-136 -207.5t-186.5 -133.5t-225.5 -47h-409l75 610h-143zM1036 657q8 62 8 117q0 52 -7 98q-14 94 -53.5 160t-103 100.5t-147.5 34.5h-237 l-56 -451h210l-13 -106h-210l-56 -463h237q84 0 156 34.5t127.5 100t92.5 160.5t52 215z" />
<glyph unicode="&#xd1;" horiz-adv-x="1322" d="M384 1314q23 0 32 -5q11 -6 22 -26l544 -983q1 24 2.5 47.5t3.5 43.5l113 923h149l-161 -1314h-86q-20 0 -32 7q-15 9 -23 25l-544 980q-1 -23 -2.5 -44t-4.5 -40l-114 -928h-148l161 1314h88zM879 1543q22 -16 44 -16q40 0 66 30t30 67h103q-17 -139 -118 -193 q-32 -18 -71 -18h-2q-40 0 -70.5 16.5t-55.5 35.5t-47.5 35t-44.5 16q-39 0 -64.5 -30.5t-29.5 -67.5h-106q11 86 64 148t119 62l1 -1q67 0 135 -50q25 -18 47 -34z" />
<glyph unicode="&#xd2;" horiz-adv-x="1356" d="M1273 657q-18 -148 -73.5 -271t-140.5 -212t-194.5 -138.5t-236.5 -49.5q-126 0 -223.5 49.5t-161 138.5t-89.5 212q-15 73 -15 154q0 56 7 117q18 147 74 270.5t141.5 213t196 139t235.5 49.5q126 0 224 -49.5t161 -139.5q63 -88 88 -212q15 -72 15 -152q0 -57 -8 -119z M1100 657q7 59 7 112v12q0 48 -7 91q-16 96 -58.5 162.5t-110.5 102t-157 35.5t-165.5 -35.5t-136 -102t-98.5 -162t-54 -215.5q-7 -58 -7 -110q0 -55 8 -105q16 -96 59 -162.5t110.5 -101.5t157.5 -35q89 0 165.5 35t135 101.5t97.5 162t54 215.5zM751 1710q31 0 45.5 -5 t28.5 -26l168 -265h-122q-38 0 -56 18l-244 278h180z" />
<glyph unicode="&#xd3;" horiz-adv-x="1356" d="M1273 657q-18 -148 -73.5 -271t-140.5 -212t-194.5 -138.5t-236.5 -49.5q-126 0 -223.5 49.5t-161 138.5t-89.5 212q-15 73 -15 154q0 56 7 117q18 147 74 270.5t141.5 213t196 139t235.5 49.5q126 0 224 -49.5t161 -139.5q63 -88 88 -212q15 -72 15 -152q0 -57 -8 -119z M1100 657q7 59 7 112v12q0 48 -7 91q-16 96 -58.5 162.5t-110.5 102t-157 35.5t-165.5 -35.5t-136 -102t-98.5 -162t-54 -215.5q-7 -58 -7 -110q0 -55 8 -105q16 -96 59 -162.5t110.5 -101.5t157.5 -35q89 0 165.5 35t135 101.5t97.5 162t54 215.5zM1130 1710l-322 -276 q-23 -20 -62 -20h-122l233 265q18 21 34.5 26t46.5 5h192z" />
<glyph unicode="&#xd4;" horiz-adv-x="1356" d="M1273 657q-18 -148 -73.5 -271t-140.5 -212t-194.5 -138.5t-236.5 -49.5q-126 0 -223.5 49.5t-161 138.5t-89.5 212q-15 73 -15 154q0 56 7 117q18 147 74 270.5t141.5 213t196 139t235.5 49.5q126 0 224 -49.5t161 -139.5q63 -88 88 -212q15 -72 15 -152q0 -57 -8 -119z M1100 657q7 59 7 112v12q0 48 -7 91q-16 96 -58.5 162.5t-110.5 102t-157 35.5t-165.5 -35.5t-136 -102t-98.5 -162t-54 -215.5q-7 -58 -7 -110q0 -55 8 -105q16 -96 59 -162.5t110.5 -101.5t157.5 -35q89 0 165.5 35t135 101.5t97.5 162t54 215.5zM1129 1415h-123 q-37 0 -54 29l-92 153l-128 -153q-26 -29 -61 -29h-119l244 262h153z" />
<glyph unicode="&#xd5;" horiz-adv-x="1356" d="M1273 657q-18 -148 -73.5 -271t-140.5 -212t-194.5 -138.5t-236.5 -49.5q-126 0 -223.5 49.5t-161 138.5t-89.5 212q-15 73 -15 154q0 56 7 117q18 147 74 270.5t141.5 213t196 139t235.5 49.5q126 0 224 -49.5t161 -139.5q63 -88 88 -212q15 -72 15 -152q0 -57 -8 -119z M1100 657q7 59 7 112v12q0 48 -7 91q-16 96 -58.5 162.5t-110.5 102t-157 35.5t-165.5 -35.5t-136 -102t-98.5 -162t-54 -215.5q-7 -58 -7 -110q0 -55 8 -105q16 -96 59 -162.5t110.5 -101.5t157.5 -35q89 0 165.5 35t135 101.5t97.5 162t54 215.5zM939 1543q22 -16 44 -16 q40 0 66 30t30 67h103q-17 -139 -118 -193q-32 -18 -71 -18h-2q-40 0 -70.5 16.5t-55.5 35.5t-47.5 35t-44.5 16q-39 0 -64.5 -30.5t-29.5 -67.5h-106q11 86 64 148t119 62l1 -1q67 0 135 -50q25 -18 47 -34z" />
<glyph unicode="&#xd6;" horiz-adv-x="1356" d="M1273 657q-18 -148 -73.5 -271t-140.5 -212t-194.5 -138.5t-236.5 -49.5q-126 0 -223.5 49.5t-161 138.5t-89.5 212q-15 73 -15 154q0 56 7 117q18 147 74 270.5t141.5 213t196 139t235.5 49.5q126 0 224 -49.5t161 -139.5q63 -88 88 -212q15 -72 15 -152q0 -57 -8 -119z M1100 657q7 59 7 112v12q0 48 -7 91q-16 96 -58.5 162.5t-110.5 102t-157 35.5t-165.5 -35.5t-136 -102t-98.5 -162t-54 -215.5q-7 -58 -7 -110q0 -55 8 -105q16 -96 59 -162.5t110.5 -101.5t157.5 -35q89 0 165.5 35t135 101.5t97.5 162t54 215.5zM665 1610q27 -28 27 -60 q0 -57 -37.5 -92.5t-80 -35.5t-68.5 28.5t-26 60.5q0 57 35 93t78 36h1q44 0 71 -30zM1069 1610q27 -28 27 -60q0 -57 -37.5 -92.5t-80 -35.5t-68.5 28.5t-26 60.5q0 57 35 93t78 36h1q44 0 71 -30z" />
<glyph unicode="&#xd7;" horiz-adv-x="945" d="M986 977l-347 -330l275 -341l-99 -93l-275 340l-361 -342l-76 93l361 343l-268 332l98 95l268 -333l348 331z" />
<glyph unicode="&#xd8;" horiz-adv-x="1260" d="M1276 657q-18 -148 -74 -271t-141 -212t-195 -138.5t-237 -49.5q-84 0 -153.5 21.5t-127.5 62.5l-89 -119q-22 -28 -49.5 -39.5t-53.5 -11.5h-67l182 240q-78 90 -111 222q-21 82 -21 176q0 57 8 119q18 147 74 270.5t141.5 213t196 139t235.5 49.5q90 0 165.5 -25.5 t134.5 -73.5l74 97q10 13 18 22t16 14.5t18.5 8t24.5 2.5h88l-165 -218q70 -92 98 -218q17 -76 18 -162q0 -57 -8 -119zM320 657q-7 -59 -7 -112v-12q0 -47 7 -90q16 -94 58 -161l614 813q-42 38 -96 57.5t-121 19.5q-89 0 -166 -35.5t-136 -102t-98.5 -162t-54.5 -215.5z M1102 657q7 58 7 110v13q0 38 -5 74q-12 88 -47 155l-607 -805q81 -61 198 -61q89 0 166 35t136 101.5t98 162t54 215.5z" />
<glyph unicode="&#xd9;" horiz-adv-x="1314" d="M626 144q73 0 134.5 27.5t107.5 77t75.5 117.5t39.5 150l98 798h169l-98 -798q-14 -114 -59 -211t-116 -168t-165 -111.5t-206 -40.5t-195.5 40.5t-137 111.5t-75.5 168q-13 59 -13 124q0 42 6 87l98 798h169l-98 -797q-4 -36 -4 -70q0 -43 6 -81q12 -68 46.5 -117.5 t89.5 -77t128 -27.5zM707 1710q31 0 45.5 -5t28.5 -26l168 -265h-122q-38 0 -56 18l-244 278h180z" />
<glyph unicode="&#xda;" horiz-adv-x="1314" d="M626 144q73 0 134.5 27.5t107.5 77t75.5 117.5t39.5 150l98 798h169l-98 -798q-14 -114 -59 -211t-116 -168t-165 -111.5t-206 -40.5t-195.5 40.5t-137 111.5t-75.5 168q-13 59 -13 124q0 42 6 87l98 798h169l-98 -797q-4 -36 -4 -70q0 -43 6 -81q12 -68 46.5 -117.5 t89.5 -77t128 -27.5zM1086 1710l-322 -276q-23 -20 -62 -20h-122l233 265q18 21 34.5 26t46.5 5h192z" />
<glyph unicode="&#xdb;" horiz-adv-x="1314" d="M626 144q73 0 134.5 27.5t107.5 77t75.5 117.5t39.5 150l98 798h169l-98 -798q-14 -114 -59 -211t-116 -168t-165 -111.5t-206 -40.5t-195.5 40.5t-137 111.5t-75.5 168q-13 59 -13 124q0 42 6 87l98 798h169l-98 -797q-4 -36 -4 -70q0 -43 6 -81q12 -68 46.5 -117.5 t89.5 -77t128 -27.5zM1053 1415h-123q-37 0 -54 29l-92 153l-128 -153q-26 -29 -61 -29h-119l244 262h153z" />
<glyph unicode="&#xdc;" horiz-adv-x="1314" d="M626 144q73 0 134.5 27.5t107.5 77t75.5 117.5t39.5 150l98 798h169l-98 -798q-14 -114 -59 -211t-116 -168t-165 -111.5t-206 -40.5t-195.5 40.5t-137 111.5t-75.5 168q-13 59 -13 124q0 42 6 87l98 798h169l-98 -797q-4 -36 -4 -70q0 -43 6 -81q12 -68 46.5 -117.5 t89.5 -77t128 -27.5zM593 1610q27 -28 27 -60q0 -57 -37.5 -92.5t-80 -35.5t-68.5 28.5t-26 60.5q0 57 35 93t78 36h1q44 0 71 -30zM997 1610q27 -28 27 -60q0 -57 -37.5 -92.5t-80 -35.5t-68.5 28.5t-26 60.5q0 57 35 93t78 36h1q44 0 71 -30z" />
<glyph unicode="&#xdd;" horiz-adv-x="998" d="M613 525l-64 -525h-170l65 523l-283 791h149q21 0 33.5 -11.5t19.5 -30.5l147 -507q12 -31 20.5 -58.5t14.5 -54.5q13 27 28 54.5t34 57.5l270 508q9 15 24.5 28.5t37.5 13.5h150zM894 1710l-322 -276q-23 -20 -62 -20h-122l233 265q18 21 34.5 26t46.5 5h192z" />
<glyph unicode="&#xde;" horiz-adv-x="979" d="M335 249l-31 -249h-169l161 1314h169l-29 -241h182q112 0 191 -29t127 -82q48 -54 64 -128q10 -46 10 -99v-11q1 -22 -4 -59q-13 -97 -49 -168q-38 -76 -100 -131.5t-147.5 -86t-192.5 -30.5h-182zM352 393h182q66 0 119 20t91.5 56t61.5 86q24 53 31 110q3 26 3 49 q0 90 -46 146q-58 70 -194 70h-182z" />
<glyph unicode="&#xdf;" horiz-adv-x="1080" d="M958 1317.5q85 -85.5 85 -191.5q-1 -153 -155 -252q-98 -63 -126 -96t-28 -68t21 -55.5t53 -38t69 -36.5q143 -73 143 -236.5t-110 -261t-271.5 -97.5t-270.5 118l48 65q16 25 40 25q24 -1 41 -15q87 -74 150 -74h1q104 1 157 56.5t53 118.5t-22 91q-35 43 -103 71.5 t-102 54.5q-79 59 -79 163t84 180q36 33 79 60.5t79 58.5q85 72 85 170q0 96 -101 136q-36 14 -92 14q-116 0 -204.5 -118t-108.5 -287l-104 -841l-47 -198q-16 -74 -89 -74h-69l131 1071l-107 14q-41 6 -41 35q0 4 1 8l8 70h160q48 186 185 315.5t304.5 129.5t252.5 -85.5z " />
<glyph unicode="&#xe0;" horiz-adv-x="1053" d="M635 1389q49 0 67 -41l102 -233h-96q-34 0 -54 26l-180 248h161zM717 268q-167 -282 -389 -282q-130 0 -205 91t-75 261t90 322q137 232 394 306q85 24 206 24q1 0 3 1q119 0 222 -45l-115 -946h-92q-57 0 -57 51v9zM780 856q-37 8 -113 8t-160 -41t-147 -109 q-136 -148 -136 -347q0 -235 169 -235q153 0 279 237q38 72 68 158z" />
<glyph unicode="&#xe1;" horiz-adv-x="1053" d="M1052 1389l-241 -248q-24 -26 -62 -26h-101l161 233q27 41 78 41h165zM717 268q-167 -282 -389 -282q-130 0 -205 91t-75 261t90 322q137 232 394 306q85 24 206 24q1 0 3 1q119 0 222 -45l-115 -946h-92q-57 0 -57 51v9zM780 856q-37 8 -113 8t-160 -41t-147 -109 q-136 -148 -136 -347q0 -235 169 -235q153 0 279 237q38 72 68 158z" />
<glyph unicode="&#xe2;" horiz-adv-x="1053" d="M977 1115h-112q-23 0 -35 14l-96 121q-7 7 -13 16l-143 -137q-17 -14 -39 -14h-118l231 254h158zM717 268q-167 -282 -389 -282q-130 0 -205 91t-75 261t90 322q137 232 394 306q85 24 206 24q1 0 3 1q119 0 222 -45l-115 -946h-92q-57 0 -57 51v9zM780 856q-37 8 -113 8 t-160 -41t-147 -109q-136 -148 -136 -347q0 -235 169 -235q153 0 279 237q38 72 68 158z" />
<glyph unicode="&#xe3;" horiz-adv-x="1053" d="M617 1204q-63 0 -75 -85h-104q10 89 64 147t112 58t97.5 -30.5t59 -44.5t39.5 -14q63 0 76 84h103q-11 -89 -63 -147q-51 -57 -108 -57h-2q-58 0 -99 30.5t-60.5 44.5t-39.5 14zM717 268q-167 -282 -389 -282q-130 0 -205 91t-75 261t90 322q137 232 394 306 q85 24 206 24q1 0 3 1q119 0 222 -45l-115 -946h-92q-57 0 -57 51v9zM780 856q-37 8 -113 8t-160 -41t-147 -109q-136 -148 -136 -347q0 -235 169 -235q153 0 279 237q38 72 68 158z" />
<glyph unicode="&#xe4;" horiz-adv-x="1053" d="M950 1225q-3 -23 -14 -43t-27 -35t-36 -23.5t-41 -8.5t-38.5 8.5t-30 23.5t-17.5 35t-3 43q3 23 13.5 43t26.5 35t35.5 24t40.5 9q20 0 38.5 -9t31 -24t18.5 -35t3 -43zM606 1225q-3 -23 -14 -43t-27 -35t-36 -23.5t-41 -8.5t-38.5 8.5t-30 23.5t-18 35t-2.5 43t13.5 43 t26 35t35.5 24t41 9q20 0 38.5 -9t31 -24t18.5 -35t3 -43zM717 268q-167 -282 -389 -282q-130 0 -205 91t-75 261t90 322q137 232 394 306q85 24 206 24q1 0 3 1q119 0 222 -45l-115 -946h-92q-57 0 -57 51v9zM780 856q-37 8 -113 8t-160 -41t-147 -109q-136 -148 -136 -347 q0 -235 169 -235q153 0 279 237q38 72 68 158z" />
<glyph unicode="&#xe5;" horiz-adv-x="1053" d="M538 1423.5q57 52.5 137 52.5t137.5 -51.5t57.5 -130.5t-57.5 -129t-137.5 -50t-137 51t-57 128t57 129.5zM605 1364.5q-26 -26.5 -26 -69.5t26 -70t70 -27t70.5 27t26.5 70t-26.5 69.5t-70.5 26.5t-70 -26.5zM717 268q-167 -282 -389 -282q-130 0 -205 91t-75 261 t90 322q137 232 394 306q85 24 206 24q1 0 3 1q119 0 222 -45l-115 -946h-92q-57 0 -57 51v9zM780 856q-37 8 -113 8t-160 -41t-147 -109q-136 -148 -136 -347q0 -235 169 -235q153 0 279 237q38 72 68 158z" />
<glyph unicode="&#xe6;" horiz-adv-x="1545" d="M814 814q134 178 367 178q127 0 212.5 -68.5t85.5 -170.5q0 -196 -331 -265q-124 -26 -315 -29v-28q0 -154 68.5 -230.5t192.5 -76.5t218 64l45 30q47 33 67.5 33t34.5 -17l45 -53q-158 -151 -322 -183q-58 -12 -148 -12t-177 57t-129 170q-60 -113 -171 -170t-239 -57 q-1 0 -2 -1q-126 1 -204 59t-78 175q0 233 348 315q124 30 306 34l7 57q4 30 4 56q0 176 -172 176h-4q-99 0 -189 -51q-34 -20 -59 -36t-53.5 -16t-41.5 32l-25 53q181 155 395.5 155t263.5 -180zM675 461q-477 -15 -477 -221q0 -70 44 -103.5t109 -33.5q130 0 214 74 t101 211zM1282 834q-42 33 -114 33q-134 0 -217 -82.5t-107 -223.5q386 19 459 121q22 30 22 74.5t-43 77.5z" />
<glyph unicode="&#xe7;" horiz-adv-x="852" d="M211 -270q6 0 12.5 -3.5t16 -7.5t22.5 -7.5t33 -3.5q37 0 58 16t24 41q1 5 1 9q0 31 -32 43q-36 14 -104 24l68 157q-25 8 -49 18q-66 30 -111 82q-92 108 -92 290q0 243 145 423.5t364 180.5q179 0 283 -135l-55 -66q-14 -18 -31 -18q-16 0 -30 12q-74 66 -157 66 q-150 0 -246.5 -134t-96.5 -326.5t122 -248.5q40 -18 100 -18t104.5 19t75 42t52 42t41 19t33.5 -17l44 -53q-142 -155 -286 -181q-50 -9 -121 -9l-34 -85q82 -18 114 -52q27 -29 27 -70q0 -8 -1 -16q-4 -31 -21.5 -56t-45 -42t-65 -26.5t-80.5 -9.5q-36 0 -68.5 8t-58.5 22 l22 54q8 17 23 17z" />
<glyph unicode="&#xe8;" horiz-adv-x="978" d="M502 1389q49 0 67 -41l102 -233h-96q-34 0 -54 26l-180 248h161zM230 395q0 -271 260 -271q147 0 286 107q26 20 48 20t37 -17l44 -53q-111 -104 -187 -138q-128 -57 -240 -57q-206 0 -312 110q-107 111 -107 298q0 235 152 416t395 181h3q151 0 232 -70t81 -145.5 t-29 -128.5q-92 -169 -662 -219q-1 -8 -1 -16v-17zM765 756q-1 71 -89 100q-32 10 -88 10q-124 0 -216 -91t-125 -231q471 50 511 171q7 21 7 41z" />
<glyph unicode="&#xe9;" horiz-adv-x="978" d="M914 1389l-241 -248q-24 -26 -62 -26h-101l161 233q27 41 78 41h165zM230 395q0 -271 260 -271q147 0 286 107q26 20 48 20t37 -17l44 -53q-111 -104 -187 -138q-128 -57 -240 -57q-206 0 -312 110q-107 111 -107 298q0 235 152 416t395 181h3q151 0 232 -70t81 -145.5 t-29 -128.5q-92 -169 -662 -219q-1 -8 -1 -16v-17zM765 756q-1 71 -89 100q-32 10 -88 10q-124 0 -216 -91t-125 -231q471 50 511 171q7 21 7 41z" />
<glyph unicode="&#xea;" horiz-adv-x="978" d="M825 1115h-112q-23 0 -35 14l-96 121q-7 7 -13 16l-143 -137q-17 -14 -39 -14h-118l231 254h158zM230 395q0 -271 260 -271q147 0 286 107q26 20 48 20t37 -17l44 -53q-111 -104 -187 -138q-128 -57 -240 -57q-206 0 -312 110q-107 111 -107 298q0 235 152 416t395 181h3 q151 0 232 -70t81 -145.5t-29 -128.5q-92 -169 -662 -219q-1 -8 -1 -16v-17zM765 756q-1 71 -89 100q-32 10 -88 10q-124 0 -216 -91t-125 -231q471 50 511 171q7 21 7 41z" />
<glyph unicode="&#xeb;" horiz-adv-x="978" d="M853 1225q-3 -23 -14 -43t-27 -35t-36 -23.5t-41 -8.5t-38.5 8.5t-30 23.5t-17.5 35t-3 43q3 23 13.5 43t26.5 35t35.5 24t40.5 9q20 0 38.5 -9t31 -24t18.5 -35t3 -43zM509 1225q-3 -23 -14 -43t-27 -35t-36 -23.5t-41 -8.5t-38.5 8.5t-30 23.5t-18 35t-2.5 43t13.5 43 t26 35t35.5 24t41 9q20 0 38.5 -9t31 -24t18.5 -35t3 -43zM230 395q0 -271 260 -271q147 0 286 107q26 20 48 20t37 -17l44 -53q-111 -104 -187 -138q-128 -57 -240 -57q-206 0 -312 110q-107 111 -107 298q0 235 152 416t395 181h3q151 0 232 -70t81 -145.5t-29 -128.5 q-92 -169 -662 -219q-1 -8 -1 -16v-17zM765 756q-1 71 -89 100q-32 10 -88 10q-124 0 -216 -91t-125 -231q471 50 511 171q7 21 7 41z" />
<glyph unicode="&#xec;" horiz-adv-x="423" d="M221 1389q49 0 67 -41l102 -233h-96q-34 0 -54 26l-180 248h161zM398 929l-114 -929h-157l114 929h157z" />
<glyph unicode="&#xed;" horiz-adv-x="423" d="M696 1389l-241 -248q-24 -26 -62 -26h-101l161 233q27 41 78 41h165zM398 929l-114 -929h-157l114 929h157z" />
<glyph unicode="&#xee;" horiz-adv-x="423" d="M620 1115h-112q-23 0 -35 14l-96 121q-7 7 -13 16l-143 -137q-17 -14 -39 -14h-118l231 254h158zM398 929l-114 -929h-157l114 929h157z" />
<glyph unicode="&#xef;" horiz-adv-x="423" d="M631 1225q-3 -23 -14 -43t-27 -35t-36 -23.5t-41 -8.5t-38.5 8.5t-30 23.5t-17.5 35t-3 43q3 23 13.5 43t26.5 35t35.5 24t40.5 9q20 0 38.5 -9t31 -24t18.5 -35t3 -43zM287 1225q-3 -23 -14 -43t-27 -35t-36 -23.5t-41 -8.5t-38.5 8.5t-30 23.5t-18 35t-2.5 43t13.5 43 t26 35t35.5 24t41 9q20 0 38.5 -9t31 -24t18.5 -35t3 -43zM398 929l-114 -929h-157l114 929h157z" />
<glyph unicode="&#xf0;" horiz-adv-x="1076" d="M402 1028q-11 18 -7 34t21 28l99 67q-43 20 -91 35.5t-102 29.5q-23 5 -36.5 26.5t-1.5 56.5l21 61q93 -15 180 -44t165 -76l161 117l35 -56q11 -17 6.5 -33t-20.5 -27l-93 -63q58 -47 105.5 -107.5t81.5 -135t52.5 -164t18.5 -194.5q0 -138 -30 -248.5t-89.5 -187.5 t-148 -118.5t-204.5 -41.5q-95 0 -177 31.5t-143 91.5t-95.5 146t-34.5 194q0 90 30 171t86 142t136 96.5t180 35.5q97 0 181.5 -41t146.5 -123q-20 130 -75 220t-147 152l-177 -130zM529 123q136 0 216.5 103.5t86.5 315.5q-15 42 -40 81t-61 69.5t-83 48.5t-107 18 q-72 0 -126 -24t-91 -66t-55.5 -98.5t-18.5 -121.5q0 -78 22 -139t60 -102.5t89 -63t108 -21.5z" />
<glyph unicode="&#xf1;" horiz-adv-x="1053" d="M526 1204q-63 0 -75 -85h-104q10 89 64 147t112 58t97.5 -30.5t59 -44.5t39.5 -14q63 0 76 84h103q-11 -89 -63 -147q-51 -57 -108 -57h-2q-58 0 -99 30.5t-60.5 44.5t-39.5 14zM779 694q0 153 -129 153q-98 -1 -197 -100t-151 -254l-55 -493h-175l117 979h87 q58 0 58 -52v-7l-13 -192q80 131 182.5 197.5t221.5 66.5t181 -96q48 -74 48 -191q0 -38 -5 -82l-73 -623h-175l73 623q5 39 5 71z" />
<glyph unicode="&#xf2;" horiz-adv-x="1051" d="M482 1389q49 0 67 -41l102 -233h-96q-34 0 -54 26l-180 248h161zM467 123h2q149 0 245 135q95 134 95 319q0 141 -61 210q-60 69 -156 69q-169 0 -264.5 -135t-95.5 -321q0 -137 60.5 -207t174.5 -70zM662.5 33.5q-97.5 -47.5 -197.5 -47.5q-192 0 -300.5 110.5 t-108.5 302.5q0 247 153.5 420t378.5 174q178 -1 288 -111q109 -109 109 -298v-4v-2q0 -243 -153 -416q-72 -81 -169.5 -128.5z" />
<glyph unicode="&#xf3;" horiz-adv-x="1051" d="M957 1389l-241 -248q-24 -26 -62 -26h-101l161 233q27 41 78 41h165zM467 123h2q149 0 245 135q95 134 95 319q0 141 -61 210q-60 69 -156 69q-169 0 -264.5 -135t-95.5 -321q0 -137 60.5 -207t174.5 -70zM662.5 33.5q-97.5 -47.5 -197.5 -47.5q-192 0 -300.5 110.5 t-108.5 302.5q0 247 153.5 420t378.5 174q178 -1 288 -111q109 -109 109 -298v-4v-2q0 -243 -153 -416q-72 -81 -169.5 -128.5z" />
<glyph unicode="&#xf4;" horiz-adv-x="1051" d="M905 1115h-112q-23 0 -35 14l-96 121q-7 7 -13 16l-143 -137q-17 -14 -39 -14h-118l231 254h158zM467 123h2q149 0 245 135q95 134 95 319q0 141 -61 210q-60 69 -156 69q-169 0 -264.5 -135t-95.5 -321q0 -137 60.5 -207t174.5 -70zM662.5 33.5 q-97.5 -47.5 -197.5 -47.5q-192 0 -300.5 110.5t-108.5 302.5q0 247 153.5 420t378.5 174q178 -1 288 -111q109 -109 109 -298v-4v-2q0 -243 -153 -416q-72 -81 -169.5 -128.5z" />
<glyph unicode="&#xf5;" horiz-adv-x="1051" d="M567 1204q-63 0 -75 -85h-104q10 89 64 147t112 58t97.5 -30.5t59 -44.5t39.5 -14q63 0 76 84h103q-11 -89 -63 -147q-51 -57 -108 -57h-2q-58 0 -99 30.5t-60.5 44.5t-39.5 14zM467 123h2q149 0 245 135q95 134 95 319q0 141 -61 210q-60 69 -156 69q-169 0 -264.5 -135 t-95.5 -321q0 -137 60.5 -207t174.5 -70zM662.5 33.5q-97.5 -47.5 -197.5 -47.5q-192 0 -300.5 110.5t-108.5 302.5q0 247 153.5 420t378.5 174q178 -1 288 -111q109 -109 109 -298v-4v-2q0 -243 -153 -416q-72 -81 -169.5 -128.5z" />
<glyph unicode="&#xf6;" horiz-adv-x="1051" d="M937 1225q-3 -23 -14 -43t-27 -35t-36 -23.5t-41 -8.5t-38.5 8.5t-30 23.5t-17.5 35t-3 43q3 23 13.5 43t26.5 35t35.5 24t40.5 9q20 0 38.5 -9t31 -24t18.5 -35t3 -43zM593 1225q-3 -23 -14 -43t-27 -35t-36 -23.5t-41 -8.5t-38.5 8.5t-30 23.5t-18 35t-2.5 43t13.5 43 t26 35t35.5 24t41 9q20 0 38.5 -9t31 -24t18.5 -35t3 -43zM467 123h2q149 0 245 135q95 134 95 319q0 141 -61 210q-60 69 -156 69q-169 0 -264.5 -135t-95.5 -321q0 -137 60.5 -207t174.5 -70zM662.5 33.5q-97.5 -47.5 -197.5 -47.5q-192 0 -300.5 110.5t-108.5 302.5 q0 247 153.5 420t378.5 174q178 -1 288 -111q109 -109 109 -298v-4v-2q0 -243 -153 -416q-72 -81 -169.5 -128.5z" />
<glyph unicode="&#xf7;" horiz-adv-x="1020" d="M46 714h926v-133h-926v133zM386 990q0 25 9.5 47.5t26 39.5t38.5 26.5t48 9.5q25 0 47.5 -9.5t39.5 -26.5t26.5 -39.5t9.5 -47.5q0 -26 -9.5 -48t-26.5 -38.5t-39.5 -25.5t-47.5 -9q-26 0 -48 9t-38.5 25.5t-26 38.5t-9.5 48zM386 303q0 25 9.5 47.5t26 39.5t38.5 26.5 t48 9.5q25 0 47.5 -9.5t39.5 -26.5t26.5 -39.5t9.5 -47.5q0 -26 -9.5 -48t-26.5 -38.5t-39.5 -25.5t-47.5 -9q-26 0 -48 9t-38.5 25.5t-26 38.5t-9.5 48z" />
<glyph unicode="&#xf8;" horiz-adv-x="1084" d="M885 854q60 -66 92 -157.5t32 -206.5q0 -116 -32.5 -209t-93 -158.5t-147 -101t-193.5 -35.5q-73 0 -135.5 16t-115.5 47l-51 -70q-21 -29 -50.5 -41t-58.5 -12h-66l140 191q-63 66 -97 160.5t-34 212.5q0 115 33 208t93.5 158.5t147 101t194.5 35.5q75 0 139.5 -17.5 t118.5 -51.5l65 88q19 26 35.5 37t48.5 11h87zM245 489q0 -153 55 -245l417 566q-70 52 -174 52q-72 0 -128 -26t-93.5 -74t-57 -117t-19.5 -156zM543 118q72 0 127 25.5t92.5 73.5t56.5 116.5t19 155.5q0 142 -49 234l-413 -560q67 -45 167 -45z" />
<glyph unicode="&#xf9;" horiz-adv-x="1053" d="M583 1389q49 0 67 -41l102 -233h-96q-34 0 -54 26l-180 248h161zM270 289q0 -157 129 -157q95 0 192 93.5t152 247.5l60 505h175l-118 -978h-87q-62 0 -62 55v8l13 179q-80 -127 -181 -191.5t-220 -64.5t-181 97q-47 72 -47 186q0 43 5 87l73 622h175l-74 -622 q-4 -37 -4 -67z" />
<glyph unicode="&#xfa;" horiz-adv-x="1053" d="M962 1389l-241 -248q-24 -26 -62 -26h-101l161 233q27 41 78 41h165zM270 289q0 -157 129 -157q95 0 192 93.5t152 247.5l60 505h175l-118 -978h-87q-62 0 -62 55v8l13 179q-80 -127 -181 -191.5t-220 -64.5t-181 97q-47 72 -47 186q0 43 5 87l73 622h175l-74 -622 q-4 -37 -4 -67z" />
<glyph unicode="&#xfb;" horiz-adv-x="1053" d="M870 1115h-112q-23 0 -35 14l-96 121q-7 7 -13 16l-143 -137q-17 -14 -39 -14h-118l231 254h158zM270 289q0 -157 129 -157q95 0 192 93.5t152 247.5l60 505h175l-118 -978h-87q-62 0 -62 55v8l13 179q-80 -127 -181 -191.5t-220 -64.5t-181 97q-47 72 -47 186q0 43 5 87 l73 622h175l-74 -622q-4 -37 -4 -67z" />
<glyph unicode="&#xfc;" horiz-adv-x="1053" d="M881 1225q-3 -23 -14 -43t-27 -35t-36 -23.5t-41 -8.5t-38.5 8.5t-30 23.5t-17.5 35t-3 43q3 23 13.5 43t26.5 35t35.5 24t40.5 9q20 0 38.5 -9t31 -24t18.5 -35t3 -43zM537 1225q-3 -23 -14 -43t-27 -35t-36 -23.5t-41 -8.5t-38.5 8.5t-30 23.5t-18 35t-2.5 43t13.5 43 t26 35t35.5 24t41 9q20 0 38.5 -9t31 -24t18.5 -35t3 -43zM270 289q0 -157 129 -157q95 0 192 93.5t152 247.5l60 505h175l-118 -978h-87q-62 0 -62 55v8l13 179q-80 -127 -181 -191.5t-220 -64.5t-181 97q-47 72 -47 186q0 43 5 87l73 622h175l-74 -622q-4 -37 -4 -67z" />
<glyph unicode="&#xfd;" horiz-adv-x="916" d="M917 1389l-241 -248q-24 -26 -62 -26h-101l161 233q27 41 78 41h165zM952 978l-443 -930l-90 -192q-12 -25 -15 -32q-74 -138 -219 -138q-69 0 -89 15.5t-17 46.5l7 63h39q77 7 109 35.5t111 181.5l15 30l-247 920h141q37 0 46 -36l147 -612q14 -59 18 -84q6 17 36 86 l269 610q6 14 21 25t30 11h131zM307 -290z" />
<glyph unicode="&#xfe;" horiz-adv-x="1076" d="M144 -330v1752h176v-583q60 71 138 112.5t178 41.5q83 0 150.5 -32t115.5 -94.5t74 -155.5t26 -215q0 -108 -29 -201.5t-83 -162t-131.5 -107.5t-175.5 -39q-90 0 -152 33.5t-111 93.5v-443h-176zM578 854q-82 0 -144 -38t-114 -108v-472q46 -63 101 -88.5t123 -25.5 q133 0 205 97t72 277q0 95 -16.5 163t-47.5 111.5t-76.5 63.5t-102.5 20z" />
<glyph unicode="&#xff;" horiz-adv-x="916" d="M843 1225q-3 -23 -14 -43t-27 -35t-36 -23.5t-41 -8.5t-38.5 8.5t-30 23.5t-17.5 35t-3 43q3 23 13.5 43t26.5 35t35.5 24t40.5 9q20 0 38.5 -9t31 -24t18.5 -35t3 -43zM499 1225q-3 -23 -14 -43t-27 -35t-36 -23.5t-41 -8.5t-38.5 8.5t-30 23.5t-18 35t-2.5 43t13.5 43 t26 35t35.5 24t41 9q20 0 38.5 -9t31 -24t18.5 -35t3 -43zM952 978l-443 -930l-90 -192q-12 -25 -15 -32q-74 -138 -219 -138q-69 0 -89 15.5t-17 46.5l7 63h39q77 7 109 35.5t111 181.5l15 30l-247 920h141q37 0 46 -36l147 -612q14 -59 18 -84q6 17 36 86l269 610 q6 14 21 25t30 11h131zM307 -290z" />
<glyph unicode="&#x100;" horiz-adv-x="1185" d="M1095 0h-131q-22 0 -34 12t-17 30l-66 316h-504l-142 -315q-8 -17 -24.5 -30t-38.5 -13h-131l620 1314h172zM402 488h418l-108 529q-6 24 -11.5 56t-8.5 69q-14 -38 -27.5 -70t-24.5 -56zM513 1558h502l-12 -100h-503z" />
<glyph unicode="&#x101;" horiz-adv-x="1053" d="M374 1227h513l-14 -111h-513zM717 268q-167 -282 -389 -282q-130 0 -205 91t-75 261t90 322q137 232 394 306q85 24 206 24q1 0 3 1q119 0 222 -45l-115 -946h-92q-57 0 -57 51v9zM780 856q-37 8 -113 8t-160 -41t-147 -109q-136 -148 -136 -347q0 -235 169 -235 q153 0 279 237q38 72 68 158z" />
<glyph unicode="&#x102;" horiz-adv-x="1185" d="M1095 0h-131q-22 0 -34 12t-17 30l-66 316h-504l-142 -315q-8 -17 -24.5 -30t-38.5 -13h-131l620 1314h172zM402 488h418l-108 529q-6 24 -11.5 56t-8.5 69q-14 -38 -27.5 -70t-24.5 -56zM746 1413q-243 0 -243 205q0 24 3 50h131q-2 -18 -2 -34q0 -46 19 -76 q26 -40 104.5 -40t114 39t44.5 111h131q-15 -122 -95 -188.5t-207 -66.5z" />
<glyph unicode="&#x103;" horiz-adv-x="981" d="M717 268q-167 -282 -389 -282q-130 0 -205 91t-75 261t90 322q137 232 394 306q85 24 206 24q1 0 3 1q119 0 222 -45l-115 -946h-92q-57 0 -57 51v9zM780 856q-37 8 -113 8t-160 -41t-147 -109q-136 -148 -136 -347q0 -235 169 -235q153 0 279 237q38 72 68 158z M583 1234q128 0 147 148h120q-24 -180 -161 -238q-50 -21 -120 -21q-132 0 -181 72q-38 55 -38 134q0 25 4 53h119q-3 -24 -3 -43q0 -38 12 -56q31 -49 101 -49z" />
<glyph unicode="&#x104;" horiz-adv-x="1101" d="M1156 -280q-68 -50 -149 -50h-3q-86 1 -124 34q-40 35 -40 76v2q2 130 147 218h-23q-22 0 -34 12q-14 14 -17 30l-66 316h-504l-142 -315q-7 -17 -25 -30q-16 -13 -38 -13h-131l620 1314h172l296 -1314q-81 -45 -111 -108q-13 -27 -12 -53q1 -31 19 -48q21 -20 44 -19 q28 1 39 4q15 4 23 8q10 5 15 8q4 2 9 3q14 2 17 -12zM402 488h418l-108 529q-6 24 -11.5 56t-8.5 69q-14 -38 -27.5 -70t-24.5 -56z" />
<glyph unicode="&#x105;" horiz-adv-x="1053" d="M717 268q-167 -282 -389 -282q-130 0 -205 91t-75 261t90 322q138 234 394 306q85 24 206 24q1 0 3 1q119 0 222 -45l-115 -946h-11q-78 -43 -111 -109q-14 -27 -14 -50q0 -29 22 -51q18 -18 43.5 -18t39.5 3.5t23 8t14.5 8t9.5 3.5q14 0 17 -12l18 -63q-68 -50 -152 -50 t-124 33.5t-40 89.5q0 117 151 209q-36 10 -36 48q0 5 1 10zM780 856q-37 8 -113 8t-160 -41t-147 -109q-136 -148 -136 -347q0 -235 169 -235q153 0 279 237q38 72 68 158z" />
<glyph unicode="&#x106;" horiz-adv-x="1013" d="M1129 1725l-241 -248q-24 -26 -62 -26h-101l161 233q27 41 78 41h165zM920 274q13 0 22 -12l58 -78q-78 -94 -181 -146t-238 -52q-119 0 -209 49t-148 137t-80 212q-11 66 -11 139q0 64 9 134q18 149 72 272.5t136 212.5t186.5 138t223.5 49q118 0 202 -45t142 -122 l-66 -84q-7 -9 -16 -15t-22 -6q-16 0 -33 18t-45 39.5t-71 39.5t-111 18q-80 0 -151 -35t-127 -101.5t-94.5 -162t-52.5 -216.5q-7 -59 -7 -112q0 -56 8 -106q16 -96 56 -162t101.5 -101t136.5 -35q46 0 84 7t71 21.5t63 37t61 53.5q17 14 31 14z" />
<glyph unicode="&#x107;" horiz-adv-x="852" d="M936 1389l-241 -248q-24 -26 -62 -26h-101l161 233q27 41 78 41h165zM806 176q-142 -155 -286 -181q-50 -9 -121.5 -9t-137.5 29.5t-111 82.5q-92 108 -92 290q0 243 145 423.5t364 180.5q179 0 283 -135l-55 -66q-14 -18 -31 -18q-16 0 -30 12q-74 66 -157 66 q-150 0 -246.5 -134t-96.5 -326.5t122 -248.5q40 -18 100 -18t104.5 19t75 42t52 42t41 19t33.5 -17z" />
<glyph unicode="&#x108;" horiz-adv-x="1013" d="M1053 1451h-112q-23 0 -35 14l-96 121q-7 7 -13 16l-143 -137q-17 -14 -39 -14h-118l231 254h158zM920 274q13 0 22 -12l58 -78q-78 -94 -181 -146t-238 -52q-119 0 -209 49t-148 137t-80 212q-11 66 -11 139q0 64 9 134q18 149 72 272.5t136 212.5t186.5 138t223.5 49 q118 0 202 -45t142 -122l-66 -84q-7 -9 -16 -15t-22 -6q-16 0 -33 18t-45 39.5t-71 39.5t-111 18q-80 0 -151 -35t-127 -101.5t-94.5 -162t-52.5 -216.5q-7 -59 -7 -112q0 -56 8 -106q16 -96 56 -162t101.5 -101t136.5 -35q46 0 84 7t71 21.5t63 37t61 53.5q17 14 31 14z " />
<glyph unicode="&#x109;" horiz-adv-x="852" d="M860 1115h-112q-23 0 -35 14l-96 121q-7 7 -13 16l-143 -137q-17 -14 -39 -14h-118l231 254h158zM806 176q-142 -155 -286 -181q-50 -9 -121.5 -9t-137.5 29.5t-111 82.5q-92 108 -92 290q0 243 145 423.5t364 180.5q179 0 283 -135l-55 -66q-14 -18 -31 -18 q-16 0 -30 12q-74 66 -157 66q-150 0 -246.5 -134t-96.5 -326.5t122 -248.5q40 -18 100 -18t104.5 19t75 42t52 42t41 19t33.5 -17z" />
<glyph unicode="&#x10a;" horiz-adv-x="1013" d="M875 1485.5q-38 -34.5 -87 -34.5q-50 0 -86 36t-36 74q0 62 36 100t86 38q51 0 78 -27q47 -47 47 -99.5t-38 -87zM920 274q13 0 22 -12l58 -78q-78 -94 -181 -146t-238 -52q-119 0 -209 49t-148 137t-80 212q-11 66 -11 139q0 64 9 134q18 149 72 272.5t136 212.5 t186.5 138t223.5 49q118 0 202 -45t142 -122l-66 -84q-7 -9 -16 -15t-22 -6q-16 0 -33 18t-45 39.5t-71 39.5t-111 18q-80 0 -151 -35t-127 -101.5t-94.5 -162t-52.5 -216.5q-7 -59 -7 -112q0 -56 8 -106q16 -96 56 -162t101.5 -101t136.5 -35q46 0 84 7t71 21.5t63 37 t61 53.5q17 14 31 14z" />
<glyph unicode="&#x10b;" horiz-adv-x="852" d="M682 1149.5q-38 -34.5 -87 -34.5q-50 0 -86 36t-36 74q0 62 36 100t86 38q51 0 78 -27q47 -47 47 -99.5t-38 -87zM806 176q-142 -155 -286 -181q-50 -9 -121.5 -9t-137.5 29.5t-111 82.5q-92 108 -92 290q0 243 145 423.5t364 180.5q179 0 283 -135l-55 -66 q-14 -18 -31 -18q-16 0 -30 12q-74 66 -157 66q-150 0 -246.5 -134t-96.5 -326.5t122 -248.5q40 -18 100 -18t104.5 19t75 42t52 42t41 19t33.5 -17z" />
<glyph unicode="&#x10c;" horiz-adv-x="1013" d="M528 1705h118q20 0 34 -14l96 -123l13 -19q5 5 9 10t9 9l126 123q14 14 39 14h113l-231 -254h-157zM920 274q13 0 22 -12l58 -78q-78 -94 -181 -146t-238 -52q-119 0 -209 49t-148 137t-80 212q-11 66 -11 139q0 64 9 134q18 149 72 272.5t136 212.5t186.5 138t223.5 49 q118 0 202 -45t142 -122l-66 -84q-7 -9 -16 -15t-22 -6q-16 0 -33 18t-45 39.5t-71 39.5t-111 18q-80 0 -151 -35t-127 -101.5t-94.5 -162t-52.5 -216.5q-7 -59 -7 -112q0 -56 8 -106q16 -96 56 -162t101.5 -101t136.5 -35q46 0 84 7t71 21.5t63 37t61 53.5q17 14 31 14z " />
<glyph unicode="&#x10d;" horiz-adv-x="852" d="M335 1369h118q20 0 34 -14l96 -123l13 -19q5 5 9 10t9 9l126 123q14 14 39 14h113l-231 -254h-157zM806 176q-142 -155 -286 -181q-50 -9 -121.5 -9t-137.5 29.5t-111 82.5q-92 108 -92 290q0 243 145 423.5t364 180.5q179 0 283 -135l-55 -66q-14 -18 -31 -18 q-16 0 -30 12q-74 66 -157 66q-150 0 -246.5 -134t-96.5 -326.5t122 -248.5q40 -18 100 -18t104.5 19t75 42t52 42t41 19t33.5 -17z" />
<glyph unicode="&#x10e;" horiz-adv-x="1167" d="M546 1705h118q20 0 34 -14l96 -123l13 -19q5 5 9 10t9 9l126 123q14 14 39 14h113l-231 -254h-157zM1186 657q-18 -148 -73 -269t-139 -207.5t-192.5 -133.5t-232.5 -47h-423l162 1314h422q125 0 222 -47.5t159 -133.5q61 -85 87 -207q15 -71 15 -152q0 -56 -7 -117z M1013 657q7 59 7 112q0 55 -8 103q-16 94 -58 160t-108.5 100.5t-153.5 34.5h-252l-125 -1020h252q87 0 162 34.5t133.5 100t97 160.5t53.5 215z" />
<glyph unicode="&#x10f;" horiz-adv-x="1164" d="M522 992q152 0 242 -109l67 539h172l-175 -1422h-92q-57 0 -57 51v9l18 208q-120 -202 -281 -262q-54 -20 -110 -20q-129 0 -202 92t-73 268q0 248 140 442q92 126 218 178q64 26 133 26zM749 762q-69 95 -201 95h-3q-99 0 -180 -77q-113 -105 -149 -301 q-11 -59 -11 -116q0 -115 43.5 -176t131.5 -61t184 109t155 279zM1259 1424q20 0 23.5 -10.5t1.5 -21.5q-1 -9 -6 -25t-17 -44.5t-31.5 -72t-50.5 -107.5q-10 -22 -24.5 -29t-37.5 -7h-56l89 317h109z" />
<glyph unicode="&#x110;" horiz-adv-x="1279" d="M126 716h143l74 598h408q121 0 214 -47.5t154 -133.5q61 -85 85 -207q14 -69 14 -148q0 -58 -8 -121q-18 -148 -72 -269t-136 -207.5t-186.5 -133.5t-225.5 -47h-409l75 610h-143zM1036 657q8 62 8 117q0 52 -7 98q-14 94 -53.5 160t-103 100.5t-147.5 34.5h-237 l-56 -451h210l-13 -106h-210l-56 -463h237q84 0 156 34.5t127.5 100t92.5 160.5t52 215z" />
<glyph unicode="&#x111;" horiz-adv-x="1128" d="M585 972q171 0 271 -112l30 243h-180q-57 0 -57 46q0 8 1 17l7 45h242l26 211h172l-26 -211h146l-10 -108h-150l-135 -1103h-91q-58 0 -58 52v8l21 221q-135 -212 -311 -274q-60 -21 -123 -21q-145 0 -224.5 93.5t-79.5 272.5q0 244 150 428q157 192 379 192zM842 743 q-82 93 -240 93t-265 -144t-108 -324q0 -118 50 -180t151.5 -62t209.5 110t174 284z" />
<glyph unicode="&#x112;" horiz-adv-x="925" d="M425 1562h513l-14 -111h-513zM1008 1314l-19 -148h-544l-53 -431h438l-17 -143h-438l-55 -444h545l-19 -148h-714l161 1314h715z" />
<glyph unicode="&#x113;" horiz-adv-x="978" d="M380 1226h513l-14 -111h-513zM230 395q0 -271 260 -271q147 0 286 107q26 20 48 20t37 -17l44 -53q-111 -104 -187 -138q-128 -57 -240 -57q-206 0 -312 110q-107 111 -107 298q0 235 152 416t395 181h3q151 0 232 -70t81 -145.5t-29 -128.5q-92 -169 -662 -219 q-1 -8 -1 -16v-17zM765 756q-1 71 -89 100q-32 10 -88 10q-124 0 -216 -91t-125 -231q471 50 511 171q7 21 7 41z" />
<glyph unicode="&#x114;" horiz-adv-x="925" d="M680 1562q128 0 147 148h120q-24 -180 -161 -238q-50 -21 -120 -21q-132 0 -181 72q-38 55 -38 134q0 25 4 53h119q-3 -24 -3 -43q0 -38 12 -56q31 -49 101 -49zM1008 1314l-19 -148h-544l-53 -431h438l-17 -143h-438l-55 -444h545l-19 -148h-714l161 1314h715z" />
<glyph unicode="&#x115;" horiz-adv-x="978" d="M636 1226q128 0 147 148h120q-24 -180 -161 -238q-50 -21 -120 -21q-132 0 -181 72q-38 55 -38 134q0 25 4 53h119q-3 -24 -3 -43q0 -38 12 -56q31 -49 101 -49zM230 395q0 -271 260 -271q147 0 286 107q26 20 48 20t37 -17l44 -53q-111 -104 -187 -138 q-128 -57 -240 -57q-206 0 -312 110q-107 111 -107 298q0 235 152 416t395 181h3q151 0 232 -70t81 -145.5t-29 -128.5q-92 -169 -662 -219q-1 -8 -1 -16v-17zM765 756q-1 71 -89 100q-32 10 -88 10q-124 0 -216 -91t-125 -231q471 50 511 171q7 21 7 41z" />
<glyph unicode="&#x116;" horiz-adv-x="925" d="M767 1485.5q-38 -34.5 -87 -34.5q-50 0 -86 36t-36 74q0 62 36 100t86 38q51 0 78 -27q47 -47 47 -99.5t-38 -87zM1008 1314l-19 -148h-544l-53 -431h438l-17 -143h-438l-55 -444h545l-19 -148h-714l161 1314h715z" />
<glyph unicode="&#x117;" horiz-adv-x="978" d="M723 1149.5q-38 -34.5 -87 -34.5q-50 0 -86 36t-36 74q0 62 36 100t86 38q51 0 78 -27q47 -47 47 -99.5t-38 -87zM230 395q0 -271 260 -271q147 0 286 107q26 20 48 20t37 -17l44 -53q-111 -104 -187 -138q-128 -57 -240 -57q-206 0 -312 110q-107 111 -107 298 q0 235 152 416t395 181h3q151 0 232 -70t81 -145.5t-29 -128.5q-92 -169 -662 -219q-1 -8 -1 -16v-17zM765 756q-1 71 -89 100q-32 10 -88 10q-124 0 -216 -91t-125 -231q471 50 511 171q7 21 7 41z" />
<glyph unicode="&#x118;" horiz-adv-x="925" d="M908 -280q-68 -50 -152 -50t-124 34t-40 78q0 129 147 218h-607l161 1314h715l-19 -148h-544l-53 -431h438l-17 -143h-438l-55 -444h545l-19 -148l-110 -108q-12 -24 -12 -53q0 -30 19 -48q18 -19 44 -19q25 0 39 4q14 3 23 8q9 4 15 8q5 3 9 3q14 0 17 -12z" />
<glyph unicode="&#x119;" horiz-adv-x="978" d="M230 395q0 -271 260 -271q147 0 286 107q26 20 48 20t37 -17l44 -53q-155 -145 -298 -179l19 -2q-80 -44 -110 -108q-12 -24 -12 -53.5t18.5 -48t44 -18.5t39.5 3.5t23 8t14.5 8t9.5 3.5q14 0 17 -12l18 -63q-68 -50 -152 -50t-124 33.5t-40 89.5q0 109 127 194l-41 -1 q-186 0 -292 110q-107 111 -107 298q0 235 152 416t395 181h3q151 0 232 -70t81 -145.5t-29 -128.5q-92 -169 -662 -219q-1 -8 -1 -16v-17zM765 756q-1 71 -89 100q-32 10 -88 10q-124 0 -216 -91t-125 -231q471 50 511 171q7 21 7 41z" />
<glyph unicode="&#x11a;" horiz-adv-x="1000" d="M1008 1314l-19 -148h-544l-53 -431h438l-17 -143h-438l-55 -444h545l-19 -148h-714l161 1314h715zM442 1676h124q38 0 50 -21l85 -148l9 -17l133 163q19 23 57 23h124l-245 -262h-157z" />
<glyph unicode="&#x11b;" horiz-adv-x="1019" d="M369 1382h118q20 0 34 -14l96 -123l13 -19q5 5 9 10t9 9l126 123q14 14 39 14h113l-231 -254h-157zM230 395q0 -271 260 -271q147 0 286 107q26 20 48 20t37 -17l44 -53q-111 -104 -187 -138q-128 -57 -240 -57q-206 0 -312 110q-107 111 -107 298q0 235 152 416t395 181 h3q151 0 232 -70t81 -145.5t-29 -128.5q-92 -169 -662 -219q-1 -8 -1 -16v-17zM765 756q-1 71 -89 100q-32 10 -88 10q-124 0 -216 -91t-125 -231q471 50 511 171q7 21 7 41z" />
<glyph unicode="&#x11c;" horiz-adv-x="1292" d="M1181 1414h-123q-37 0 -54 29l-92 153l-128 -153q-26 -29 -61 -29h-119l244 262h153zM1178 633l-62 -506q-98 -71 -203 -106t-223 -35q-142 0 -251 49t-179 137t-99 212q-18 75 -18 159q0 55 8 114q18 150 75.5 273.5t147 212t207 137.5t256.5 49q71 0 129.5 -11.5 t107 -33t88 -52.5t71.5 -69l-57 -82q-15 -20 -33 -25q-5 -1 -10 -1q-14 0 -29 10q-20 13 -43.5 31.5t-56.5 35t-80 28.5t-113 12q-97 0 -180 -36t-146.5 -103t-105 -162.5t-55.5 -213.5q-7 -54 -7 -104q0 -63 11 -117q19 -98 69 -165t127.5 -102.5t178.5 -35.5 q78 0 142 19.5t127 54.5l36 288h-176q-17 0 -26 10q-7 8 -7 20v5l13 103h366z" />
<glyph unicode="&#x11d;" horiz-adv-x="1076" d="M627 385q-83 -52 -202 -52t-200 75.5t-81 219t109 254t298 110.5q111 0 194 -49h284l-7 -58q-5 -39 -39 -45l-132 -23q20 -49 20 -103.5t-11.5 -92.5t-29 -71t-38 -61.5t-50.5 -75.5t-30 -89.5t10 -66t26 -46.5t34 -46.5t44.5 -66.5t26.5 -109q0 -139 -133 -239 q-134 -100 -330 -101h-5q-192 0 -301 67t-109 180q0 114 101 188q134 98 386 98q74 0 146 -10q-22 40 -22 92.5t41 120.5zM349.5 488q46.5 -46 115.5 -46q119 0 182 78t64 172q-1 92 -47 136t-116 44q-122 0 -183.5 -74t-61.5 -169t46.5 -141zM362 -228q235 0 309 126 q22 38 22 79t-19 86q-112 17 -166 17t-114 -3t-126 -26q-127 -45 -127 -136q0 -70 64 -106.5t157 -36.5zM897 1127h-112q-23 0 -35 14l-96 121q-7 7 -13 16l-143 -137q-17 -14 -39 -14h-118l231 254h158z" />
<glyph unicode="&#x11e;" horiz-adv-x="1292" d="M878 1413q-243 0 -243 205q0 24 3 50h131q-2 -18 -2 -34q0 -46 19 -76q26 -40 104.5 -40t114 39t44.5 111h131q-15 -122 -95 -188.5t-207 -66.5zM1178 633l-62 -506q-98 -71 -203 -106t-223 -35q-142 0 -251 49t-179 137t-99 212q-18 75 -18 159q0 55 8 114 q18 150 75.5 273.5t147 212t207 137.5t256.5 49q71 0 129.5 -11.5t107 -33t88 -52.5t71.5 -69l-57 -82q-15 -20 -33 -25q-5 -1 -10 -1q-14 0 -29 10q-20 13 -43.5 31.5t-56.5 35t-80 28.5t-113 12q-97 0 -180 -36t-146.5 -103t-105 -162.5t-55.5 -213.5q-7 -54 -7 -104 q0 -63 11 -117q19 -98 69 -165t127.5 -102.5t178.5 -35.5q78 0 142 19.5t127 54.5l36 288h-176q-17 0 -26 10q-7 8 -7 20v5l13 103h366z" />
<glyph unicode="&#x11f;" horiz-adv-x="1076" d="M635 1234q128 0 147 148h120q-24 -180 -161 -238q-50 -21 -120 -21q-132 0 -181 72q-38 55 -38 134q0 25 4 53h119q-3 -24 -3 -43q0 -38 12 -56q31 -49 101 -49zM627 385q-83 -52 -202 -52t-200 75.5t-81 219t109 254t298 110.5q111 0 194 -49h284l-7 -58q-5 -39 -39 -45 l-132 -23q20 -49 20 -103.5t-11.5 -92.5t-29 -71t-38 -61.5t-50.5 -75.5t-30 -89.5t10 -66t26 -46.5t34 -46.5t44.5 -66.5t26.5 -109q0 -139 -133 -239q-134 -100 -330 -101h-5q-192 0 -301 67t-109 180q0 114 101 188q134 98 386 98q74 0 146 -10q-22 40 -22 92.5t41 120.5 zM349.5 488q46.5 -46 115.5 -46q119 0 182 78t64 172q-1 92 -47 136t-116 44q-122 0 -183.5 -74t-61.5 -169t46.5 -141zM362 -228q235 0 309 126q22 38 22 79t-19 86q-112 17 -166 17t-114 -3t-126 -26q-127 -45 -127 -136q0 -70 64 -106.5t157 -36.5z" />
<glyph unicode="&#x120;" horiz-adv-x="1292" d="M968 1474q-40 -38 -75 -38q-53 0 -83 32q-30 30 -30 64q0 58 40 97t74 39q2 0 4 1q30 -1 48 -9t32 -22q30 -32 30 -79t-40 -85zM1178 633l-62 -506q-98 -71 -203 -106t-223 -35q-142 0 -251 49t-179 137t-99 212q-18 75 -18 159q0 55 8 114q18 150 75.5 273.5t147 212 t207 137.5t256.5 49q71 0 129.5 -11.5t107 -33t88 -52.5t71.5 -69l-57 -82q-15 -20 -33 -25q-5 -1 -10 -1q-14 0 -29 10q-20 13 -43.5 31.5t-56.5 35t-80 28.5t-113 12q-97 0 -180 -36t-146.5 -103t-105 -162.5t-55.5 -213.5q-7 -54 -7 -104q0 -63 11 -117q19 -98 69 -165 t127.5 -102.5t178.5 -35.5q78 0 142 19.5t127 54.5l36 288h-176q-17 0 -26 10q-7 8 -7 20v5l13 103h366z" />
<glyph unicode="&#x121;" horiz-adv-x="1076" d="M735 1202.5q-38 -34.5 -87 -34.5q-50 0 -86 36t-36 74q0 62 36 100t86 38q51 0 78 -27q47 -47 47 -99.5t-38 -87zM627 385q-83 -52 -202 -52t-200 75.5t-81 219t109 254t298 110.5q111 0 194 -49h284l-7 -58q-5 -39 -39 -45l-132 -23q20 -49 20 -103.5t-11.5 -92.5 t-29 -71t-38 -61.5t-50.5 -75.5t-30 -89.5t10 -66t26 -46.5t34 -46.5t44.5 -66.5t26.5 -109q0 -139 -133 -239q-134 -100 -330 -101h-5q-192 0 -301 67t-109 180q0 114 101 188q134 98 386 98q74 0 146 -10q-22 40 -22 92.5t41 120.5zM349.5 488q46.5 -46 115.5 -46 q119 0 182 78t64 172q-1 92 -47 136t-116 44q-122 0 -183.5 -74t-61.5 -169t46.5 -141zM362 -228q235 0 309 126q22 38 22 79t-19 86q-112 17 -166 17t-114 -3t-126 -26q-127 -45 -127 -136q0 -70 64 -106.5t157 -36.5z" />
<glyph unicode="&#x122;" horiz-adv-x="1292" d="M664 -86q28 -1 28 -31t-30.5 -97.5t-48.5 -104t-33 -43t-38 -6.5h-59l78 282h103zM1178 633l-62 -506q-98 -71 -203 -106t-223 -35q-142 0 -251 49t-179 137t-99 212q-18 75 -18 159q0 55 8 114q18 150 75.5 273.5t147 212t207 137.5t256.5 49q71 0 129.5 -11.5t107 -33 t88 -52.5t71.5 -69l-57 -82q-15 -20 -33 -25q-5 -1 -10 -1q-14 0 -29 10q-20 13 -43.5 31.5t-56.5 35t-80 28.5t-113 12q-97 0 -180 -36t-146.5 -103t-105 -162.5t-55.5 -213.5q-7 -54 -7 -104q0 -63 11 -117q19 -98 69 -165t127.5 -102.5t178.5 -35.5q78 0 142 19.5 t127 54.5l36 288h-176q-17 0 -26 10q-7 8 -7 20v5l13 103h366z" />
<glyph unicode="&#x123;" horiz-adv-x="1076" d="M716 1117h-149l119 272h106zM627 385q-83 -52 -202 -52t-200 75.5t-81 219t109 254t298 110.5q111 0 194 -49h284l-7 -58q-5 -39 -39 -45l-132 -23q20 -49 20 -103.5t-11.5 -92.5t-29 -71t-38 -61.5t-50.5 -75.5t-30 -89.5t10 -66t26 -46.5t34 -46.5t44.5 -66.5 t26.5 -109q0 -139 -133 -239q-134 -100 -330 -101h-5q-192 0 -301 67t-109 180q0 114 101 188q134 98 386 98q74 0 146 -10q-22 40 -22 92.5t41 120.5zM349.5 488q46.5 -46 115.5 -46q119 0 182 78t64 172q-1 92 -47 136t-116 44q-122 0 -183.5 -74t-61.5 -169t46.5 -141z M362 -228q235 0 309 126q22 38 22 79t-19 86q-112 17 -166 17t-114 -3t-126 -26q-127 -45 -127 -136q0 -70 64 -106.5t157 -36.5z" />
<glyph unicode="&#x124;" horiz-adv-x="1181" d="M1047 1451h-112q-23 0 -35 14l-96 121q-7 7 -13 16l-143 -137q-17 -14 -39 -14h-118l231 254h158zM1054 0h-171l74 596h-586l-73 -596h-171l162 1314h170l-72 -585h586l72 585h170z" />
<glyph unicode="&#x125;" horiz-adv-x="1076" d="M80 0l171 1422h175l-80 -663q78 115 174 174t178 59t131 -24q127 -63 127 -262q0 -39 -6 -83l-73 -623h-175l73 623q5 37 5 85q0 140 -128 140q-92 0 -186 -92t-149 -239l-62 -517h-175zM627 1492h-123q-37 0 -54 29l-92 153l-128 -153q-26 -29 -61 -29h-119l244 262h153 z" />
<glyph unicode="&#x126;" horiz-adv-x="1248" d="M1218 1060h130l-14 -109h-130l-117 -951h-170l73 596h-585l-74 -596h-170l117 951h-130l13 109h130l31 254h171l-32 -254h586l32 254h170zM421 729h586l27 222h-586z" />
<glyph unicode="&#x127;" horiz-adv-x="1066" d="M73 1214h154l26 208h175l-25 -208h249l-10 -64q-8 -48 -60 -48h-193l-44 -365q79 115 177 175q97 59 179 59l1 -1q84 0 134 -24q128 -63 128 -263q0 -38 -5 -81l-72 -602h-175l72 602q5 37 5 67q-1 65 -21 103q-29 55 -116 55l-2 -1q-88 0 -184.5 -94.5t-150.5 -243.5 l-59 -488h-176l134 1102h-155z" />
<glyph unicode="&#x128;" horiz-adv-x="516" d="M321 0h-169l161 1314h170zM492 1543q22 -16 44 -16q40 0 66 30t30 67h103q-17 -139 -118 -193q-32 -18 -71 -18h-2q-40 0 -70.5 16.5t-55.5 35.5t-47.5 35t-44.5 16q-39 0 -64.5 -30.5t-29.5 -67.5h-106q11 86 64 148t119 62l1 -1q67 0 135 -50q25 -18 47 -34z" />
<glyph unicode="&#x129;" horiz-adv-x="423" d="M398 929l-114 -929h-157l114 929h157zM241 1246q-63 0 -75 -85h-104q10 89 64 147t112 58t97.5 -30.5t59 -44.5t39.5 -14q63 0 76 84h103q-11 -89 -63 -147q-51 -57 -108 -57h-2q-58 0 -99 30.5t-60.5 44.5t-39.5 14z" />
<glyph unicode="&#x12a;" horiz-adv-x="516" d="M321 0h-169l161 1314h170zM181 1558h502l-12 -100h-503z" />
<glyph unicode="&#x12b;" horiz-adv-x="423" d="M75 1227h513l-14 -111h-513zM398 929l-114 -929h-157l114 929h157z" />
<glyph unicode="&#x12c;" horiz-adv-x="516" d="M321 0h-169l161 1314h170zM413 1413q-243 0 -243 205q0 24 3 50h131q-2 -18 -2 -34q0 -46 19 -76q26 -40 104.5 -40t114 39t44.5 111h131q-15 -122 -95 -188.5t-207 -66.5z" />
<glyph unicode="&#x12d;" horiz-adv-x="470" d="M398 929l-114 -929h-157l114 929h157zM331 1234q128 0 147 148h120q-24 -180 -161 -238q-50 -21 -120 -21q-132 0 -181 72q-38 55 -38 134q0 25 4 53h119q-3 -24 -3 -43q0 -38 12 -56q31 -49 101 -49z" />
<glyph unicode="&#x12e;" horiz-adv-x="473" d="M353 -280q-68 -50 -152 -50t-124 34t-40 78q0 129 147 218h-32l161 1314h170l-162 -1314h-31q-79 -44 -109 -108q-12 -24 -12 -53.5t18.5 -48t44 -18.5t39.5 3.5t23 8t14.5 8t9.5 3.5q14 0 17 -12z" />
<glyph unicode="&#x12f;" horiz-adv-x="470" d="M290 -280q-68 -50 -152 -50t-124 34t-40 78q0 129 147 218h-31l118 978h173l-118 -978h-36q-79 -44 -109 -108q-12 -24 -12 -53.5t18.5 -48t44 -18.5t39.5 3.5t23 8t14.5 8t9.5 3.5q14 0 17 -12zM408.5 1198.5q-37.5 -37.5 -84.5 -37.5q-46 0 -82 37.5t-36 85.5 q0 50 26 78q46 47 93 47t74 -27q47 -47 47 -96.5t-37.5 -87z" />
<glyph unicode="&#x130;" horiz-adv-x="473" d="M515 1485.5q-38 -34.5 -87 -34.5q-50 0 -86 36t-36 74q0 62 36 100t86 38q51 0 78 -27q47 -47 47 -99.5t-38 -87zM321 0h-169l161 1314h170z" />
<glyph unicode="&#x131;" horiz-adv-x="423" d="M398 929l-114 -929h-157l114 929h157z" />
<glyph unicode="&#x132;" horiz-adv-x="1077" d="M1029 455q-14 -110 -45 -197t-79.5 -147.5t-113 -92.5t-143.5 -32q-36 0 -70.5 5.5t-72.5 18.5q5 28 11 55t12 53q4 15 14 25t27 10q12 0 30.5 -7.5t49.5 -7.5q84 0 137 74t73 239l106 863h169zM321 0h-169l161 1314h170z" />
<glyph unicode="&#x133;" horiz-adv-x="960" d="M860 978l-129 -1049q-15 -123 -93.5 -201.5t-210.5 -78.5q-65 0 -111 19l19 94q5 19 19 19h49q74 0 109.5 35t45.5 113l130 1049h172zM788 1409q92 0 126 -77q10 -23 10 -48q0 -50 -38 -86t-85 -37q-48 0 -85 37t-37 87q1 49 27 77q46 47 82 47zM381 978l-118 -978h-173 l118 978h173zM408.5 1198.5q-37.5 -37.5 -84.5 -37.5q-46 0 -82 37.5t-36 85.5q0 50 26 78q46 47 93 47t74 -27q47 -47 47 -96.5t-37.5 -87z" />
<glyph unicode="&#x134;" horiz-adv-x="604" d="M871 1451h-112q-23 0 -35 14l-96 121q-7 7 -13 16l-143 -137q-17 -14 -39 -14h-118l231 254h158zM556 455q-14 -110 -45 -197t-79.5 -147.5t-113 -92.5t-143.5 -32q-36 0 -70.5 5.5t-72.5 18.5q5 28 11 55t12 53q4 15 14 25t27 10q12 0 30.5 -7.5t49.5 -7.5q84 0 137 74 t73 239l106 863h169z" />
<glyph unicode="&#x135;" horiz-adv-x="430" d="M633 1115h-112q-23 0 -35 14l-96 121q-7 7 -13 16l-143 -137q-17 -14 -39 -14h-118l231 254h158zM410 929l-124 -1010q-7 -57 -27 -106t-54 -85.5t-83.5 -57.5t-114.5 -21q-28 0 -50.5 4.5t-44.5 14.5l20 94q2 9 5.5 13.5t10 5.5t17 0.5t26.5 -0.5q65 0 97.5 33.5 t41.5 108.5l124 1006h156z" />
<glyph unicode="&#x136;" horiz-adv-x="986" d="M373 740h48q27 0 46 9t34 29l376 494q20 23 39 32.5t46 9.5h145l-441 -564q-35 -43 -70 -61q41 -16 70 -65l307 -624h-149q-31 0 -44 10.5t-24 27.5l-259 520q-12 23 -28.5 32.5t-50.5 9.5h-62l-74 -600h-169l161 1314h169zM517 -86q28 -1 28 -31t-30.5 -97.5t-48.5 -104 t-33 -43t-38 -6.5h-59l78 282h103z" />
<glyph unicode="&#x137;" horiz-adv-x="931" d="M422 1422l-103 -836h30q35 0 60 27l321 331q32 34 68 34h155l-374 -384q-32 -34 -61 -51q25 -17 51 -60l288 -483h-150q-40 0 -60 33l-245 401q-12 20 -24.5 26.5t-39.5 6.5h-33l-57 -467h-173l174 1422h173zM484 -93q28 -1 28 -31t-30.5 -97.5t-48.5 -104t-33 -43 t-38 -6.5h-59l78 282h103z" />
<glyph unicode="&#x138;" horiz-adv-x="809" d="M379 929l-46 -370h35q16 0 27 5t24 21l262 312q14 15 27.5 23.5t33.5 8.5h136l-308 -365q-14 -14 -28 -26t-28 -22q13 -10 23 -25t20 -31l224 -460h-134q-18 0 -31 7t-22 24l-183 378q-10 19 -20.5 25t-32.5 6h-39l-54 -440h-157l114 929h157z" />
<glyph unicode="&#x139;" horiz-adv-x="797" d="M638 1725l-241 -248q-24 -26 -62 -26h-101l161 233q27 41 78 41h165zM314 153h471l-19 -153h-640l161 1314h169z" />
<glyph unicode="&#x13a;" horiz-adv-x="470" d="M602 1818l-241 -248q-24 -26 -62 -26h-101l161 233q27 41 78 41h165zM88 0l171 1422h173l-172 -1422h-172z" />
<glyph unicode="&#x13b;" horiz-adv-x="861" d="M314 153h471l-19 -153h-640l161 1314h169zM494 -86q28 -1 28 -31t-30.5 -97.5t-48.5 -104t-33 -43t-38 -6.5h-59l78 282h103z" />
<glyph unicode="&#x13c;" horiz-adv-x="470" d="M88 0l171 1422h173l-172 -1422h-172zM228 -93q28 -1 28 -31t-30.5 -97.5t-48.5 -104t-33 -43t-38 -6.5h-59l78 282h103z" />
<glyph unicode="&#x13d;" horiz-adv-x="866" d="M350 153h471l-19 -153h-640l161 1314h169zM814 1365q20 0 23.5 -10.5t1.5 -21.5q-1 -9 -6 -25t-17 -44.5t-31.5 -72t-50.5 -107.5q-10 -22 -24.5 -29t-37.5 -7h-56l89 317h109z" />
<glyph unicode="&#x13e;" horiz-adv-x="540" d="M61 0l171 1422h173l-172 -1422h-172zM678 1424q20 0 23.5 -10.5t1.5 -21.5q-1 -9 -6 -25t-17 -44.5t-31.5 -72t-50.5 -107.5q-10 -22 -24.5 -29t-37.5 -7h-56l89 317h109z" />
<glyph unicode="&#x13f;" horiz-adv-x="797" d="M500 153h471l-19 -153h-640l161 1314h169zM1030 658.5q-38 -34.5 -87 -34.5q-50 0 -86 36t-36 74q0 62 36 100t86 38q51 0 78 -27q47 -47 47 -99.5t-38 -87z" />
<glyph unicode="&#x140;" horiz-adv-x="765" d="M106 0l171 1422h173l-172 -1422h-172zM828 618.5q-38 -34.5 -87 -34.5q-50 0 -86 36t-36 74q0 62 36 100t86 38q51 0 78 -27q47 -47 47 -99.5t-38 -87z" />
<glyph unicode="&#x141;" horiz-adv-x="880" d="M441 753l288 167l-15 -122q-4 -29 -28 -42l-264 -156l-55 -447h471l-18 -153h-641l62 507l-160 -88l16 126q3 24 25 36l138 79l80 654h169z" />
<glyph unicode="&#x142;" horiz-adv-x="507" d="M493 1422l-63 -513l122 65l-12 -100q-4 -32 -27 -43l-99 -56l-96 -775h-156l85 695l-131 -71l13 103q3 27 24 39l110 62l73 594h157z" />
<glyph unicode="&#x143;" horiz-adv-x="1223" d="M1143 1725l-241 -248q-24 -26 -62 -26h-101l161 233q27 41 78 41h165zM384 1314q23 0 32 -5q11 -6 22 -26l544 -983q1 24 2.5 47.5t3.5 43.5l113 923h149l-161 -1314h-86q-20 0 -32 7q-15 9 -23 25l-544 980q-1 -23 -2.5 -44t-4.5 -40l-114 -928h-148l161 1314h88z" />
<glyph unicode="&#x144;" horiz-adv-x="1053" d="M963 1389l-241 -248q-24 -26 -62 -26h-101l161 233q27 41 78 41h165zM779 694q0 153 -129 153q-98 -1 -197 -100t-151 -254l-55 -493h-175l117 979h87q58 0 58 -52v-7l-13 -192q80 131 182.5 197.5t221.5 66.5t181 -96q48 -74 48 -191q0 -38 -5 -82l-73 -623h-175l73 623 q5 39 5 71z" />
<glyph unicode="&#x145;" horiz-adv-x="1322" d="M384 1314q23 0 32 -5q11 -6 22 -26l544 -983q1 24 2.5 47.5t3.5 43.5l113 923h149l-161 -1314h-86q-20 0 -32 7q-15 9 -23 25l-544 980q-1 -23 -2.5 -44t-4.5 -40l-114 -928h-148l161 1314h88zM679 -86q28 -1 28 -31t-30.5 -97.5t-48.5 -104t-33 -43t-38 -6.5h-59l78 282 h103z" />
<glyph unicode="&#x146;" horiz-adv-x="1076" d="M779 694q0 153 -129 153q-98 -1 -197 -100t-151 -254l-55 -493h-175l117 979h87q58 0 58 -52v-7l-13 -192q80 131 182.5 197.5t221.5 66.5t181 -96q48 -74 48 -191q0 -38 -5 -82l-73 -623h-175l73 623q5 39 5 71zM556 -93q28 -1 28 -31t-30.5 -97.5t-48.5 -104t-33 -43 t-38 -6.5h-59l78 282h103z" />
<glyph unicode="&#x147;" horiz-adv-x="1223" d="M543 1705h118q20 0 34 -14l96 -123l13 -19q5 5 9 10t9 9l126 123q14 14 39 14h113l-231 -254h-157zM384 1314q23 0 32 -5q11 -6 22 -26l544 -983q1 24 2.5 47.5t3.5 43.5l113 923h149l-161 -1314h-86q-20 0 -32 7q-15 9 -23 25l-544 980q-1 -23 -2.5 -44t-4.5 -40 l-114 -928h-148l161 1314h88z" />
<glyph unicode="&#x148;" horiz-adv-x="1053" d="M362 1369h118q20 0 34 -14l96 -123l13 -19q5 5 9 10t9 9l126 123q14 14 39 14h113l-231 -254h-157zM779 694q0 153 -129 153q-98 -1 -197 -100t-151 -254l-55 -493h-175l117 979h87q58 0 58 -52v-7l-13 -192q80 131 182.5 197.5t221.5 66.5t181 -96q48 -74 48 -191 q0 -38 -5 -82l-73 -623h-175l73 623q5 39 5 71z" />
<glyph unicode="&#x149;" horiz-adv-x="1186" d="M889 694q0 153 -129 153q-98 -1 -197 -100t-151 -254l-55 -493h-175l117 979h87q58 0 58 -52v-7l-13 -192q80 131 182.5 197.5t221.5 66.5t181 -96q48 -74 48 -191q0 -38 -5 -82l-73 -623h-175l73 623q5 39 5 71zM320 1444q27 -65 33 -145q1 -18 1 -35q0 -22 -2 -42 q0 -3 -1 -7q-3 -28 -13 -67q-19 -73 -63 -142.5t-106 -122.5l-46 34q-13 9 -10 23t12 23q27 30 49 74q20 39 33 95q4 16 6 34q3 25 3 48q0 11 -1 22q-3 54 -24 105q-10 21 -2.5 37t25.5 23z" />
<glyph unicode="&#x14a;" horiz-adv-x="1191" d="M1063 8q-9 -75 -31.5 -137t-60.5 -106.5t-91.5 -68.5t-124.5 -24q-39 0 -70 8t-64 25l26 73q7 21 17.5 27.5t21.5 6.5q10 0 26 -7t45 -7q64 0 103.5 47.5t51.5 144.5l6 47l-519 975q-1 -23 -3 -44t-4 -40l-114 -928h-149l162 1314h88q21 0 31.5 -5.5t22.5 -25.5l522 -981 q1 23 2.5 46t3.5 43l114 923h148z" />
<glyph unicode="&#x14b;" horiz-adv-x="946" d="M120 -10l115 939h94q17 0 26.5 -8.5t8.5 -27.5l1 -103q62 70 134 112t159 42q68 0 118 -25.5t81 -72t41 -112.5q5 -34 6 -71q0 -36 -5 -75l-74 -600q-9 -76 -34 -138.5t-66 -107.5t-97.5 -69.5t-126.5 -24.5q-39 0 -70 8.5t-65 26.5l26 76q7 22 17 28t21 6 q10 0 26.5 -6.5t47.5 -6.5q68 0 109.5 47t53.5 146l75 612q3 28 3 52v5v5q0 59 -25 100q-35 58 -122 58q-64 0 -124 -34t-113 -94l-85 -687h-156z" />
<glyph unicode="&#x14c;" horiz-adv-x="1258" d="M565 1562h513l-14 -111h-513zM1273 657q-18 -148 -73.5 -271t-140.5 -212t-194.5 -138.5t-236.5 -49.5q-126 0 -223.5 49.5t-161 138.5t-89.5 212q-15 73 -15 154q0 56 7 117q18 147 74 270.5t141.5 213t196 139t235.5 49.5q126 0 224 -49.5t161 -139.5q63 -88 88 -212 q15 -72 15 -152q0 -57 -8 -119zM1100 657q7 59 7 112v12q0 48 -7 91q-16 96 -58.5 162.5t-110.5 102t-157 35.5t-165.5 -35.5t-136 -102t-98.5 -162t-54 -215.5q-7 -58 -7 -110q0 -55 8 -105q16 -96 59 -162.5t110.5 -101.5t157.5 -35q89 0 165.5 35t135 101.5t97.5 162 t54 215.5z" />
<glyph unicode="&#x14d;" horiz-adv-x="1051" d="M360 1226h513l-14 -111h-513zM467 123h2q149 0 245 135q95 134 95 319q0 141 -61 210q-60 69 -156 69q-169 0 -264.5 -135t-95.5 -321q0 -137 60.5 -207t174.5 -70zM662.5 33.5q-97.5 -47.5 -197.5 -47.5q-192 0 -300.5 110.5t-108.5 302.5q0 247 153.5 420t378.5 174 q178 -1 288 -111q109 -109 109 -298v-4v-2q0 -243 -153 -416q-72 -81 -169.5 -128.5z" />
<glyph unicode="&#x14e;" horiz-adv-x="1258" d="M821 1562q128 0 147 148h120q-24 -180 -161 -238q-50 -21 -120 -21q-132 0 -181 72q-38 55 -38 134q0 25 4 53h119q-3 -24 -3 -43q0 -38 12 -56q31 -49 101 -49zM1273 657q-18 -148 -73.5 -271t-140.5 -212t-194.5 -138.5t-236.5 -49.5q-126 0 -223.5 49.5t-161 138.5 t-89.5 212q-15 73 -15 154q0 56 7 117q18 147 74 270.5t141.5 213t196 139t235.5 49.5q126 0 224 -49.5t161 -139.5q63 -88 88 -212q15 -72 15 -152q0 -57 -8 -119zM1100 657q7 59 7 112v12q0 48 -7 91q-16 96 -58.5 162.5t-110.5 102t-157 35.5t-165.5 -35.5t-136 -102 t-98.5 -162t-54 -215.5q-7 -58 -7 -110q0 -55 8 -105q16 -96 59 -162.5t110.5 -101.5t157.5 -35q89 0 165.5 35t135 101.5t97.5 162t54 215.5z" />
<glyph unicode="&#x14f;" horiz-adv-x="1051" d="M616 1226q128 0 147 148h120q-24 -180 -161 -238q-50 -21 -120 -21q-132 0 -181 72q-38 55 -38 134q0 25 4 53h119q-3 -24 -3 -43q0 -38 12 -56q31 -49 101 -49zM467 123h2q149 0 245 135q95 134 95 319q0 141 -61 210q-60 69 -156 69q-169 0 -264.5 -135t-95.5 -321 q0 -137 60.5 -207t174.5 -70zM662.5 33.5q-97.5 -47.5 -197.5 -47.5q-192 0 -300.5 110.5t-108.5 302.5q0 247 153.5 420t378.5 174q178 -1 288 -111q109 -109 109 -298v-4v-2q0 -243 -153 -416q-72 -81 -169.5 -128.5z" />
<glyph unicode="&#x150;" horiz-adv-x="1258" d="M991 1725l-207 -248q-21 -26 -62 -26h-71l150 233q27 41 77 41h113zM1275 1725l-248 -248q-26 -26 -61 -26h-81l188 233q16 20 31.5 30.5t46.5 10.5h124zM1273 657q-18 -148 -73.5 -271t-140.5 -212t-194.5 -138.5t-236.5 -49.5q-126 0 -223.5 49.5t-161 138.5t-89.5 212 q-15 73 -15 154q0 56 7 117q18 147 74 270.5t141.5 213t196 139t235.5 49.5q126 0 224 -49.5t161 -139.5q63 -88 88 -212q15 -72 15 -152q0 -57 -8 -119zM1100 657q7 59 7 112v12q0 48 -7 91q-16 96 -58.5 162.5t-110.5 102t-157 35.5t-165.5 -35.5t-136 -102t-98.5 -162 t-54 -215.5q-7 -58 -7 -110q0 -55 8 -105q16 -96 59 -162.5t110.5 -101.5t157.5 -35q89 0 165.5 35t135 101.5t97.5 162t54 215.5z" />
<glyph unicode="&#x151;" horiz-adv-x="1051" d="M786 1389l-207 -248q-21 -26 -62 -26h-71l150 233q27 41 77 41h113zM1070 1389l-248 -248q-26 -26 -61 -26h-81l188 233q16 20 31.5 30.5t46.5 10.5h124zM467 123h2q149 0 245 135q95 134 95 319q0 141 -61 210q-60 69 -156 69q-169 0 -264.5 -135t-95.5 -321 q0 -137 60.5 -207t174.5 -70zM662.5 33.5q-97.5 -47.5 -197.5 -47.5q-192 0 -300.5 110.5t-108.5 302.5q0 247 153.5 420t378.5 174q178 -1 288 -111q109 -109 109 -298v-4v-2q0 -243 -153 -416q-72 -81 -169.5 -128.5z" />
<glyph unicode="&#x152;" horiz-adv-x="1775" d="M961 197q-166 -210 -425 -210q-206 0 -327.5 157t-121.5 411q1 336 175 555q175 219 435 219h2q131 0 225 -65t147 -176l28 226h703l-17 -142h-547l-54 -441h439l-17 -138h-439l-55 -451h547l-19 -142h-703zM971.5 500q31.5 116 31.5 235q0 221 -80.5 336.5t-221.5 115.5 q-193 -1 -314 -175q-120 -173 -120 -451q0 -200 80.5 -316t224.5 -116q192 1 311 173q57 82 88.5 198z" />
<glyph unicode="&#x153;" horiz-adv-x="1668" d="M914 795q141 197 398 197q139 0 222 -64.5t83 -169.5q0 -130 -135 -204q-161 -88 -542 -124q0 -154 69 -230t195 -76t222 64q25 16 58.5 39.5t54.5 23.5t35 -17l44 -53q-157 -151 -323 -183q-59 -12 -127 -12q-116 0 -203.5 58t-129.5 175q-151 -233 -435 -233 q-170 0 -262 104t-92 260q0 300 158.5 471t396.5 171q118 0 197 -52t116 -145zM336 138q41 -20 112 -20h4q155 1 247.5 124.5t104.5 331.5q1 18 2 35q0 177 -117 231q-43 20 -115 20t-140 -35t-117 -101q-99 -135 -99 -364q0 -167 118 -222zM1065 781q-91 -87 -117 -241 q426 46 502 152q22 30 22 60q0 22 -12 45q-37 71 -170.5 71t-224.5 -87z" />
<glyph unicode="&#x154;" horiz-adv-x="1030" d="M833 1725l-241 -248q-24 -26 -62 -26h-101l161 233q27 41 78 41h165zM370 546l-67 -546h-169l161 1314h335q112 0 190 -25.5t124.5 -73t63.5 -115.5q11 -42 11 -91q0 -29 -4 -60q-8 -69 -35 -129t-68.5 -108t-98 -82.5t-124.5 -52.5q14 -11 26.5 -24.5t23.5 -32.5 l264 -520h-150q-44 0 -64 37l-231 468q-11 22 -26.5 31.5t-47.5 9.5h-114zM386 679h159q67 0 120 18.5t91.5 52.5t62 81.5t30.5 104.5q3 23 3 44q0 191 -240 191h-165z" />
<glyph unicode="&#x155;" horiz-adv-x="702" d="M826 1389l-241 -248q-24 -26 -62 -26h-101l161 233q27 41 78 41h165zM320 699q137 287 317 287q41 0 83 -17l-31 -169q-48 19 -108 19t-122 -55q-99 -87 -162 -317l-53 -447h-172l118 979h87q58 0 58 -52v-7z" />
<glyph unicode="&#x156;" horiz-adv-x="1112" d="M370 546l-67 -546h-169l161 1314h335q112 0 190 -25.5t124.5 -73t63.5 -115.5q11 -42 11 -91q0 -29 -4 -60q-8 -69 -35 -129t-68.5 -108t-98 -82.5t-124.5 -52.5q14 -11 26.5 -24.5t23.5 -32.5l264 -520h-150q-44 0 -64 37l-231 468q-11 22 -26.5 31.5t-47.5 9.5h-114z M386 679h159q67 0 120 18.5t91.5 52.5t62 81.5t30.5 104.5q3 23 3 44q0 191 -240 191h-165zM574 -86q28 -1 28 -31t-30.5 -97.5t-48.5 -104t-33 -43t-38 -6.5h-59l78 282h103z" />
<glyph unicode="&#x157;" horiz-adv-x="714" d="M320 699q137 287 317 287q41 0 83 -17l-31 -169q-48 19 -108 19t-122 -55q-99 -87 -162 -317l-53 -447h-172l118 979h87q58 0 58 -52v-7zM215 -93q28 -1 28 -31t-30.5 -97.5t-48.5 -104t-33 -43t-38 -6.5h-59l78 282h103z" />
<glyph unicode="&#x158;" horiz-adv-x="1030" d="M232 1705h118q20 0 34 -14l96 -123l13 -19q5 5 9 10t9 9l126 123q14 14 39 14h113l-231 -254h-157zM370 546l-67 -546h-169l161 1314h335q112 0 190 -25.5t124.5 -73t63.5 -115.5q11 -42 11 -91q0 -29 -4 -60q-8 -69 -35 -129t-68.5 -108t-98 -82.5t-124.5 -52.5 q14 -11 26.5 -24.5t23.5 -32.5l264 -520h-150q-44 0 -64 37l-231 468q-11 22 -26.5 31.5t-47.5 9.5h-114zM386 679h159q67 0 120 18.5t91.5 52.5t62 81.5t30.5 104.5q3 23 3 44q0 191 -240 191h-165z" />
<glyph unicode="&#x159;" horiz-adv-x="702" d="M225 1369h118q20 0 34 -14l96 -123l13 -19q5 5 9 10t9 9l126 123q14 14 39 14h113l-231 -254h-157zM320 699q137 287 317 287q41 0 83 -17l-31 -169q-48 19 -108 19t-122 -55q-99 -87 -162 -317l-53 -447h-172l118 979h87q58 0 58 -52v-7z" />
<glyph unicode="&#x15a;" horiz-adv-x="872" d="M994 1725l-241 -248q-24 -26 -62 -26h-101l161 233q27 41 78 41h165zM876 1107q-17 -28 -42 -28q-14 0 -31 15.5t-42 34t-62 34t-90 15.5q-51 0 -92 -15.5t-70 -43t-46.5 -64t-22.5 -78.5q-2 -15 -2 -28q0 -37 14 -63q20 -36 55.5 -61.5t82.5 -44.5t95.5 -39t95 -45.5 t80 -64t50.5 -94.5q11 -35 11 -80q0 -27 -4 -57q-11 -87 -46 -162.5t-91.5 -131.5t-133 -88t-169.5 -32q-113 0 -201.5 46.5t-145.5 125.5l60 86q8 11 18.5 17.5t23.5 6.5q18 0 37.5 -20.5t49 -45t73 -45t107.5 -20.5q54 0 98 17t77 48t53.5 74.5t27.5 96.5q2 16 2 30 q0 39 -14 67q-19 38 -54.5 63.5t-82.5 43t-96 36.5t-95 43.5t-80 64.5t-50 99q-10 35 -10 81q0 31 4 66q8 69 40.5 134.5t84.5 116t123.5 81t158.5 30.5q98 0 175 -35t128 -102z" />
<glyph unicode="&#x15b;" horiz-adv-x="797" d="M865 1389l-241 -248q-24 -26 -62 -26h-101l161 233q27 41 78 41h165zM734 820q-16 -22 -33.5 -22t-34 11t-62.5 34t-108 23q-2 0 -3 1q-103 0 -162 -45t-59 -108q0 -82 138 -144q39 -18 80 -36q103 -44 160.5 -89t57.5 -117q0 -145 -111 -243.5t-294 -98.5q-1 0 -2 -1 q-182 0 -289 119l42 66q17 27 39.5 27t38.5 -14.5t42 -30.5q65 -44 136 -44h2q122 1 181 51.5t59 112.5t-32 93q-48 47 -186 96q-56 21 -104 47q-112 61 -113 167q1 129 104.5 223t275 94t280.5 -109z" />
<glyph unicode="&#x15c;" horiz-adv-x="872" d="M918 1451h-112q-23 0 -35 14l-96 121q-7 7 -13 16l-143 -137q-17 -14 -39 -14h-118l231 254h158zM876 1107q-17 -28 -42 -28q-14 0 -31 15.5t-42 34t-62 34t-90 15.5q-51 0 -92 -15.5t-70 -43t-46.5 -64t-22.5 -78.5q-2 -15 -2 -28q0 -37 14 -63q20 -36 55.5 -61.5 t82.5 -44.5t95.5 -39t95 -45.5t80 -64t50.5 -94.5q11 -35 11 -80q0 -27 -4 -57q-11 -87 -46 -162.5t-91.5 -131.5t-133 -88t-169.5 -32q-113 0 -201.5 46.5t-145.5 125.5l60 86q8 11 18.5 17.5t23.5 6.5q18 0 37.5 -20.5t49 -45t73 -45t107.5 -20.5q54 0 98 17t77 48 t53.5 74.5t27.5 96.5q2 16 2 30q0 39 -14 67q-19 38 -54.5 63.5t-82.5 43t-96 36.5t-95 43.5t-80 64.5t-50 99q-10 35 -10 81q0 31 4 66q8 69 40.5 134.5t84.5 116t123.5 81t158.5 30.5q98 0 175 -35t128 -102z" />
<glyph unicode="&#x15d;" horiz-adv-x="797" d="M790 1115h-112q-23 0 -35 14l-96 121q-7 7 -13 16l-143 -137q-17 -14 -39 -14h-118l231 254h158zM734 820q-16 -22 -33.5 -22t-34 11t-62.5 34t-108 23q-2 0 -3 1q-103 0 -162 -45t-59 -108q0 -82 138 -144q39 -18 80 -36q103 -44 160.5 -89t57.5 -117 q0 -145 -111 -243.5t-294 -98.5q-1 0 -2 -1q-182 0 -289 119l42 66q17 27 39.5 27t38.5 -14.5t42 -30.5q65 -44 136 -44h2q122 1 181 51.5t59 112.5t-32 93q-48 47 -186 96q-56 21 -104 47q-112 61 -113 167q1 129 104.5 223t275 94t280.5 -109z" />
<glyph unicode="&#x15e;" horiz-adv-x="872" d="M229 -270q6 0 12.5 -3.5t16 -7.5t22.5 -7.5t33 -3.5q37 0 58 16t24 41q1 5 1 9q0 31 -32 43q-36 14 -104 24l66 153q-60 10 -112 38q-88 46 -145 126l60 86q8 11 18.5 17.5t23.5 6.5q18 0 37.5 -20.5t49 -45t73 -45t107.5 -20.5q54 0 98 17t77 48t53.5 74.5t27.5 96.5 q2 16 2 30q0 39 -14 67q-19 38 -54.5 63.5t-82.5 43t-96 36.5t-95 43.5t-80 64.5t-50 99q-10 35 -10 81q0 31 4 66q8 69 40.5 134.5t84.5 116t123.5 81t158.5 30.5q98 0 175 -35t128 -102l-52 -85q-17 -28 -42 -28q-14 0 -31 15.5t-42 34t-62 34t-90 15.5q-51 0 -92 -15.5 t-70 -43t-46.5 -64t-22.5 -78.5q-2 -15 -2 -28q0 -37 14 -63q20 -36 55.5 -61.5t82.5 -44.5t95.5 -39t95 -45.5t80 -64t50.5 -94.5q11 -35 11 -80q0 -27 -4 -57q-11 -87 -46 -162.5t-91.5 -131.5t-133 -88t-169.5 -32l-33 -85q82 -18 114 -52q27 -29 27 -70q0 -8 -1 -16 q-4 -31 -21.5 -56t-45 -42t-65 -26.5t-80.5 -9.5q-36 0 -68.5 8t-58.5 22l22 54q8 17 23 17z" />
<glyph unicode="&#x15f;" horiz-adv-x="797" d="M114 -271q6 0 12.5 -3.5t16 -7.5t22.5 -7.5t33 -3.5q37 0 58 16t24 41q1 5 1 9q0 31 -32 43q-36 14 -104 24l66 153q-120 23 -199 111l42 66q17 27 39.5 27t38.5 -14.5t42 -30.5q65 -44 136 -44h2q122 1 181 51.5t59 112.5t-32 93q-48 47 -186 96q-56 21 -104 47 q-112 61 -113 167q1 129 104.5 223t275 94t280.5 -109l-43 -63q-16 -22 -33.5 -22t-34 11t-62.5 34t-108 23q-2 0 -3 1q-103 0 -162 -45t-59 -108q0 -82 138 -144q39 -18 80 -36q103 -44 160.5 -89t57.5 -117q0 -145 -111 -243.5t-294 -98.5q-1 0 -2 -1l-33 -85 q82 -18 114 -52q27 -29 27 -70q0 -8 -1 -16q-4 -31 -21.5 -56t-45 -42t-65 -26.5t-80.5 -9.5q-36 0 -68.5 8t-58.5 22l22 54q8 17 23 17z" />
<glyph unicode="&#x160;" horiz-adv-x="872" d="M393 1705h118q20 0 34 -14l96 -123l13 -19q5 5 9 10t9 9l126 123q14 14 39 14h113l-231 -254h-157zM876 1107q-17 -28 -42 -28q-14 0 -31 15.5t-42 34t-62 34t-90 15.5q-51 0 -92 -15.5t-70 -43t-46.5 -64t-22.5 -78.5q-2 -15 -2 -28q0 -37 14 -63q20 -36 55.5 -61.5 t82.5 -44.5t95.5 -39t95 -45.5t80 -64t50.5 -94.5q11 -35 11 -80q0 -27 -4 -57q-11 -87 -46 -162.5t-91.5 -131.5t-133 -88t-169.5 -32q-113 0 -201.5 46.5t-145.5 125.5l60 86q8 11 18.5 17.5t23.5 6.5q18 0 37.5 -20.5t49 -45t73 -45t107.5 -20.5q54 0 98 17t77 48 t53.5 74.5t27.5 96.5q2 16 2 30q0 39 -14 67q-19 38 -54.5 63.5t-82.5 43t-96 36.5t-95 43.5t-80 64.5t-50 99q-10 35 -10 81q0 31 4 66q8 69 40.5 134.5t84.5 116t123.5 81t158.5 30.5q98 0 175 -35t128 -102z" />
<glyph unicode="&#x161;" horiz-adv-x="797" d="M264 1369h118q20 0 34 -14l96 -123l13 -19q5 5 9 10t9 9l126 123q14 14 39 14h113l-231 -254h-157zM734 820q-16 -22 -33.5 -22t-34 11t-62.5 34t-108 23q-2 0 -3 1q-103 0 -162 -45t-59 -108q0 -82 138 -144q39 -18 80 -36q103 -44 160.5 -89t57.5 -117 q0 -145 -111 -243.5t-294 -98.5q-1 0 -2 -1q-182 0 -289 119l42 66q17 27 39.5 27t38.5 -14.5t42 -30.5q65 -44 136 -44h2q122 1 181 51.5t59 112.5t-32 93q-48 47 -186 96q-56 21 -104 47q-112 61 -113 167q1 129 104.5 223t275 94t280.5 -109z" />
<glyph unicode="&#x162;" horiz-adv-x="927" d="M291 -256q6 0 12.5 -3.5t16 -7.5t22.5 -7.5t33 -3.5q37 0 58 16t24 41q1 5 1 9q0 31 -32 43q-36 14 -104 24l63 145h-6l143 1162h-357l18 152h884l-19 -152h-356l-143 -1162h-71l-33 -85q82 -18 114 -52q27 -29 27 -70q0 -8 -1 -16q-4 -31 -21.5 -56t-45 -42t-65 -26.5 t-80.5 -9.5q-36 0 -68.5 8t-58.5 22l22 54q8 17 23 17z" />
<glyph unicode="&#x163;" horiz-adv-x="686" d="M203 -271q6 0 12.5 -3.5t16 -7.5t22.5 -7.5t33 -3.5q37 0 58 16t24 41q1 5 1 9q0 31 -32 43q-36 14 -104 24l66 153q-49 12 -83 44q-56 52 -56 155q0 48 14 154l60 486h-113q-14 0 -23 10q-7 8 -7 22v7l8 70l156 21l74 300q11 33 41 33h93l-41 -335h266l-15 -128h-267 l-59 -477q-15 -117 -15 -132q0 -95 90 -95q50 0 106 39q10 7 20.5 7t17.5 -17l38 -84q-93 -81 -215 -87l-33 -86q82 -18 114 -52q27 -29 27 -70q0 -8 -1 -16q-4 -31 -21.5 -56t-45 -42t-65 -26.5t-80.5 -9.5q-36 0 -68.5 8t-58.5 22l22 54q8 17 23 17z" />
<glyph unicode="&#x164;" horiz-adv-x="927" d="M395 1705h118q20 0 34 -14l96 -123l13 -19q5 5 9 10t9 9l126 123q14 14 39 14h113l-231 -254h-157zM1067 1314l-19 -152h-356l-143 -1162h-170l143 1162h-357l18 152h884z" />
<glyph unicode="&#x165;" horiz-adv-x="708" d="M605 73q-101 -88 -235 -88q-97 0 -153 52t-56 155q0 48 14 154l60 486h-113q-14 0 -23 10q-7 8 -7 22v7l8 70l156 21l74 300q11 33 41 33h93l-41 -335h266l-15 -128h-267l-59 -477q-15 -117 -15 -132q0 -95 90 -95q50 0 106 39q10 7 20.5 7t17.5 -17zM813 1424 q20 0 23.5 -10.5t1.5 -21.5q-1 -9 -6 -25t-17 -44.5t-31.5 -72t-50.5 -107.5q-10 -22 -24.5 -29t-37.5 -7h-56l89 317h109z" />
<glyph unicode="&#x166;" horiz-adv-x="998" d="M1067 1314l-19 -152h-356l-47 -381h288l-13 -107h-288l-83 -674h-170l83 674h-217l13 107h217l47 381h-357l18 152h884z" />
<glyph unicode="&#x167;" horiz-adv-x="700" d="M118 668h120l20 164h-96q-13 0 -20.5 10t-5.5 29l9 70l134 20l74 301q4 15 14 24t25 9h80l-42 -335h230l-15 -128h-230l-20 -164h234l-14 -111h-234l-38 -309q-2 -16 -2 -30q1 -38 15 -60q20 -30 57 -30q22 0 39 7t29 16t21 16t16 7q8 0 12 -4t7 -13l34 -84 q-44 -42 -100 -65t-113 -23q-98 0 -143 65q-34 49 -34 129q0 27 4 57l39 321h-119z" />
<glyph unicode="&#x168;" horiz-adv-x="1216" d="M703 1540q-63 0 -75 -85h-104q10 89 64 147t112 58t97.5 -30.5t59 -44.5t39.5 -14q63 0 76 84h103q-11 -89 -63 -147q-51 -57 -108 -57h-2q-58 0 -99 30.5t-60.5 44.5t-39.5 14zM626 144q73 0 134.5 27.5t107.5 77t75.5 117.5t39.5 150l98 798h169l-98 -798 q-14 -114 -59 -211t-116 -168t-165 -111.5t-206 -40.5t-195.5 40.5t-137 111.5t-75.5 168q-13 59 -13 124q0 42 6 87l98 798h169l-98 -797q-4 -36 -4 -70q0 -43 6 -81q12 -68 46.5 -117.5t89.5 -77t128 -27.5z" />
<glyph unicode="&#x169;" horiz-adv-x="1053" d="M509 1204q-63 0 -75 -85h-104q10 89 64 147t112 58t97.5 -30.5t59 -44.5t39.5 -14q63 0 76 84h103q-11 -89 -63 -147q-51 -57 -108 -57h-2q-58 0 -99 30.5t-60.5 44.5t-39.5 14zM270 289q0 -157 129 -157q95 0 192 93.5t152 247.5l60 505h175l-118 -978h-87q-62 0 -62 55 v8l13 179q-80 -127 -181 -191.5t-220 -64.5t-181 97q-47 72 -47 186q0 43 5 87l73 622h175l-74 -622q-4 -37 -4 -67z" />
<glyph unicode="&#x16a;" horiz-adv-x="1216" d="M544 1562h513l-14 -111h-513zM626 144q73 0 134.5 27.5t107.5 77t75.5 117.5t39.5 150l98 798h169l-98 -798q-14 -114 -59 -211t-116 -168t-165 -111.5t-206 -40.5t-195.5 40.5t-137 111.5t-75.5 168q-13 59 -13 124q0 42 6 87l98 798h169l-98 -797q-4 -36 -4 -70 q0 -43 6 -81q12 -68 46.5 -117.5t89.5 -77t128 -27.5z" />
<glyph unicode="&#x16b;" horiz-adv-x="1053" d="M350 1226h513l-14 -111h-513zM270 289q0 -157 129 -157q95 0 192 93.5t152 247.5l60 505h175l-118 -978h-87q-62 0 -62 55v8l13 179q-80 -127 -181 -191.5t-220 -64.5t-181 97q-47 72 -47 186q0 43 5 87l73 622h175l-74 -622q-4 -37 -4 -67z" />
<glyph unicode="&#x16c;" horiz-adv-x="1216" d="M799 1562q128 0 147 148h120q-24 -180 -161 -238q-50 -21 -120 -21q-132 0 -181 72q-38 55 -38 134q0 25 4 53h119q-3 -24 -3 -43q0 -38 12 -56q31 -49 101 -49zM626 144q73 0 134.5 27.5t107.5 77t75.5 117.5t39.5 150l98 798h169l-98 -798q-14 -114 -59 -211t-116 -168 t-165 -111.5t-206 -40.5t-195.5 40.5t-137 111.5t-75.5 168q-13 59 -13 124q0 42 6 87l98 798h169l-98 -797q-4 -36 -4 -70q0 -43 6 -81q12 -68 46.5 -117.5t89.5 -77t128 -27.5z" />
<glyph unicode="&#x16d;" horiz-adv-x="1053" d="M605 1226q128 0 147 148h120q-24 -180 -161 -238q-50 -21 -120 -21q-132 0 -181 72q-38 55 -38 134q0 25 4 53h119q-3 -24 -3 -43q0 -38 12 -56q31 -49 101 -49zM270 289q0 -157 129 -157q95 0 192 93.5t152 247.5l60 505h175l-118 -978h-87q-62 0 -62 55v8l13 179 q-80 -127 -181 -191.5t-220 -64.5t-181 97q-47 72 -47 186q0 43 5 87l73 622h175l-74 -622q-4 -37 -4 -67z" />
<glyph unicode="&#x16e;" horiz-adv-x="1216" d="M671 1759.5q57 52.5 137 52.5t137.5 -51.5t57.5 -130.5t-57.5 -129t-137.5 -50t-137 51t-57 128t57 129.5zM738 1700.5q-26 -26.5 -26 -69.5t26 -70t70 -27t70.5 27t26.5 70t-26.5 69.5t-70.5 26.5t-70 -26.5zM626 144q73 0 134.5 27.5t107.5 77t75.5 117.5t39.5 150 l98 798h169l-98 -798q-14 -114 -59 -211t-116 -168t-165 -111.5t-206 -40.5t-195.5 40.5t-137 111.5t-75.5 168q-13 59 -13 124q0 42 6 87l98 798h169l-98 -797q-4 -36 -4 -70q0 -43 6 -81q12 -68 46.5 -117.5t89.5 -77t128 -27.5z" />
<glyph unicode="&#x16f;" horiz-adv-x="1053" d="M477 1423.5q57 52.5 137 52.5t137.5 -51.5t57.5 -130.5t-57.5 -129t-137.5 -50t-137 51t-57 128t57 129.5zM544 1364.5q-26 -26.5 -26 -69.5t26 -70t70 -27t70.5 27t26.5 70t-26.5 69.5t-70.5 26.5t-70 -26.5zM270 289q0 -157 129 -157q95 0 192 93.5t152 247.5l60 505 h175l-118 -978h-87q-62 0 -62 55v8l13 179q-80 -127 -181 -191.5t-220 -64.5t-181 97q-47 72 -47 186q0 43 5 87l73 622h175l-74 -622q-4 -37 -4 -67z" />
<glyph unicode="&#x170;" horiz-adv-x="1216" d="M969 1725l-207 -248q-21 -26 -62 -26h-71l150 233q27 41 77 41h113zM1253 1725l-248 -248q-26 -26 -61 -26h-81l188 233q16 20 31.5 30.5t46.5 10.5h124zM626 144q73 0 134.5 27.5t107.5 77t75.5 117.5t39.5 150l98 798h169l-98 -798q-14 -114 -59 -211t-116 -168 t-165 -111.5t-206 -40.5t-195.5 40.5t-137 111.5t-75.5 168q-13 59 -13 124q0 42 6 87l98 798h169l-98 -797q-4 -36 -4 -70q0 -43 6 -81q12 -68 46.5 -117.5t89.5 -77t128 -27.5z" />
<glyph unicode="&#x171;" horiz-adv-x="1053" d="M775 1389l-207 -248q-21 -26 -62 -26h-71l150 233q27 41 77 41h113zM1059 1389l-248 -248q-26 -26 -61 -26h-81l188 233q16 20 31.5 30.5t46.5 10.5h124zM270 289q0 -157 129 -157q95 0 192 93.5t152 247.5l60 505h175l-118 -978h-87q-62 0 -62 55v8l13 179 q-80 -127 -181 -191.5t-220 -64.5t-181 97q-47 72 -47 186q0 43 5 87l73 622h175l-74 -622q-4 -37 -4 -67z" />
<glyph unicode="&#x172;" horiz-adv-x="1216" d="M744 -291q-68 -50 -152 -50t-124 34t-40 78q0 127 141 215q-89 6 -159 40q-84 40 -137 111t-75 168q-13 59 -13 124q0 42 6 87l98 798h169l-98 -797q-4 -36 -4 -70q0 -43 6 -81q12 -68 46.5 -117.5t89.5 -77t128 -27.5t134.5 27.5t107.5 77t75.5 117.5t39.5 150l98 798 h169l-98 -798q-14 -114 -59 -211t-116 -168t-165 -111l-130 -37q-80 -44 -110 -108q-12 -24 -12 -53.5t18.5 -48t44 -18.5t39.5 3.5t23 8t14.5 8t9.5 3.5q14 0 17 -12z" />
<glyph unicode="&#x173;" horiz-adv-x="1053" d="M922 -280q-68 -50 -152 -50t-124 34t-40 78q0 130 149 219q-44 8 -44 54v8l13 179q-80 -127 -181 -191.5t-220 -64.5t-181 97q-47 72 -47 186q0 44 5 87l73 622h175l-74 -622q-4 -34 -4 -67q0 -157 129 -157q95 0 192 93.5t152 247.5l60 505h175l-118 -978l-110 -108 q-12 -24 -12 -53q0 -30 19 -48q18 -19 44 -19q25 0 39 4q14 3 23 8q9 4 15 8q5 3 9 3q14 0 17 -12z" />
<glyph unicode="&#x174;" horiz-adv-x="1693" d="M1303 1451h-112q-23 0 -35 14l-96 121q-7 7 -13 16l-143 -137q-17 -14 -39 -14h-118l231 254h158zM172 1314h143q21 0 35 -11.5t16 -30.5l126 -907q7 -48 10 -112q9 31 19.5 59.5t20.5 53.5l384 905q7 17 24 30t39 13h49q22 0 35 -11.5t17 -30.5l161 -907 q4 -24 7.5 -51.5t4.5 -57.5q9 30 18.5 58t18.5 51l348 906q7 17 24.5 30t38.5 13h133l-532 -1314h-153l-172 996q-3 14 -5 30.5t-5 35.5q-6 -19 -12 -35.5t-12 -30.5l-418 -996h-153z" />
<glyph unicode="&#x175;" horiz-adv-x="1464" d="M1086 1115h-112q-23 0 -35 14l-96 121q-7 7 -13 16l-143 -137q-17 -14 -39 -14h-118l231 254h158zM76 978h130q42 0 49 -37l101 -623q8 -57 13 -131q13 37 51 130l286 629q15 34 49 34h73q39 0 44 -33l123 -629q16 -93 20 -131q20 70 44 129l265 626q14 36 50 36h127 l-430 -978h-133q-24 0 -30 33l-135 659q-6 31 -9 63q-10 -32 -24 -64l-303 -658q-14 -33 -40 -33h-127z" />
<glyph unicode="&#x176;" horiz-adv-x="928" d="M920 1451h-112q-23 0 -35 14l-96 121q-7 7 -13 16l-143 -137q-17 -14 -39 -14h-118l231 254h158zM613 525l-64 -525h-170l65 523l-283 791h149q21 0 33.5 -11.5t19.5 -30.5l147 -507q12 -31 20.5 -58.5t14.5 -54.5q13 27 28 54.5t34 57.5l270 508q9 15 24.5 28.5 t37.5 13.5h150z" />
<glyph unicode="&#x177;" horiz-adv-x="916" d="M816 1115h-112q-23 0 -35 14l-96 121q-7 7 -13 16l-143 -137q-17 -14 -39 -14h-118l231 254h158zM952 978l-443 -930l-90 -192q-12 -25 -15 -32q-74 -138 -219 -138q-69 0 -89 15.5t-17 46.5l7 63h39q77 7 109 35.5t111 181.5l15 30l-247 920h141q37 0 46 -36l147 -612 q14 -59 18 -84q6 17 36 86l269 610q6 14 21 25t30 11h131zM307 -290z" />
<glyph unicode="&#x178;" horiz-adv-x="928" d="M931 1561q-3 -23 -14 -43t-27 -35t-36 -23.5t-41 -8.5t-38.5 8.5t-30 23.5t-17.5 35t-3 43q3 23 13.5 43t26.5 35t35.5 24t40.5 9q20 0 38.5 -9t31 -24t18.5 -35t3 -43zM587 1561q-3 -23 -14 -43t-27 -35t-36 -23.5t-41 -8.5t-38.5 8.5t-30 23.5t-18 35t-2.5 43t13.5 43 t26 35t35.5 24t41 9q20 0 38.5 -9t31 -24t18.5 -35t3 -43zM613 525l-64 -525h-170l65 523l-283 791h149q21 0 33.5 -11.5t19.5 -30.5l147 -507q12 -31 20.5 -58.5t14.5 -54.5q13 27 28 54.5t34 57.5l270 508q9 15 24.5 28.5t37.5 13.5h150z" />
<glyph unicode="&#x179;" horiz-adv-x="889" d="M996 1725l-241 -248q-24 -26 -62 -26h-101l161 233q27 41 78 41h165zM1007 1314l-9 -67q-4 -32 -25 -60l-699 -1039h577l-18 -148h-782l9 71q2 15 8 28t15 25l699 1042h-556l18 148h763z" />
<glyph unicode="&#x17a;" horiz-adv-x="809" d="M851 1389l-241 -248q-24 -26 -62 -26h-101l161 233q27 41 78 41h165zM803 904q-6 -36 -31 -68l-544 -699h465l-17 -137h-673l8 73q5 31 31 63l545 705h-456l18 137h663z" />
<glyph unicode="&#x17b;" horiz-adv-x="889" d="M742 1485.5q-38 -34.5 -87 -34.5q-50 0 -86 36t-36 74q0 62 36 100t86 38q51 0 78 -27q47 -47 47 -99.5t-38 -87zM1007 1314l-9 -67q-4 -32 -25 -60l-699 -1039h577l-18 -148h-782l9 71q2 15 8 28t15 25l699 1042h-556l18 148h763z" />
<glyph unicode="&#x17c;" horiz-adv-x="809" d="M597 1149.5q-38 -34.5 -87 -34.5q-50 0 -86 36t-36 74q0 62 36 100t86 38q51 0 78 -27q47 -47 47 -99.5t-38 -87zM803 904q-6 -36 -31 -68l-544 -699h465l-17 -137h-673l8 73q5 31 31 63l545 705h-456l18 137h663z" />
<glyph unicode="&#x17d;" horiz-adv-x="889" d="M395 1705h118q20 0 34 -14l96 -123l13 -19q5 5 9 10t9 9l126 123q14 14 39 14h113l-231 -254h-157zM1007 1314l-9 -67q-4 -32 -25 -60l-699 -1039h577l-18 -148h-782l9 71q2 15 8 28t15 25l699 1042h-556l18 148h763z" />
<glyph unicode="&#x17e;" horiz-adv-x="809" d="M250 1369h118q20 0 34 -14l96 -123l13 -19q5 5 9 10t9 9l126 123q14 14 39 14h113l-231 -254h-157zM803 904q-6 -36 -31 -68l-544 -699h465l-17 -137h-673l8 73q5 31 31 63l545 705h-456l18 137h663z" />
<glyph unicode="&#x17f;" horiz-adv-x="497" d="M269 32l-47 -198q-16 -74 -89 -74h-68l131 1071l-108 14q-41 6 -41 35q0 4 1 8l8 70h155l12 95q20 165 116.5 257.5t246.5 92.5q56 0 112 -20l-16 -87q-4 -19 -41 -19h-11q-14 1 -44 1q-73 0 -124.5 -54t-67.5 -176z" />
<glyph unicode="&#x180;" horiz-adv-x="1053" d="M538 -14q-164 0 -250 138l-21 -88q-9 -36 -46 -36h-110l136 1104h-139l13 107h139l26 210h170l-26 -210h220l-12 -107h-221l-36 -287q151 155 329 155q145 0 226 -100.5t81 -287.5q0 -264 -132.5 -431t-346.5 -167zM842 574q0 264 -203 264q-147 0 -273 -149l-57 -456 q69 -116 207 -116h2q234 0 302 259q22 86 22 198z" />
<glyph unicode="&#x181;" horiz-adv-x="1222" d="M960 675q214 -52 214 -258q0 -187 -118.5 -302t-322.5 -115h-399l146 1184h-18q-196 0 -196 -208q0 -26 2 -48q1 -6 1 -12q0 -40 -38 -49l-104 -23q-12 67 -12 131.5t25 130.5t72 112q98 96 268 96h378q270 0 334 -170q22 -61 22 -124q0 -54 -16 -109q-53 -176 -238 -236 zM749 138q251 0 251 287q0 74 -48 124.5t-149 50.5h-220l-56 -462h222zM1035 993q0 183 -196 183h-186l-55 -452h180q188 0 240 159q16 50 17 110z" />
<glyph unicode="&#x182;" horiz-adv-x="1101" d="M1067 1238h-618l-56 -452h227q197 0 294.5 -86t97.5 -235q0 -213 -131.5 -339t-357.5 -126h-409l170 1383h801zM827 441q0 200 -226 200h-225l-61 -496h226q213 1 269 173q17 51 17 116v7z" />
<glyph unicode="&#x183;" horiz-adv-x="1053" d="M538 -14q-164 0 -250 138l-22 -88q-7 -36 -46 -36h-109l175 1421h759l-14 -123h-590l-57 -461q150 156 328 156q144 -1 225 -105q80 -103 80 -288q0 -270 -133 -442t-346 -172zM842 586q0 272 -200 272q-148 0 -274 -149l-59 -476q69 -116 213 -116t232 124t88 345z" />
<glyph unicode="&#x184;" horiz-adv-x="1088" d="M469 831h222q178 -1 272 -102t94 -258q0 -202 -122 -336q-123 -135 -335 -135h-408l106 869h-1l-159 124l262 321h129zM452 691l-59 -488l-7 -65h229q137 0 203 99q65 98 65 235q0 144 -111 200q-38 19 -92 19h-228z" />
<glyph unicode="&#x185;" horiz-adv-x="1076" d="M387 836q153 157 337 157q148 0 231 -104.5t83 -295.5q0 -265 -136 -436t-352 -171q-96 0 -156 36.5t-102 102.5l-22 -89q-9 -36 -45 -36h-111l122 993l-171 118l267 310h127zM863 584q0 274 -209 274q-152 0 -282 -149l-59 -477q71 -115 219 -115l1 1q149 0 239 123 t91 343z" />
<glyph unicode="&#x186;" horiz-adv-x="1070" d="M191 1162q168 166 392.5 166t355.5 -158.5t131 -411.5q0 -338 -177.5 -555t-446.5 -217t-392 197l79 75q11 11 27 11t28 -13q52 -64 108 -92t148 -28q187 0 316.5 167t129.5 448q0 195 -86 310t-230.5 115t-263.5 -97q-22 -18 -40.5 -18t-31.5 20z" />
<glyph unicode="&#x187;" horiz-adv-x="1070" d="M501 1271q118 57 249.5 57t233.5 -55q14 225 154 299q51 27 129.5 27t148.5 -32l-34 -91q-13 -31 -37 -31q-7 0 -14 2q-35 11 -81.5 11t-78.5 -51.5t-44 -145.5l-13 -99l-68 -81q-18 -20 -36 -20h-2q-18 0 -35 17q-100 98 -216 98q-214 0 -340.5 -167t-126.5 -442 q0 -197 88 -314t229 -117q94 0 159 28.5t130 91.5q14 13 30 13t25 -11l60 -75q-170 -197 -434 -197q-217 0 -342 156.5t-125 408.5q0 340 186 560q87 103 205 160z" />
<glyph unicode="&#x188;" horiz-adv-x="852" d="M382.5 948.5q92.5 44.5 192 44.5t168.5 -27l9 75q24 207 162 277q48 24 117.5 24t142.5 -35l-28 -73q-12 -34 -42 -34q-12 0 -32 7.5t-49 7.5q-58 0 -85.5 -44t-37.5 -122l-22 -182l-1 -1h1l-52 -61q-19 -21 -39 -21q-15 0 -29 12q-77 64 -163 64h-3q-159 0 -241 -120 q-83 -122 -83 -326q0 -140 58 -218t154 -79l1 1q97 0 167 48q26 18 44.5 33t37 15t28.5 -16l40 -62q-138 -150 -357 -150q-155 0 -251 113.5t-96 307.5q0 257 132 419q64 78 156.5 122.5z" />
<glyph unicode="&#x189;" horiz-adv-x="1279" d="M126 716h143l74 598h408q121 0 214 -47.5t154 -133.5q61 -85 85 -207q14 -69 14 -148q0 -58 -8 -121q-18 -148 -72 -269t-136 -207.5t-186.5 -133.5t-225.5 -47h-409l75 610h-143zM1036 657q8 62 8 117q0 52 -7 98q-14 94 -53.5 160t-103 100.5t-147.5 34.5h-237 l-56 -451h210l-13 -106h-210l-56 -463h237q84 0 156 34.5t127.5 100t92.5 160.5t52 215z" />
<glyph unicode="&#x18a;" horiz-adv-x="1368" d="M127 844q-12 68 -12 132q0 146 97 242t266 96h427q215 0 342 -152.5t127 -400.5q0 -339 -178.5 -550t-452.5 -211h-410l146 1184h-18q-155 0 -185 -122q-10 -38 -10 -82t2 -59q1 -6 1 -11q0 -34 -38 -43zM1162.5 498.5q31.5 113.5 31.5 233.5q0 217 -82.5 328.5 t-226.5 111.5h-233l-124 -1030h234q194 0 312 164q57 79 88.5 192.5z" />
<glyph unicode="&#x18b;" horiz-adv-x="1058" d="M811 747l52 429h-592l17 138h769l-161 -1314h-394q-178 0 -275 90q-96 90 -96 245q0 293 255 381q88 30 208 31h217zM421 153q41 -15 99 -15h217l57 471h-218q-140 0 -206.5 -68.5t-66.5 -206.5t118 -181z" />
<glyph unicode="&#x18c;" horiz-adv-x="1053" d="M574 994q156 0 244 -115l52 419h-589l14 123h760l-174 -1421h-102q-38 0 -38 35l-3 120q-151 -169 -338 -169q-142 0 -224 105t-82 295q0 264 134 436t346 172zM269 394q0 -271 202 -271q149 0 273 149l58 475q-68 116 -212 116t-232 -124t-89 -345z" />
<glyph unicode="&#x18d;" horiz-adv-x="1072" d="M1082 993q0 -377 -418 -510q94 -60 127 -98q64 -71 64 -135q0 -123 -90.5 -192.5t-264 -69.5t-335.5 36l24 102q9 38 46 38q17 0 47 -6q161 -36 235 -36q177 0 177 100q0 54 -84 114q-38 28 -86.5 57t-98.5 63q-122 83 -195.5 183.5t-73.5 230.5q0 239 144 380.5 t355 141.5t319 -112t108 -287zM562 548q345 113 345 436q0 190 -138 256q-47 22 -115 22q-141 0 -234 -98q-93 -97 -93 -265q0 -170 147 -287q42 -34 88 -64z" />
<glyph unicode="&#x18e;" horiz-adv-x="925" d="M955 1314l-162 -1314h-714l17 148h544l55 444h-437l17 143h438l52 431h-543l19 148h714z" />
<glyph unicode="&#x18f;" horiz-adv-x="1221" d="M591 -13q-108 0 -194.5 39t-144.5 114t-81 182q-14 65 -14 138q0 49 7 111q6 53 20 73q13 18 43 18h829q5 54 5 99q0 70 -11 123q-21 101 -63 159q-46 64 -117 97q-71 32 -165 32q-80 0 -140 -20.5t-104.5 -45t-75 -45t-53.5 -20.5q-14 0 -23.5 6.5t-15.5 15.5l-42 68 q51 54 110 92.5t122 63t129 35.5t132 11q123 0 222 -46t164 -135q64 -90 91 -219q15 -72 15 -159q0 -64 -9 -140q-16 -135 -69 -255q-53 -118 -135.5 -205t-192 -137t-239.5 -50zM610 139q82 0 150.5 28t122.5 80t92.5 125t59.5 163h-711q-5 -38 -5 -72q1 -50 9 -90 q14 -72 52 -125q37 -52 95.5 -80.5t134.5 -28.5z" />
<glyph unicode="&#x190;" horiz-adv-x="970" d="M924 186q-174 -199 -460 -199q-157 0 -268 93.5t-111 256.5q0 126 75 228q76 103 206 151q-181 58 -181 235q1 155 133 266q134 111 353.5 111t349.5 -145l-48 -67q-21 -30 -42.5 -30t-40.5 15q-103 81 -211 81t-158.5 -19t-84.5 -51q-66 -65 -66 -157.5t63.5 -137 t171.5 -44.5h195l-15 -128h-209h-3q-142 0 -223 -83q-82 -84 -82 -190.5t69 -171.5q68 -65 202 -65q1 1 3 1q136 0 234 92q48 44 66 44t26 -11z" />
<glyph unicode="&#x191;" horiz-adv-x="941" d="M274 1314h741l-18 -143h-563l-57 -462h481l-18 -143h-481l-59 -483h1l-10 -80q-29 -241 -191 -313q-54 -24 -135.5 -24t-155.5 32l34 91q12 30 38 30q7 0 14 -2q37 -10 87.5 -10t85.5 51t46 145z" />
<glyph unicode="&#x192;" horiz-adv-x="1020" d="M637 742l-163 -707q-47 -197 -165 -286t-311 -89l12 89q10 54 56 54q186 0 240 237l163 697l-130 16q-35 4 -35 34q0 4 1 8l10 70h184l38 163q45 189 161.5 282t313.5 93l-12 -93q-6 -50 -54 -50q-193 0 -246 -237l-38 -158h280l-17 -123h-288z" />
<glyph unicode="&#x193;" horiz-adv-x="1292" d="M1235 1163l-58 -82q-14 -20 -33 -25t-38 9q-20 13 -43.5 31.5t-57 35t-80.5 28.5t-113 12q-98 0 -181 -36t-147 -103q-64 -68 -106 -163q-39 -90 -55 -213q-7 -54 -7 -94v-10q0 -61 11 -117q19 -98 67 -165t122 -102.5t167 -35.5q46 0 85 5t74.5 14.5t68 23.5t63.5 31 l36 288h-177q-17 0 -26 10t-7 25l13 103h367l-62 -506q-49 -35 -100.5 -61.5t-108 -44t-120.5 -26.5t-138 -9q-128 0 -229 49t-168 137q-67 90 -94 212q-17 77 -17 160q0 55 7 113q18 149 76 273q57 124 147 212.5t207.5 137.5t257.5 49q84 0 150.5 -16.5t120.5 -45.5l4 34 q7 60 26.5 114.5t53.5 95.5t83.5 65.5t116.5 24.5q48 0 83.5 -8.5t72.5 -24.5l-34 -94q-10 -26 -26 -30.5t-31 0.5t-32.5 7.5t-34.5 2.5q-62 0 -97 -49.5t-47 -143.5z" />
<glyph unicode="&#x194;" horiz-adv-x="1162" d="M522 542l-381 772h171q19 0 27 -7.5t16 -21.5l295 -625l430 625q19 28 42 28h169l-567 -778l283 -535h-903zM601 431q-15 -30 -37 -61l-148 -215q-9 -12 -23 -20h366q-14 10 -22 26z" />
<glyph unicode="&#x195;" horiz-adv-x="1571" d="M934 291q0 -178 163 -178q188 0 218 241l77 623h170l-77 -623q-32 -264 -240 -342q-71 -26 -163 -26t-157 26q-161 67 -161 269q0 35 5 73l33 269q4 31 4 57q0 178 -169 178q-135 0 -265 -136l-88 -722h-171l175 1421h169l-70 -573q149 146 308 146h2q158 0 228 -102 q52 -74 52 -195q0 -35 -5 -74l-33 -269q-5 -34 -5 -63z" />
<glyph unicode="&#x196;" horiz-adv-x="592" d="M354 236q0 -113 110 -113h75l-8 -58q-11 -75 -137 -75t-179 76q-41 58 -41 146q0 27 4 56l128 1046h178l-127 -1036q-3 -23 -3 -42z" />
<glyph unicode="&#x197;" horiz-adv-x="580" d="M99 763h164l77 620h186l-76 -620h165l-15 -109h-164l-80 -654h-187l81 654h-166z" />
<glyph unicode="&#x198;" horiz-adv-x="1064" d="M373 740h49q27 0 47 8.5t40 37.5l226 375q61 89 130.5 127t158.5 38q46 0 75 -8t52 -20l-29 -92q-8 -26 -23 -30t-30 0q-10 3 -24.5 6t-29.5 3q-40 0 -73.5 -22t-59.5 -63l-202 -336q-19 -27 -40 -45t-43 -29q23 -9 41 -25.5t33 -43.5l303 -621h-149q-31 0 -44.5 10.5 t-23.5 27.5l-254 516q-13 23 -30 34.5t-50 11.5h-67l-74 -600h-169l161 1315h170z" />
<glyph unicode="&#x199;" horiz-adv-x="931" d="M339 586h34q16 0 27 5t24 22l263 331q14 16 28 25t33 9h137l-310 -385q-14 -15 -27.5 -27.5t-27.5 -22.5q13 -11 22.5 -26.5t19.5 -32.5l220 -484h-135q-18 0 -31 7.5t-21 25.5l-180 401q-10 20 -19.5 26.5t-32.5 6.5h-38l-58 -467h-156l128 1044q10 79 33.5 144.5 t61.5 112t90.5 72t121.5 25.5q38 0 67 -8.5t61 -26.5l-26 -76q-7 -22 -17 -28.5t-21 -6.5q-10 0 -24 7t-41 7q-122 0 -147 -202z" />
<glyph unicode="&#x19a;" horiz-adv-x="577" d="M252 804l74 618h173l-75 -618h133l-16 -123h-132l-82 -681h-172l82 681h-133l15 123h133z" />
<glyph unicode="&#x19b;" horiz-adv-x="948" d="M261 1026l175 65l-15 76q-12 59 -38.5 81t-87.5 22h-65l8 63q5 64 116 64q174 0 212 -165l18 -86l179 66l23 -101l-180 -67l176 -820q12 -57 37 -82t76 -25h54l-9 -69q-5 -34 -29 -46q-25 -12 -65 -12q-82 0 -135 39t-75 144l-95 470q-6 26 -12 76q-8 -26 -31 -73 l-276 -611q-18 -35 -56 -35h-147l459 891l-20 97l-174 -64z" />
<glyph unicode="&#x19c;" horiz-adv-x="1707" d="M457 -14q-314 0 -314 369q0 58 8 124l103 835h176l-102 -835q-6 -49 -6 -87q0 -112 36 -179q49 -91 153.5 -91t181.5 91.5t98 265.5l103 835h177l-102 -835q-8 -61 -8 -112q0 -164 84 -220q37 -25 104.5 -25t141.5 69.5t130 202.5l114 920h177l-161 -1311h-92 q-48 0 -48 47l-1 168q-139 -232 -328 -232q-111 0 -175 64t-86 174q-97 -178 -265 -224q-50 -14 -99 -14z" />
<glyph unicode="&#x19d;" horiz-adv-x="1229" d="M302 1314h88q22 0 32 -5.5t22 -25.5l543 -983q1 24 2.5 47.5t4.5 43.5l113 923h149l-162 -1314h-86q-20 0 -33 7t-24 25l-541 979q-3 -44 -7 -83l-117 -950q-9 -75 -30.5 -138t-57 -108t-86.5 -70t-118 -25q-48 0 -83 8.5t-72 24.5l34 94q9 26 25 31t32 0q15 -5 32 -8 t35 -3q61 0 95 50t46 144z" />
<glyph unicode="&#x19e;" horiz-adv-x="1100" d="M812 -330h-156l112 914q4 29 4 55q0 65 -24 107q-33 58 -113 59q-60 0 -116 -33.5t-108 -92.5l-85 -693h-156l84 683q3 21 3 39v5q1 38 -15 61q-23 33 -72 33h-35l9 71q3 23 23.5 41.5t65.5 18.5q65 0 109.5 -37t54.5 -114q64 72 139 114.5t162 42.5q66 0 113.5 -25.5 t76 -72t37.5 -112.5q4 -31 4 -66q0 -38 -5 -80z" />
<glyph unicode="&#x19f;" horiz-adv-x="1356" d="M1273 657q-18 -148 -73.5 -271t-140.5 -212t-194.5 -138.5t-236.5 -49.5q-126 0 -223.5 49.5t-161 138.5t-89.5 212q-15 73 -15 154q0 56 7 117q18 147 74 270.5t141.5 213t196 139t235.5 49.5q126 0 224 -49.5t161 -139.5q63 -88 88 -212q15 -74 15 -152q0 -57 -8 -119z M648 143q84 0 156.5 31t129.5 90t97.5 143.5t60.5 192.5h-778q-2 -28 -2 -54q0 -74 15 -138q20 -84 63 -143.5t108.5 -90.5t149.5 -31zM774 1172q-82 0 -153 -29.5t-127.5 -85.5t-97.5 -136.5t-63 -182.5h774v25q0 87 -18 157q-21 80 -64 136.5t-106.5 86t-144.5 29.5z" />
<glyph unicode="&#x1a0;" horiz-adv-x="1326" d="M1264 657q-18 -148 -73.5 -271t-139.5 -212t-193.5 -138.5t-234.5 -49.5t-222 49.5t-160 138.5q-64 90 -89 212q-14 68 -14 143v10q0 57 7 118q18 147 74 270.5t140.5 213t194 139t234.5 49.5q129 0 227 -52t160 -146q54 11 87 41t38 73q2 19 -2 32t-9 25t-8.5 26 t-1.5 35q10 80 101 80h86q2 -20 2 -46t-3 -54q-14 -112 -77.5 -189t-168.5 -103q35 -81 47 -181q5 -45 6 -92q0 -58 -8 -121zM1091 657q7 59 7 112q0 55 -8 103q-16 96 -57.5 162.5t-108.5 102t-156 35.5q-88 0 -164 -35.5t-134.5 -102t-97.5 -162t-54 -215.5 q-7 -58 -7 -110q0 -55 8 -105q16 -96 58 -162.5t109.5 -101.5t155.5 -35t164 35t134.5 101.5t97 162t53.5 215.5z" />
<glyph unicode="&#x1a1;" horiz-adv-x="1155" d="M1244 1125q4 -20 4 -69q0 -113 -70 -198.5t-202 -109.5q29 -82 29 -197.5t-37.5 -222.5t-105.5 -183q-142 -159 -372 -159q-183 0 -288.5 115.5t-105.5 311.5q0 261 142.5 420.5t371.5 159.5t332 -173q66 11 104.5 46.5t38.5 82.5q-1 15 -16 43t-15 49q0 84 102 84h88z M402 138q44 -20 114 -20q151 0 232.5 120.5t81.5 331t-130 270.5q-44 20 -115 20q-152 0 -234 -120q-81 -120 -81 -328q0 -213 132 -274z" />
<glyph unicode="&#x1a2;" horiz-adv-x="1583" d="M1046 1185q141 141 275.5 141t190.5 -86q43 -65 43 -168q0 -33 -4 -70l-162 -1322h-177l161 1322q3 22 3 40q0 54 -22 97t-72 43q-85 0 -176 -89q69 -138 69 -317q0 -349 -171 -569t-443 -220q-209 0 -329 154t-120 405q0 340 171.5 561t442.5 221q200 0 320 -143z M592 134q80 0 156 44t131 126q116 173 116 457q-1 193 -78 306.5t-211 113.5q-183 0 -298.5 -172.5t-115.5 -455.5q0 -193 77 -306t223 -113z" />
<glyph unicode="&#x1a3;" horiz-adv-x="1262" d="M793 883q105 109 230 109q198 0 198 -249q0 -42 -6 -92l-120 -982h-169l120 983q4 42 4 79q0 125 -84 125q-57 0 -122 -58l4 -8l-55 -466q-17 -126 -115.5 -232t-256 -106t-247 112.5t-89.5 301.5q1 264 128 428.5t330 164.5q157 0 250 -110zM260 414q0 -296 177 -296 q92 0 143 77q34 52 43 127l51 438q-38 100 -149 100q-197 0 -249 -276q-16 -86 -16 -170z" />
<glyph unicode="&#x1a4;" horiz-adv-x="1162" d="M590 490l-60 -490h-170l145 1179h-18q-95 0 -141 -45t-56 -128q-3 -24 -2.5 -47t1.5 -37q2 -18 -4 -34.5t-31 -22.5l-100 -24q-12 56 -12 81v27q-1 22 3 58q7 67 37 127q28 57 74 97t108.5 61.5t139.5 21.5h353q106 0 181 -29t120 -82q42 -49 60 -129q10 -44 10 -94 q-1 -38 -5 -74q-10 -90 -47 -168q-36 -76 -95.5 -131.5t-140.5 -86t-184 -30.5h-166zM607 634h167q60 0 108.5 20t84.5 56t57 86q23 53 30 110q3 25 3 53v4v4v4v3v3q0 70 -41 125q-52 69 -176 69h-167z" />
<glyph unicode="&#x1a5;" horiz-adv-x="1053" d="M539 -14q-160 0 -244 128l-54 -445h-170l159 1300l10 77q32 252 214 326q61 26 139 26h3q80 0 157 -36l-28 -73q-13 -34 -43 -34q-11 0 -30 7t-55 7q-159 0 -185 -204l-29 -229q148 157 329 157q144 0 225 -104.5t81 -293.5q0 -265 -133 -437t-346 -172zM843 586 q0 272 -201 272q-150 0 -274 -149l-58 -476q69 -116 212.5 -116t231.5 124t89 345z" />
<glyph unicode="&#x1a6;" horiz-adv-x="1031" d="M354 347l-43 -347h-169l163 1328h169l-26 -212h177q115 0 196.5 -25.5t130.5 -72.5q44 -44 66 -116q13 -43 13 -94q-1 -28 -4 -57q-7 -66 -37 -131q-27 -60 -71.5 -108t-103.5 -82t-131 -52q30 -20 51 -56l284 -520h-151q-45 0 -63 36l-251 469q-12 22 -28 31t-49 9h-123 zM370 480h169q71 0 127.5 18.5t96.5 52.5t65 81q23 46 31 105q3 22 3 42q-3 193 -255 193h-176z" />
<glyph unicode="&#x1a7;" horiz-adv-x="872" d="M249 1193q69 66 154.5 101t183.5 35q87 0 151 -29.5t104 -79.5q38 -47 56 -114q11 -41 11 -88q-1 -23 -3 -46q-7 -79 -42 -146q-31 -59 -75 -100t-96.5 -68t-107.5 -48.5t-106.5 -41.5t-94 -48t-71.5 -68q-27 -37 -36 -100q-3 -24 -3 -40q2 -77 41 -120q51 -55 152 -55 q65 0 114 20.5t84.5 45t59.5 45t41 20.5q13 0 22.5 -6.5t14.5 -17.5l39 -86q-75 -79 -175.5 -125.5t-213.5 -46.5q-92 0 -161 28t-113 78t-61 122q-11 47 -11 95q0 32 4 62q11 82 41 137q30 56 74 96t97 68t107.5 50.5t106.5 44t94.5 49.5t71 66.5t35.5 94.5q2 16 2 31 q0 25 -5 46q-9 38 -29 64q-22 28 -56.5 44t-83.5 16q-54 0 -94.5 -15.5t-70.5 -34t-50.5 -34t-34.5 -15.5t-22 6.5t-14 20.5z" />
<glyph unicode="&#x1a8;" horiz-adv-x="797" d="M719 104q-135 -119 -337 -119q-142 0 -222 68q-79 67 -79 177v3v2q0 177 171 263q57 29 152.5 64t133.5 57q85 49 85 124q0 53 -42 88t-102 35t-94 -11t-60 -23.5t-45 -23.5t-36.5 -11t-28.5 21l-30 61q125 114 310 114h4q133 0 209 -65q77 -66 77 -173q0 -173 -172 -255 q-50 -25 -150 -61.5t-138 -60.5q-85 -53 -85 -140.5t92 -121.5q31 -12 77 -12h3q48 0 86 14t65.5 30.5t47 30.5t42 14t35.5 -25z" />
<glyph unicode="&#x1a9;" horiz-adv-x="939" d="M242 129q51 8 109 8h524l-19 -137h-821l9 66q3 31 41 74l423 512l-308 534q-15 20 -15 42q0 5 1 10l10 76h822l-19 -138h-502q-71 0 -133 12q69 -42 99 -97l158 -332q30 -53 30 -85v-7q-4 -33 -55 -90l-270 -366q-53 -62 -84 -82z" />
<glyph unicode="&#x1aa;" horiz-adv-x="882" d="M793 -319q-80 -34 -153 -34h-3q-141 0 -201 93q-45 70 -45 179q0 37 5 79l115 944q-60 -41 -125 -41q-115 0 -174 66q-59 67 -59 161q0 163 90 254q90 93 221.5 93t189 -75.5t58.5 -183.5q0 -29 -4 -61l-144 -1177q-4 -32 -4 -58q0 -145 115 -145q30 0 47.5 6.5t29.5 6.5 q28 0 32 -34zM509.5 1074q36.5 52 36.5 131q0 146 -96 146q-63 0 -100 -53t-37 -132q0 -144 97 -144q63 0 99.5 52z" />
<glyph unicode="&#x1ab;" horiz-adv-x="686" d="M473 8q-50 -24 -101 -24q-47 0 -95 21q-99 42 -99 178q0 24 4 51l73 601h-112q-15 0 -24 10q-7 8 -7 22v6l7 67l158 19l78 304q9 32 42 32h86l-42 -337h273l-14 -123h-274l-73 -590q-2 -15 -2 -29q0 -42 19 -64q25 -30 60 -30h2q36 0 55.5 8t34 16.5t25 16t18.5 7.5h73 q1 0 2 1v-1l-28 -223q-28 -207 -166 -275q-54 -26 -114 -26q-70 0 -149 36l22 68q13 34 43 34q11 0 32.5 -7.5t67.5 -7.5q94 0 116 166z" />
<glyph unicode="&#x1ac;" horiz-adv-x="1009" d="M1150 1314l-18 -152h-343l-143 -1162h-169l142 1162h-135q-49 0 -84 -10t-58 -29.5t-35.5 -49.5t-17.5 -69q-3 -23 -2 -45.5t2 -36.5q2 -18 -4 -34.5t-31 -22.5l-100 -24q-8 31 -12 81q-1 11 -1 23q2 44 4 62q7 67 37 127q28 57 74 97t107.5 61.5t138.5 21.5h648z" />
<glyph unicode="&#x1ad;" horiz-adv-x="686" d="M627 73q-103 -88 -228.5 -88t-172.5 57t-47 141q0 24 3 51l73 601h-113q-14 0 -23 10q-7 8 -7 22v6l7 67l158 20l58 215q59 223 261 223q77 0 141 -31l-21 -67q-12 -34 -42 -34q-11 0 -28 7t-64 7q-100 0 -122 -169l-19 -153h272l-14 -123h-273l-72 -590q-2 -15 -2 -29 q0 -41 18 -63q24 -30 60.5 -30t56 7.5t34 16t25 16t18.5 7.5q12 0 22 -16z" />
<glyph unicode="&#x1ae;" horiz-adv-x="927" d="M1067 1314l-19 -152h-356l-148 -1207q-4 -32 -4 -54q1 -54 16 -87q22 -51 85 -51q27 0 45.5 6.5t28.5 6.5q9 0 19 -6t12 -27l8 -73q-37 -17 -71.5 -25t-74.5 -8q-73 0 -122.5 24.5t-76.5 68.5q-29 47 -35 106q-3 29 -3 60q0 38 5 78l146 1188h-357l18 152h884z" />
<glyph unicode="&#x1af;" horiz-adv-x="1371" d="M604 144q70 0 128.5 27.5t102.5 77t72.5 117.5t38.5 150l98 798h169l-23 -188q76 1 123.5 34.5t54.5 84.5q2 19 -2.5 32t-10 25t-9.5 26t-1 35q10 80 102 80h86q3 -20 3 -46t-4 -54q-8 -68 -36 -124t-73 -95.5t-106.5 -61.5t-136.5 -23l-65 -523q-14 -114 -58 -211 t-113 -168t-160.5 -111.5t-199.5 -40.5t-189 40.5t-133 111.5q-50 70 -72 168q-13 58 -13 123q1 45 6 88l98 798h170l-98 -797q-5 -37 -5 -64v-9q0 -42 6 -78q11 -67 44 -118q33 -49 84 -76.5t122 -27.5z" />
<glyph unicode="&#x1b0;" horiz-adv-x="1211" d="M735 142q-155 -158 -319 -158h-2q-163 0 -231 100q-53 77 -53 194q0 36 5 76l75 623h172l-77 -623q-4 -31 -4 -57q0 -178 168 -178q136 0 269 135l89 723h170l-20 -160q76 8 120 44.5t44 87.5q-1 17 -16 42q-14 23 -14 47v3q0 84 102 84h88q3 -15 3 -70.5t-22 -115 t-66 -101.5q-91 -90 -248 -97l-91 -741h-102q-38 0 -38 35z" />
<glyph unicode="&#x1b1;" horiz-adv-x="1360" d="M572 1178q-86 -12 -145 -12h-240l11 90q3 25 21 41.5t45 16.5h450l-25 -203q-158 -32 -274 -197.5t-116 -367t104 -305.5t265 -104q202 0 344 141t142 396q0 166 -74 289.5t-192 147.5l25 203h450q27 0 42 -16q13 -14 13 -34q0 -4 -1 -8l-11 -90h-240q-53 0 -147 13 q143 -53 227 -189q83 -134 83 -311q0 -309 -200 -501t-479 -192q-230 0 -379 150q-148 149 -148 386v3v4q0 230 127 407q128 179 322 242z" />
<glyph unicode="&#x1b2;" horiz-adv-x="1314" d="M1149 1020q0 167 -115 167q-36 0 -61.5 -6.5t-34.5 -6.5t-21 4t-14 27l-13 90q89 33 171 33q264 0 264 -307q0 -275 -131.5 -514t-333.5 -380.5t-403 -141.5q-247 0 -289 236q-7 40 -7 88.5t7 104.5l112 900h175l-110 -900q-6 -45 -6 -84q0 -196 160 -196q141 0 291 117 q245 191 330 527q29 115 29 242z" />
<glyph unicode="&#x1b3;" horiz-adv-x="998" d="M578 530l-64 -530h-176l65 525l-266 789h155q39 0 53 -41l133 -512q23 -70 31 -110q23 51 62 109l182 378q112 189 246 189q60 0 88.5 -8t60.5 -25l-35 -85q-12 -31 -38 -31q-9 0 -19 3q-24 12 -54 12q-54 0 -107 -98z" />
<glyph unicode="&#x1b4;" horiz-adv-x="1020" d="M320 -289q-23 -42 -64 -42h-126l205 386l-233 922h148q37 0 45 -36l132 -620q10 -39 14 -82q18 42 38 84l214 499q76 171 248 171q68 0 128 -31l-22 -68q-12 -34 -43 -34q-10 0 -24 7.5t-41 7.5q-59 0 -93 -74z" />
<glyph unicode="&#x1b5;" horiz-adv-x="889" d="M1007 1314l-9 -67q-4 -32 -25 -60l-299 -444h235l-17 -137h-310l-308 -458h577l-18 -148h-782l9 71q2 15 8 28t15 25l323 482h-229l16 137h305l284 423h-556l18 148h763z" />
<glyph unicode="&#x1b6;" horiz-adv-x="809" d="M131 569h282l216 276h-467l17 132h661l-9 -71q-4 -35 -30 -66l-213 -271h179l-14 -118h-258l-251 -319h477l-18 -132h-671l9 70q4 27 30 61l250 320h-205z" />
<glyph unicode="&#x1b7;" horiz-adv-x="970" d="M1002 1314l-8 -65q-6 -41 -34 -67l-389 -373q185 -6 274 -93t89 -224q0 -222 -158 -364t-352 -142h-2q-194 0 -316 116q-39 36 -67 83l78 77q13 14 33 14t34 -18q93 -123 233 -124h2q155 1 244 99q88 97 88 238q0 146 -145 193q-52 16 -124 17h-140l10 74q5 37 32 60 l370 356h-559l18 143h789z" />
<glyph unicode="&#x1b8;" horiz-adv-x="970" d="M923 185q-173 -198 -433 -198q-72 0 -147 28.5t-131 80.5q-119 112 -119 290v3v2q0 283 245 381q86 34 207 37l-298 373q-19 25 -19 54q0 6 1 13l8 63l-1 2h790l-18 -143h-559l283 -356q19 -22 19 -48q0 -6 -1 -12l-9 -74h-141q-253 -1 -310 -175q-17 -52 -17 -111 q0 -111 65 -185q65 -75 181 -75h3q151 0 271 120q22 21 42 21t30 -14z" />
<glyph unicode="&#x1b9;" horiz-adv-x="936" d="M858 -230q-166 -120 -384 -120t-342 108t-124 284q0 177 129 289q128 111 386 117l-313 383q-27 39 -27 69v6l8 71h764l-12 -132h-559l333 -410q15 -24 15 -43v-6l-4 -54h-189q-271 0 -341 -180q-22 -55 -22 -117q0 -121 82.5 -189t218 -68t263.5 68q26 13 45 13 q27 0 40 -25z" />
<glyph unicode="&#x1ba;" horiz-adv-x="865" d="M495 583q312 -20 316 -242q0 -149 -111 -243t-334 -117q-128 -13 -164.5 -36t-45.5 -41t-9 -47.5t36 -53.5q35 -24 85 -24q70 0 98.5 7t38.5 7q29 0 33 -34l13 -77q-90 -34 -203.5 -34t-184.5 53t-71 148q0 236 346 267q305 26 305 210q0 66 -54 104t-165 38h-160l7 55 q4 28 27 48l348 274h-522l14 132h717l-8 -71q-6 -46 -40 -76z" />
<glyph unicode="&#x1bb;" horiz-adv-x="1004" d="M299 130q79 23 151 23h403q25 1 39 -15q11 -13 12 -32q0 -4 -1 -9l-12 -97h-830l7 55q5 41 37 69l447 424q3 3 6.5 6t6.5 7h-406l15 127h514q134 155 134 304q0 147 -114 186q-34 12 -78 12q-87 0 -156.5 -54.5t-100.5 -142.5q-18 -50 -68 -50q-8 0 -18 1l-84 14 q45 180 167.5 275t278 95t248.5 -85t93 -241q0 -159 -124 -314h157l-15 -127h-259z" />
<glyph unicode="&#x1bc;" horiz-adv-x="983" d="M385 1177q-34 -2 -67 -2h-58q-34 0 -48 17q-12 15 -12 31v5l9 86h814l-9 -71q-11 -78 -105 -78h-370l-141 -339q78 14 163 14q186 0 289.5 -97t103.5 -256q0 -217 -156.5 -359.5t-359.5 -142.5q-281 0 -409 199l69 70q17 17 31.5 17t28.5 -13.5t36 -34.5q92 -89 234 -89 q178 0 266 100q88 99 88 219q0 121 -72 181t-194 60t-234 -34l-99 29z" />
<glyph unicode="&#x1bd;" horiz-adv-x="872" d="M587 446.5q-57 43.5 -158.5 43.5t-187.5 -26l-97 28l159 356q-11 -1 -33 -1h-55q-35 -1 -47 17q-11 15 -10 31v5l8 77h686l-6 -59q-7 -76 -103 -76h-297l-107 -239q64 10 137 10q153 0 240 -71q87 -72 87 -172q0 -182 -126 -281t-309 -99q-230 0 -340 156l55 54 q18 16 32 16t25 -12q32 -34 93 -64t137 -30q135 0 204.5 63.5t69.5 146.5t-57 126.5z" />
<glyph unicode="&#x1be;" horiz-adv-x="767" d="M517 958h232l-16 -123h-231l-5 -40q-1 -13 -1 -26q0 -72 49 -123q25 -26 57 -48q122 -86 122 -216q0 -176 -104 -288q-105 -110 -254.5 -110t-255.5 86q-32 26 -52 58l57 62q15 15 32.5 15t35.5 -14.5t42 -32.5q63 -47 134 -47q89 0 141.5 63t52.5 155.5t-67 152.5 q-28 25 -60 48q-103 74 -103 207q0 25 4 53l6 45h-94q-14 0 -23 10q-7 8 -7 22v6l9 67l136 19l76 304q11 32 42 32h87z" />
<glyph unicode="&#x1bf;" horiz-adv-x="1071" d="M372 824q161 170 371.5 170t280.5 -172q23 -57 23 -147q0 -81 -33 -162q-34 -85 -91 -158q-196 -251 -650 -410l-34 -276h-170l161 1308h100q40 0 40 -35zM815.5 807q-53.5 51 -143.5 51q-172 0 -305 -150l-77 -623q403 153 532 389q47 86 47 184t-53.5 149z" />
<glyph unicode="&#x1c0;" horiz-adv-x="499" d="M326 1480h128l-223 -1817h-128z" />
<glyph unicode="&#x1c1;" horiz-adv-x="809" d="M330 1480h128l-223 -1817h-128zM643 1480h128l-223 -1817h-128z" />
<glyph unicode="&#x1c2;" horiz-adv-x="1175" d="M214 796h353l77 625h170l-77 -625h351l-14 -133h-353l-30 -238h351l-14 -133h-353l-82 -668h-170l82 668h-350l15 133h351l30 238h-352z" />
<glyph unicode="&#x1c3;" horiz-adv-x="667" d="M556 1383l-68 -552q-5 -44 -11.5 -85t-14.5 -83t-17.5 -86t-21.5 -94h-110q1 50 2.5 94t3 86t5 83t8.5 85l68 552h156zM205 107q3 25 14.5 47.5t29 39.5t39.5 26.5t47 9.5q23 0 42.5 -9.5t33 -26.5t19.5 -39.5t3 -47.5q-3 -26 -14.5 -48t-29 -38.5t-39.5 -25.5t-45 -9 q-24 0 -44 9t-33.5 25.5t-19.5 38.5t-3 48z" />
<glyph unicode="&#x1c4;" horiz-adv-x="2056" d="M1562 1705h118q20 0 34 -14l96 -123l13 -19q5 5 9 10t9 9l126 123q14 14 39 14h113l-231 -254h-157zM2174 1314l-9 -67q-4 -32 -25 -60l-699 -1039h577l-18 -148h-782l9 71q2 15 8 28t15 25l699 1042h-556l18 148h763zM1186 657q-18 -148 -73 -269t-139 -207.5 t-192.5 -133.5t-232.5 -47h-423l162 1314h422q125 0 222 -47.5t159 -133.5q61 -85 87 -207q15 -71 15 -152q0 -56 -7 -117zM1013 657q7 59 7 112q0 55 -8 103q-16 94 -58 160t-108.5 100.5t-153.5 34.5h-252l-125 -1020h252q87 0 162 34.5t133.5 100t97 160.5t53.5 215z" />
<glyph unicode="&#x1c5;" horiz-adv-x="1976" d="M1417 1369h118q20 0 34 -14l96 -123l13 -19q5 5 9 10t9 9l126 123q14 14 39 14h113l-231 -254h-157zM1970 904q-6 -36 -31 -68l-544 -699h465l-17 -137h-673l8 73q5 31 31 63l545 705h-456l18 137h663zM1186 657q-18 -148 -73 -269t-139 -207.5t-192.5 -133.5t-232.5 -47 h-423l162 1314h422q125 0 222 -47.5t159 -133.5q61 -85 87 -207q15 -71 15 -152q0 -56 -7 -117zM1013 657q7 59 7 112q0 55 -8 103q-16 94 -58 160t-108.5 100.5t-153.5 34.5h-252l-125 -1020h252q87 0 162 34.5t133.5 100t97 160.5t53.5 215z" />
<glyph unicode="&#x1c6;" horiz-adv-x="1862" d="M1303 1369h118q20 0 34 -14l96 -123l13 -19q5 5 9 10t9 9l126 123q14 14 39 14h113l-231 -254h-157zM1856 904q-6 -36 -31 -68l-544 -699h465l-17 -137h-673l8 73q5 31 31 63l545 705h-456l18 137h663zM543 992q152 0 242 -109l67 539h172l-175 -1422h-92q-57 0 -57 51v9 l18 208q-120 -202 -281 -262q-54 -20 -110 -20q-129 0 -202 92t-73 268q0 248 140 442q92 126 218 178q64 26 133 26zM770 762q-69 95 -201 95h-3q-99 0 -180 -77q-113 -105 -149 -301q-11 -59 -11 -116q0 -115 43.5 -176t131.5 -61t184 109t155 279z" />
<glyph unicode="&#x1c7;" horiz-adv-x="1401" d="M1353 455q-14 -110 -45 -197t-79.5 -147.5t-113 -92.5t-143.5 -32q-36 0 -70.5 5.5t-72.5 18.5q5 28 11 55t12 53q4 15 14 25t27 10q12 0 30.5 -7.5t49.5 -7.5q84 0 137 74t73 239l106 863h169zM314 153h471l-19 -153h-640l161 1314h169z" />
<glyph unicode="&#x1c8;" horiz-adv-x="1287" d="M1187 978l-129 -1049q-15 -123 -93.5 -201.5t-210.5 -78.5q-65 0 -111 19l19 94q5 19 19 19h49q74 0 109.5 35t45.5 113l130 1049h172zM1115 1409q92 0 126 -77q10 -23 10 -48q0 -50 -38 -86t-85 -37q-48 0 -85 37t-37 87q1 49 27 77q46 47 82 47zM314 153h471l-19 -153 h-640l161 1314h169z" />
<glyph unicode="&#x1c9;" horiz-adv-x="960" d="M860 978l-129 -1049q-15 -123 -93.5 -201.5t-210.5 -78.5q-65 0 -111 19l19 94q5 19 19 19h49q74 0 109.5 35t45.5 113l130 1049h172zM788 1409q92 0 126 -77q10 -23 10 -48q0 -50 -38 -86t-85 -37q-48 0 -85 37t-37 87q1 49 27 77q46 47 82 47zM88 0l171 1422h173 l-172 -1422h-172z" />
<glyph unicode="&#x1ca;" horiz-adv-x="1827" d="M1779 455q-14 -110 -45 -197t-79.5 -147.5t-113 -92.5t-143.5 -32q-36 0 -70.5 5.5t-72.5 18.5q5 28 11 55t12 53q4 15 14 25t27 10q12 0 30.5 -7.5t49.5 -7.5q84 0 137 74t73 239l106 863h169zM384 1314q23 0 32 -5q11 -6 22 -26l544 -983q1 24 2.5 47.5t3.5 43.5 l113 923h149l-161 -1314h-86q-20 0 -32 7q-15 9 -23 25l-544 980q-1 -23 -2.5 -44t-4.5 -40l-114 -928h-148l161 1314h88z" />
<glyph unicode="&#x1cb;" horiz-adv-x="1713" d="M1613 978l-129 -1049q-15 -123 -93.5 -201.5t-210.5 -78.5q-65 0 -111 19l19 94q5 19 19 19h49q74 0 109.5 35t45.5 113l130 1049h172zM1541 1409q92 0 126 -77q10 -23 10 -48q0 -50 -38 -86t-85 -37q-48 0 -85 37t-37 87q1 49 27 77q46 47 82 47zM384 1314q23 0 32 -5 q11 -6 22 -26l544 -983q1 24 2.5 47.5t3.5 43.5l113 923h149l-161 -1314h-86q-20 0 -32 7q-15 9 -23 25l-544 980q-1 -23 -2.5 -44t-4.5 -40l-114 -928h-148l161 1314h88z" />
<glyph unicode="&#x1cc;" horiz-adv-x="1543" d="M1443 978l-129 -1049q-15 -123 -93.5 -201.5t-210.5 -78.5q-65 0 -111 19l19 94q5 19 19 19h49q74 0 109.5 35t45.5 113l130 1049h172zM1371 1409q92 0 126 -77q10 -23 10 -48q0 -50 -38 -86t-85 -37q-48 0 -85 37t-37 87q1 49 27 77q46 47 82 47zM779 694 q0 153 -129 153q-98 -1 -197 -100t-151 -254l-55 -493h-175l117 979h87q58 0 58 -52v-7l-13 -192q80 131 182.5 197.5t221.5 66.5t181 -96q48 -74 48 -191q0 -38 -5 -82l-73 -623h-175l73 623q5 39 5 71z" />
<glyph unicode="&#x1cd;" horiz-adv-x="1101" d="M483 1705h118q20 0 34 -14l96 -123l13 -19q5 5 9 10t9 9l126 123q14 14 39 14h113l-231 -254h-157zM1095 0h-131q-22 0 -34 12t-17 30l-66 316h-504l-142 -315q-8 -17 -24.5 -30t-38.5 -13h-131l620 1314h172zM402 488h418l-108 529q-6 24 -11.5 56t-8.5 69 q-14 -38 -27.5 -70t-24.5 -56z" />
<glyph unicode="&#x1ce;" horiz-adv-x="1053" d="M509 1369h118q20 0 34 -14l96 -123l13 -19q5 5 9 10t9 9l126 123q14 14 39 14h113l-231 -254h-157zM717 268q-167 -282 -389 -282q-130 0 -205 91t-75 261t90 322q137 232 394 306q85 24 206 24q1 0 3 1q119 0 222 -45l-115 -946h-92q-57 0 -57 51v9zM780 856 q-37 8 -113 8t-160 -41t-147 -109q-136 -148 -136 -347q0 -235 169 -235q153 0 279 237q38 72 68 158z" />
<glyph unicode="&#x1cf;" horiz-adv-x="473" d="M168 1705h118q20 0 34 -14l96 -123l13 -19q5 5 9 10t9 9l126 123q14 14 39 14h113l-231 -254h-157zM321 0h-169l161 1314h170z" />
<glyph unicode="&#x1d0;" horiz-adv-x="423" d="M95 1369h118q20 0 34 -14l96 -123l13 -19q5 5 9 10t9 9l126 123q14 14 39 14h113l-231 -254h-157zM398 929l-114 -929h-157l114 929h157z" />
<glyph unicode="&#x1d1;" horiz-adv-x="1258" d="M561 1705h118q20 0 34 -14l96 -123l13 -19q5 5 9 10t9 9l126 123q14 14 39 14h113l-231 -254h-157zM1273 657q-18 -148 -73.5 -271t-140.5 -212t-194.5 -138.5t-236.5 -49.5q-126 0 -223.5 49.5t-161 138.5t-89.5 212q-15 73 -15 154q0 56 7 117q18 147 74 270.5 t141.5 213t196 139t235.5 49.5q126 0 224 -49.5t161 -139.5q63 -88 88 -212q15 -72 15 -152q0 -57 -8 -119zM1100 657q7 59 7 112v12q0 48 -7 91q-16 96 -58.5 162.5t-110.5 102t-157 35.5t-165.5 -35.5t-136 -102t-98.5 -162t-54 -215.5q-7 -58 -7 -110q0 -55 8 -105 q16 -96 59 -162.5t110.5 -101.5t157.5 -35q89 0 165.5 35t135 101.5t97.5 162t54 215.5z" />
<glyph unicode="&#x1d2;" horiz-adv-x="1051" d="M356 1369h118q20 0 34 -14l96 -123l13 -19q5 5 9 10t9 9l126 123q14 14 39 14h113l-231 -254h-157zM467 123h2q149 0 245 135q95 134 95 319q0 141 -61 210q-60 69 -156 69q-169 0 -264.5 -135t-95.5 -321q0 -137 60.5 -207t174.5 -70zM662.5 33.5 q-97.5 -47.5 -197.5 -47.5q-192 0 -300.5 110.5t-108.5 302.5q0 247 153.5 420t378.5 174q178 -1 288 -111q109 -109 109 -298v-4v-2q0 -243 -153 -416q-72 -81 -169.5 -128.5z" />
<glyph unicode="&#x1d3;" horiz-adv-x="1216" d="M539 1705h118q20 0 34 -14l96 -123l13 -19q5 5 9 10t9 9l126 123q14 14 39 14h113l-231 -254h-157zM626 144q73 0 134.5 27.5t107.5 77t75.5 117.5t39.5 150l98 798h169l-98 -798q-14 -114 -59 -211t-116 -168t-165 -111.5t-206 -40.5t-195.5 40.5t-137 111.5t-75.5 168 q-13 59 -13 124q0 42 6 87l98 798h169l-98 -797q-4 -36 -4 -70q0 -43 6 -81q12 -68 46.5 -117.5t89.5 -77t128 -27.5z" />
<glyph unicode="&#x1d4;" horiz-adv-x="1053" d="M345 1369h118q20 0 34 -14l96 -123l13 -19q5 5 9 10t9 9l126 123q14 14 39 14h113l-231 -254h-157zM270 289q0 -157 129 -157q95 0 192 93.5t152 247.5l60 505h175l-118 -978h-87q-62 0 -62 55v8l13 179q-80 -127 -181 -191.5t-220 -64.5t-181 97q-47 72 -47 186 q0 43 5 87l73 622h175l-74 -622q-4 -37 -4 -67z" />
<glyph unicode="&#x1d5;" horiz-adv-x="1314" d="M545 1875h513l-14 -111h-513zM626 144q73 0 134.5 27.5t107.5 77t75.5 117.5t39.5 150l98 798h169l-98 -798q-14 -114 -59 -211t-116 -168t-165 -111.5t-206 -40.5t-195.5 40.5t-137 111.5t-75.5 168q-13 59 -13 124q0 42 6 87l98 798h169l-98 -797q-4 -36 -4 -70 q0 -43 6 -81q12 -68 46.5 -117.5t89.5 -77t128 -27.5zM593 1610q27 -28 27 -60q0 -57 -37.5 -92.5t-80 -35.5t-68.5 28.5t-26 60.5q0 57 35 93t78 36h1q44 0 71 -30zM997 1610q27 -28 27 -60q0 -57 -37.5 -92.5t-80 -35.5t-68.5 28.5t-26 60.5q0 57 35 93t78 36h1 q44 0 71 -30z" />
<glyph unicode="&#x1d6;" horiz-adv-x="1053" d="M390 1569h513l-14 -111h-513zM881 1225q-3 -23 -14 -43t-27 -35t-36 -23.5t-41 -8.5t-38.5 8.5t-30 23.5t-17.5 35t-3 43q3 23 13.5 43t26.5 35t35.5 24t40.5 9q20 0 38.5 -9t31 -24t18.5 -35t3 -43zM537 1225q-3 -23 -14 -43t-27 -35t-36 -23.5t-41 -8.5t-38.5 8.5 t-30 23.5t-18 35t-2.5 43t13.5 43t26 35t35.5 24t41 9q20 0 38.5 -9t31 -24t18.5 -35t3 -43zM270 289q0 -157 129 -157q95 0 192 93.5t152 247.5l60 505h175l-118 -978h-87q-62 0 -62 55v8l13 179q-80 -127 -181 -191.5t-220 -64.5t-181 97q-47 72 -47 186q0 43 5 87l73 622 h175l-74 -622q-4 -37 -4 -67z" />
<glyph unicode="&#x1d7;" horiz-adv-x="1314" d="M1142 2038l-241 -248q-24 -26 -62 -26h-101l161 233q27 41 78 41h165zM626 144q73 0 134.5 27.5t107.5 77t75.5 117.5t39.5 150l98 798h169l-98 -798q-14 -114 -59 -211t-116 -168t-165 -111.5t-206 -40.5t-195.5 40.5t-137 111.5t-75.5 168q-13 59 -13 124q0 42 6 87 l98 798h169l-98 -797q-4 -36 -4 -70q0 -43 6 -81q12 -68 46.5 -117.5t89.5 -77t128 -27.5zM593 1610q27 -28 27 -60q0 -57 -37.5 -92.5t-80 -35.5t-68.5 28.5t-26 60.5q0 57 35 93t78 36h1q44 0 71 -30zM997 1610q27 -28 27 -60q0 -57 -37.5 -92.5t-80 -35.5t-68.5 28.5 t-26 60.5q0 57 35 93t78 36h1q44 0 71 -30z" />
<glyph unicode="&#x1d8;" horiz-adv-x="1053" d="M987 1732l-241 -248q-24 -26 -62 -26h-101l161 233q27 41 78 41h165zM881 1225q-3 -23 -14 -43t-27 -35t-36 -23.5t-41 -8.5t-38.5 8.5t-30 23.5t-17.5 35t-3 43q3 23 13.5 43t26.5 35t35.5 24t40.5 9q20 0 38.5 -9t31 -24t18.5 -35t3 -43zM537 1225q-3 -23 -14 -43 t-27 -35t-36 -23.5t-41 -8.5t-38.5 8.5t-30 23.5t-18 35t-2.5 43t13.5 43t26 35t35.5 24t41 9q20 0 38.5 -9t31 -24t18.5 -35t3 -43zM270 289q0 -157 129 -157q95 0 192 93.5t152 247.5l60 505h175l-118 -978h-87q-62 0 -62 55v8l13 179q-80 -127 -181 -191.5t-220 -64.5 t-181 97q-47 72 -47 186q0 43 5 87l73 622h175l-74 -622q-4 -37 -4 -67z" />
<glyph unicode="&#x1d9;" horiz-adv-x="1314" d="M541 2018h118q20 0 34 -14l96 -123l13 -19q5 5 9 10t9 9l126 123q14 14 39 14h113l-231 -254h-157zM626 144q73 0 134.5 27.5t107.5 77t75.5 117.5t39.5 150l98 798h169l-98 -798q-14 -114 -59 -211t-116 -168t-165 -111.5t-206 -40.5t-195.5 40.5t-137 111.5t-75.5 168 q-13 59 -13 124q0 42 6 87l98 798h169l-98 -797q-4 -36 -4 -70q0 -43 6 -81q12 -68 46.5 -117.5t89.5 -77t128 -27.5zM593 1610q27 -28 27 -60q0 -57 -37.5 -92.5t-80 -35.5t-68.5 28.5t-26 60.5q0 57 35 93t78 36h1q44 0 71 -30zM997 1610q27 -28 27 -60q0 -57 -37.5 -92.5 t-80 -35.5t-68.5 28.5t-26 60.5q0 57 35 93t78 36h1q44 0 71 -30z" />
<glyph unicode="&#x1da;" horiz-adv-x="1053" d="M386 1712h118q20 0 34 -14l96 -123l13 -19q5 5 9 10t9 9l126 123q14 14 39 14h113l-231 -254h-157zM881 1225q-3 -23 -14 -43t-27 -35t-36 -23.5t-41 -8.5t-38.5 8.5t-30 23.5t-17.5 35t-3 43q3 23 13.5 43t26.5 35t35.5 24t40.5 9q20 0 38.5 -9t31 -24t18.5 -35t3 -43z M537 1225q-3 -23 -14 -43t-27 -35t-36 -23.5t-41 -8.5t-38.5 8.5t-30 23.5t-18 35t-2.5 43t13.5 43t26 35t35.5 24t41 9q20 0 38.5 -9t31 -24t18.5 -35t3 -43zM270 289q0 -157 129 -157q95 0 192 93.5t152 247.5l60 505h175l-118 -978h-87q-62 0 -62 55v8l13 179 q-80 -127 -181 -191.5t-220 -64.5t-181 97q-47 72 -47 186q0 43 5 87l73 622h175l-74 -622q-4 -37 -4 -67z" />
<glyph unicode="&#x1db;" horiz-adv-x="1314" d="M667 2038q49 0 67 -41l102 -233h-96q-34 0 -54 26l-180 248h161zM626 144q73 0 134.5 27.5t107.5 77t75.5 117.5t39.5 150l98 798h169l-98 -798q-14 -114 -59 -211t-116 -168t-165 -111.5t-206 -40.5t-195.5 40.5t-137 111.5t-75.5 168q-13 59 -13 124q0 42 6 87l98 798 h169l-98 -797q-4 -36 -4 -70q0 -43 6 -81q12 -68 46.5 -117.5t89.5 -77t128 -27.5zM593 1610q27 -28 27 -60q0 -57 -37.5 -92.5t-80 -35.5t-68.5 28.5t-26 60.5q0 57 35 93t78 36h1q44 0 71 -30zM997 1610q27 -28 27 -60q0 -57 -37.5 -92.5t-80 -35.5t-68.5 28.5t-26 60.5 q0 57 35 93t78 36h1q44 0 71 -30z" />
</font>
</defs>
</svg>
